<?xml version="1.0" standalone="no"?>
<!DOCTYPE svg PUBLIC "-//W3C//DTD SVG 1.1//EN" "http://www.w3.org/Graphics/SVG/1.1/DTD/svg11.dtd" >
<svg>
<metadata>
Created by FontForge 20120731 at Mon Jun 10 12:40:09 2013
 By Jenkins
Futura was designed for Bauer company in 1927 by Paul Renner. This is a sans serif face based on geometrical shapes, representative of the aesthetics of the Bauhaus school of the 1920s-30s. Issued by the Bauer Foundry in a wide range of weights and widths, Futura became a very popular choice for text and display setting. Originally Cyrillic version of eight styles was developed at ParaType (ParaGraph) in 1995 by Vladimir Yefimov. Additional Cyrillic styles were developed for ParaType in 2007 by Isabella Chaeva. Simultaneously the old eight styles were partly revised to match the whole family. Now the new Futura is an uniform type system consisted of seven weights with corresponding obliques plus eight condensed styles. All these fonts are coordinated in letterforms, metrics, and weights to better working together.
</metadata>
<defs>
<font id="FuturaNewBook-Reg" horiz-adv-x="568" >
  <font-face 
    font-family="Futura New Book"
    font-weight="400"
    font-stretch="normal"
    units-per-em="1000"
    panose-1="2 11 5 2 2 2 4 2 3 3"
    ascent="800"
    descent="-200"
    x-height="415"
    cap-height="667"
    bbox="-362 -250 1027 926"
    underline-thickness="50"
    underline-position="-50"
    stemh="72"
    stemv="72"
    unicode-range="U+0020-FB02"
  />
<missing-glyph horiz-adv-x="233" 
 />
    <glyph glyph-name="uniF460" unicode="&#x410;`" horiz-adv-x="622" 
d="M532 0l-78 188h-284l-80 -188h-82l307 699l299 -699h-82zM199 258h226l-112 267zM393 882l70 -45l-153 -117l-43 32z" />
    <glyph glyph-name="uniF461" unicode="&#x415;`" horiz-adv-x="482" 
d="M432 667v-70h-272v-198h264v-70h-264v-259h272v-70h-346v667h346zM323 882l70 -45l-153 -117l-43 32z" />
    <glyph glyph-name="uniF462" unicode="&#x418;`" horiz-adv-x="710" 
d="M550 0v509l-464 -539v697h74v-511l464 539v-695h-74zM437 882l70 -45l-153 -117l-43 32z" />
    <glyph glyph-name="uniF463" unicode="&#x41e;`" horiz-adv-x="794" 
d="M397 -12c-193 0 -347 147 -347 345c0 199 155 345 347 345s347 -146 347 -345c0 -198 -154 -345 -347 -345zM397 608c-150 0 -271 -122 -271 -275s121 -275 271 -275s271 122 271 275s-121 275 -271 275zM479 882l70 -45l-153 -117l-43 32z" />
    <glyph glyph-name="uniF464" unicode="&#x423;`" 
d="M8 667h90l208 -393l174 393h80l-301 -667h-80l85 186zM366 882l70 -45l-153 -117l-43 32z" />
    <glyph glyph-name="uniF465" unicode="&#x42b;`" horiz-adv-x="710" 
d="M86 0v667h74v-277h90c82 0 230 -17 230 -188c0 -127 -85 -202 -216 -202h-178zM160 320v-250h86c30 0 85 0 123 37c18 17 35 47 35 95c0 32 -8 76 -54 101c-31 17 -71 17 -112 17h-78zM550 667h74v-667h-74v667zM437 882l70 -45l-153 -117l-43 32z" />
    <glyph glyph-name="uniF466" unicode="&#x42d;`" horiz-adv-x="645" 
d="M50 520v92c77 53 155 66 217 66c202 0 328 -148 328 -347c0 -195 -123 -343 -324 -343c-55 0 -139 12 -221 65v92c22 -23 46 -39 77 -54c48 -23 100 -33 144 -33c130 0 249 101 248 252h-389v70h386c-10 126 -107 228 -244 228c-45 0 -94 -10 -135 -28
c-17 -8 -52 -25 -87 -60zM404 882l70 -45l-153 -117l-43 32z" />
    <glyph glyph-name="uniF467" unicode="&#x42e;`" horiz-adv-x="990" 
d="M160 389h102c24 164 158 289 337 289c196 0 341 -143 341 -345c0 -198 -145 -345 -341 -345c-199 0 -333 154 -340 331h-99v-319h-74v667h74v-278zM599 608c-147 0 -264 -118 -264 -275s117 -275 264 -275s265 118 265 275s-118 275 -265 275zM577 882l70 -45l-153 -117
l-43 32z" />
    <glyph glyph-name="uniF468" unicode="&#x42f;`" horiz-adv-x="510" 
d="M30 0l196 296c-30 3 -76 13 -112 42c-48 39 -58 91 -58 136c0 60 19 103 46 133c52 58 126 60 166 60h156v-667h-74v292h-40l-190 -292h-90zM350 597h-72c-35 0 -82 -2 -114 -35c-18 -19 -32 -49 -32 -86c0 -45 17 -73 38 -90c28 -22 70 -28 102 -28h78v239zM337 882
l70 -45l-153 -117l-43 32z" />
    <glyph glyph-name="uniF469" unicode="&#x401;`" horiz-adv-x="482" 
d="M432 667v-70h-272v-198h264v-70h-264v-259h272v-70h-346v667h346zM291 882l55 -37l-124 -118l-34 25zM86 793c0 28 20 48 48 48c33 0 49 -26 49 -48c0 -27 -22 -49 -49 -49c-22 0 -48 16 -48 49zM335 793c0 22 16 48 49 48c28 0 48 -20 48 -48c0 -33 -26 -49 -48 -49
c-27 0 -49 22 -49 49z" />
    <glyph glyph-name="uniF46A" unicode="&#x430;`" horiz-adv-x="526" 
d="M386 356v59h72v-415h-72v58c-24 -31 -69 -70 -142 -70c-105 0 -202 74 -202 220c0 143 96 217 202 217c80 0 123 -44 142 -69zM252 361c-71 0 -136 -52 -136 -153c0 -89 50 -156 136 -156c88 0 138 73 138 155c0 107 -74 154 -138 154zM325 666l74 -34l-134 -135l-45 24z
" />
    <glyph glyph-name="uniF46B" unicode="&#x435;`" horiz-adv-x="481" 
d="M376 139l60 -33c-12 -23 -30 -48 -51 -67c-38 -34 -85 -51 -138 -51c-100 0 -205 63 -205 217c0 124 76 220 201 220c81 0 132 -40 157 -76c26 -37 41 -101 39 -156h-323c1 -86 60 -141 132 -141c34 0 61 10 85 30c19 16 34 37 43 57zM121 253h244
c-12 65 -61 108 -122 108s-111 -46 -122 -108zM302 666l74 -34l-134 -135l-45 24z" />
    <glyph glyph-name="uniF46C" unicode="&#x438;`" horiz-adv-x="492" 
d="M68 415h72v-274l284 306v-447h-72v277l-284 -306v444zM308 666l74 -34l-134 -135l-45 24z" />
    <glyph glyph-name="uniF46D" unicode="&#x43e;`" horiz-adv-x="524" 
d="M262 -12c-126 0 -220 92 -220 218s93 219 220 219s220 -93 220 -219s-94 -218 -220 -218zM262 361c-76 0 -146 -54 -146 -155c0 -102 72 -154 146 -154c75 0 146 53 146 154c0 102 -70 155 -146 155zM324 666l74 -34l-134 -135l-45 24z" />
    <glyph glyph-name="uniF46E" unicode="&#x443;`" horiz-adv-x="460" 
d="M67 -230l132 269l-191 376h82l147 -297l135 297h80l-305 -645h-80zM292 666l74 -34l-134 -135l-45 24z" />
    <glyph glyph-name="uniF46F" unicode="&#x44b;`" horiz-adv-x="562" 
d="M68 0v415h72v-159h74c37 0 89 -3 126 -41c16 -16 32 -45 32 -87c0 -45 -19 -76 -37 -93c-36 -34 -81 -35 -122 -35h-145zM140 64h67c24 0 47 1 64 11c9 6 27 21 27 53c0 18 -5 39 -26 52c-18 12 -41 12 -64 12h-68v-128zM422 0v415h72v-415h-72zM343 666l74 -34
l-134 -135l-45 24z" />
    <glyph glyph-name="uniF470" unicode="&#x44d;`" horiz-adv-x="423" 
d="M42 334v70c42 17 80 21 113 21c143 0 226 -92 226 -220c0 -125 -89 -217 -221 -217c-62 0 -101 16 -118 23v70c38 -20 83 -29 117 -29c75 0 140 50 148 128h-219v64h219c-16 76 -78 117 -149 117c-34 0 -77 -9 -116 -27zM273 666l74 -34l-134 -135l-45 24z" />
    <glyph glyph-name="uniF471" unicode="&#x44e;`" horiz-adv-x="690" 
d="M140 245h75c7 50 30 91 56 118c36 38 91 62 157 62c128 0 220 -93 220 -219s-93 -218 -220 -218c-86 0 -140 39 -171 78c-20 25 -41 63 -46 113h-71v-179h-72v415h72v-170zM428 361c-77 0 -143 -56 -143 -155c0 -102 70 -154 143 -154c75 0 146 53 146 154
s-70 155 -146 155zM407 666l74 -34l-134 -135l-45 24z" />
    <glyph glyph-name="uniF472" unicode="&#x44f;`" horiz-adv-x="408" 
d="M20 0l129 171c-5 0 -50 4 -80 33c-17 16 -33 44 -33 83s14 72 37 93c36 34 81 35 122 35h145v-415h-72v167h-44l-118 -167h-86zM268 227v124h-67c-29 0 -50 -2 -65 -11c-12 -8 -26 -24 -26 -51c0 -22 8 -39 26 -50c21 -13 47 -12 64 -12h68zM266 666l74 -34l-134 -135
l-45 24z" />
    <glyph glyph-name="uniF473" unicode="&#x451;`" horiz-adv-x="481" 
d="M376 139l60 -33c-12 -23 -30 -48 -51 -67c-32 -29 -76 -51 -138 -51c-71 0 -117 27 -144 54c-51 50 -61 116 -61 163c0 52 11 117 66 169c38 36 83 51 135 51c81 0 132 -39 157 -76c26 -37 41 -101 39 -156h-323c-1 -56 27 -90 42 -105c22 -22 52 -36 90 -36
c34 0 61 9 85 30c19 16 34 37 43 57zM121 253h244c-5 30 -20 55 -37 73c-13 13 -41 35 -85 35c-24 0 -57 -7 -85 -37c-17 -17 -31 -42 -37 -71zM78 550c0 27 23 50 50 50s50 -23 50 -50s-23 -50 -50 -50s-50 23 -50 50zM308 550c0 27 23 50 50 50s50 -23 50 -50
s-23 -50 -50 -50s-50 23 -50 50zM291 666l61 -27l-134 -135l-32 17z" />
    <glyph glyph-name="fi" unicode="fi" horiz-adv-x="460" 
d="M244 349h-102v-349h-72v349h-40v66h40v156c0 45 3 79 24 109c19 28 59 61 137 61c35 0 102 -6 137 -61c23 -37 24 -77 24 -109v-17h-72v17c0 16 -1 45 -14 65c-12 18 -35 32 -75 32s-63 -14 -75 -32c-13 -19 -14 -44 -14 -65v-156h102v-66zM320 415h72v-415h-72v415z" />
    <glyph glyph-name="fl" unicode="fl" horiz-adv-x="460" 
d="M244 349h-102v-349h-72v349h-40v66h40v156c0 45 3 79 24 109c19 28 59 61 137 61c35 0 102 -6 137 -61c23 -37 24 -77 24 -109v-571h-72v571c0 16 -1 45 -14 65c-12 18 -35 32 -75 32s-63 -14 -75 -32c-13 -19 -14 -44 -14 -65v-156h102v-66z" />
    <glyph glyph-name=".notdef" horiz-adv-x="233" 
 />
    <glyph glyph-name="space" unicode=" " horiz-adv-x="233" 
 />
    <glyph glyph-name="exclam" unicode="!" horiz-adv-x="280" 
d="M176 135h-72v532h72v-532zM90 40c0 27 23 50 50 50s50 -23 50 -50s-23 -50 -50 -50s-50 23 -50 50z" />
    <glyph glyph-name="quotedbl" unicode="&#x22;" horiz-adv-x="330" 
d="M134 667l-13 -268h-54l-13 268h80zM276 667l-13 -268h-54l-13 268h80z" />
    <glyph glyph-name="numbersign" unicode="#" horiz-adv-x="600" 
d="M394 0h-73l32 207h-136l-32 -207h-73l32 207h-110l10 66h110l20 133h-110l10 66h110l30 195h73l-30 -195h136l30 195h73l-30 -195h110l-10 -66h-110l-20 -133h110l-10 -66h-110zM363 273l20 133h-136l-20 -133h136z" />
    <glyph glyph-name="dollar" unicode="$" 
d="M467 574l-59 -39c-9 18 -24 38 -38 50c-17 15 -32 19 -43 21v-222c49 -19 89 -41 117 -70c32 -33 47 -74 47 -121c0 -90 -57 -184 -164 -201v-93h-60v89c-55 2 -99 26 -128 54c-31 31 -53 77 -62 118l72 20c5 -35 20 -65 40 -85c27 -28 56 -36 78 -37v274
c-27 11 -76 33 -110 65c-35 33 -46 67 -46 109c0 95 70 162 156 170v87h60v-87c19 -2 46 -7 76 -28c26 -18 49 -45 64 -74zM327 304v-242c56 15 88 74 88 128c0 39 -17 64 -32 79s-41 29 -56 35zM267 411v195c-54 -9 -82 -52 -82 -99c0 -22 6 -41 25 -60
c14 -14 37 -28 57 -36z" />
    <glyph glyph-name="percent" unicode="%" horiz-adv-x="710" 
d="M178 673c81 0 145 -64 145 -145s-64 -145 -145 -145s-145 64 -145 145s64 145 145 145zM178 438c49 0 85 41 85 90s-36 90 -85 90c-47 0 -85 -40 -85 -90s38 -90 85 -90zM141 10l389 670l39 -22l-389 -671zM532 283c81 0 145 -64 145 -145s-64 -145 -145 -145
s-145 64 -145 145s64 145 145 145zM532 48c49 0 85 41 85 90s-36 90 -85 90c-47 0 -85 -40 -85 -90s38 -90 85 -90z" />
    <glyph glyph-name="ampersand" unicode="&#x26;" horiz-adv-x="636" 
d="M545 289l54 -45c-18 -25 -44 -57 -85 -99l112 -145h-92l-72 93c-58 -58 -139 -105 -215 -105c-109 0 -193 79 -193 185c0 72 38 116 60 138c35 35 98 74 112 83c-45 58 -66 98 -66 143c0 70 49 141 145 141c93 0 141 -67 141 -134c0 -31 -9 -75 -62 -121
c-17 -15 -11 -7 -54 -43l139 -179c36 38 57 62 76 88zM417 148l-148 191c-49 -30 -75 -52 -94 -69s-47 -44 -47 -96c0 -66 49 -118 118 -118c71 0 146 68 171 92zM257 475l30 -41l44 34c38 30 45 54 45 77c0 47 -37 69 -72 69c-41 0 -74 -31 -74 -73c0 -29 14 -48 27 -66z
" />
    <glyph glyph-name="quotesingle" unicode="'" horiz-adv-x="188" 
d="M134 667l-13 -268h-54l-13 268h80z" />
    <glyph glyph-name="parenleft" unicode="(" horiz-adv-x="294" 
d="M167 740l63 -29c-18 -47 -37 -105 -51 -173c-18 -87 -25 -165 -25 -252c0 -82 5 -154 24 -244c13 -65 31 -125 52 -183l-63 -29c-44 115 -63 210 -66 226c-14 74 -21 158 -21 232c0 67 5 160 28 260c15 64 39 139 59 192z" />
    <glyph glyph-name="parenright" unicode=")" horiz-adv-x="294" 
d="M64 711l63 29c20 -53 44 -128 59 -192c23 -100 28 -193 28 -260c0 -74 -7 -158 -21 -232c-3 -16 -22 -111 -66 -226l-63 29c21 58 39 118 52 183c19 90 24 162 24 244c0 87 -7 165 -25 252c-14 68 -33 126 -51 173z" />
    <glyph glyph-name="asterisk" unicode="*" 
d="M139 648l116 -43l-5 124h68l-5 -124l116 43l21 -63l-120 -34l77 -97l-54 -39l-69 103l-69 -103l-54 39l77 97l-120 34z" />
    <glyph glyph-name="plus" unicode="+" horiz-adv-x="500" 
d="M33 300v66h181v172h72v-172h181v-66h-181v-172h-72v172h-181z" />
    <glyph glyph-name="comma" unicode="," horiz-adv-x="274" 
d="M24 -133l82 231l66 -24l-101 -226z" />
    <glyph glyph-name="hyphen" unicode="-" horiz-adv-x="320" 
d="M50 176v74h220v-74h-220z" />
    <glyph glyph-name="period" unicode="." horiz-adv-x="228" 
d="M64 40c0 27 23 50 50 50s50 -23 50 -50s-23 -50 -50 -50s-50 23 -50 50z" />
    <glyph glyph-name="slash" unicode="/" horiz-adv-x="592" 
d="M0 -170l514 929l58 -30l-514 -927z" />
    <glyph glyph-name="zero" unicode="0" 
d="M284 -12c-53 0 -120 26 -171 100c-44 64 -67 150 -67 245s23 181 67 245c51 74 118 100 171 100s120 -26 171 -100c44 -64 67 -150 67 -245s-23 -181 -67 -245c-51 -74 -118 -100 -171 -100zM284 610c-34 0 -80 -18 -115 -74c-36 -57 -49 -133 -49 -203s13 -146 49 -203
c35 -56 81 -74 115 -74s80 18 115 74c36 57 49 133 49 203s-13 146 -49 203c-35 56 -81 74 -115 74z" />
    <glyph glyph-name="one" unicode="1" 
d="M266 0v597h-112l39 70h147v-667h-74z" />
    <glyph glyph-name="two" unicode="2" 
d="M481 0h-431l243 281c17 20 62 73 78 97c30 43 37 75 37 102c0 75 -54 130 -133 130c-47 0 -86 -21 -111 -59c-13 -20 -21 -45 -22 -79h-74c3 67 24 108 50 138c28 32 75 68 158 68c118 0 206 -84 206 -199c0 -45 -13 -86 -53 -143c-28 -39 -64 -80 -91 -111l-139 -157
h282v-68z" />
    <glyph glyph-name="three" unicode="3" 
d="M160 502h-74c2 37 14 71 31 98c44 69 115 78 155 78c126 0 188 -88 188 -180c0 -48 -18 -114 -86 -148c23 -9 96 -46 96 -161c0 -125 -91 -201 -205 -201c-69 0 -150 29 -186 115c-10 24 -14 46 -15 70h74c3 -24 11 -49 24 -67c22 -32 61 -50 103 -50
c74 0 131 61 131 135c0 38 -15 89 -66 112c-21 10 -50 15 -76 14v66c26 -2 55 3 76 14s56 39 56 99c0 59 -32 114 -114 114c-27 0 -60 -5 -86 -38c-13 -17 -24 -42 -26 -70z" />
    <glyph glyph-name="four" unicode="4" 
d="M436 704v-510h82v-68h-82v-126h-74v126h-342zM151 194h211v295z" />
    <glyph glyph-name="five" unicode="5" 
d="M479 667v-68h-214l-43 -144c13 3 26 4 42 4c134 0 220 -101 220 -231c0 -149 -112 -240 -243 -240c-54 0 -104 15 -149 52c-21 18 -42 41 -58 68l59 42c11 -22 25 -38 45 -54c28 -23 62 -40 108 -40c94 0 164 77 164 171c0 96 -69 164 -164 164c-24 0 -69 -4 -129 -46
l97 322h265z" />
    <glyph glyph-name="six" unicode="6" 
d="M336 683l56 -42l-153 -213c19 6 38 9 59 9c128 0 216 -96 216 -220c0 -133 -96 -229 -229 -229c-157 0 -231 122 -231 227c0 25 5 83 55 153zM284 56c92 0 156 69 156 159c0 89 -66 154 -157 154s-155 -67 -155 -154c0 -89 63 -159 156 -159z" />
    <glyph glyph-name="seven" unicode="7" 
d="M52 23l379 576h-365v68h490l-446 -683z" />
    <glyph glyph-name="eight" unicode="8" 
d="M387 347c68 -30 101 -91 101 -163c0 -104 -68 -196 -204 -196s-204 92 -204 196c0 72 33 133 101 163c-53 31 -81 84 -81 146c0 95 64 185 184 185s184 -90 184 -185c0 -62 -28 -115 -81 -146zM284 377c65 0 114 49 114 115c0 73 -53 118 -114 118s-114 -45 -114 -118
c0 -66 49 -115 114 -115zM284 56c77 0 130 54 130 130c0 75 -54 127 -130 127s-130 -52 -130 -127c0 -76 53 -130 130 -130z" />
    <glyph glyph-name="nine" unicode="9" 
d="M232 -16l-56 41l153 213c-19 -6 -38 -9 -59 -9c-128 0 -216 96 -216 220c0 133 96 229 229 229c157 0 231 -122 231 -227c0 -25 -5 -84 -55 -153zM284 610c-92 0 -156 -69 -156 -159c0 -89 66 -154 157 -154s155 67 155 154c0 89 -63 159 -156 159z" />
    <glyph glyph-name="colon" unicode=":" horiz-adv-x="228" 
d="M64 375c0 27 23 50 50 50s50 -23 50 -50s-23 -50 -50 -50s-50 23 -50 50zM64 38c0 27 23 50 50 50s50 -23 50 -50s-23 -50 -50 -50s-50 23 -50 50z" />
    <glyph glyph-name="semicolon" unicode=";" horiz-adv-x="274" 
d="M78 375c0 27 23 50 50 50s50 -23 50 -50s-23 -50 -50 -50s-50 23 -50 50zM24 -133l82 231l66 -24l-101 -226z" />
    <glyph glyph-name="less" unicode="&#x3c;" horiz-adv-x="500" 
d="M110 330l357 -162v-72l-434 203v62l434 203v-72z" />
    <glyph glyph-name="equal" unicode="=" horiz-adv-x="500" 
d="M33 384v66h434v-66h-434zM33 230v66h434v-66h-434z" />
    <glyph glyph-name="greater" unicode="&#x3e;" horiz-adv-x="500" 
d="M390 330l-357 162v72l434 -203v-62l-434 -203v72z" />
    <glyph glyph-name="question" unicode="?" horiz-adv-x="436" 
d="M289 289h72c0 -47 -16 -87 -41 -113c-16 -17 -48 -40 -103 -40c-51 0 -84 20 -104 40c-16 16 -40 49 -40 103c0 71 40 104 84 124c35 16 63 20 84 28c59 21 64 62 64 88c0 20 -3 49 -26 70c-11 10 -30 21 -61 21c-23 0 -47 -6 -63 -21c-18 -17 -26 -45 -26 -67
c0 -13 2 -29 6 -42h-74c-3 14 -4 28 -4 44c0 32 6 74 38 108c24 26 63 46 122 46c44 0 85 -10 118 -43c21 -21 44 -57 44 -118c0 -36 -8 -68 -34 -98c-21 -24 -47 -39 -77 -50c-23 -8 -48 -14 -72 -25c-15 -7 -49 -23 -49 -70c0 -26 10 -42 20 -52c9 -9 25 -18 49 -18
c21 0 38 7 49 18c15 15 24 43 24 67zM168 38c0 27 23 50 50 50s50 -23 50 -50s-23 -50 -50 -50s-50 23 -50 50z" />
    <glyph glyph-name="at" unicode="@" horiz-adv-x="733" 
d="M480 427l13 64h52c-28 -118 -45 -229 -47 -249v-8c1 -14 4 -46 37 -46c47 0 113 72 113 191c0 151 -121 249 -267 249c-166 0 -297 -132 -297 -298c0 -126 76 -295 306 -295c47 0 121 5 209 46l15 -46c-81 -39 -165 -48 -225 -48c-207 0 -356 141 -356 344
c0 193 152 345 347 345c170 0 316 -117 316 -296c0 -139 -84 -236 -163 -236c-41 0 -70 27 -73 67c-9 -14 -49 -71 -125 -71c-86 0 -140 72 -140 161c0 107 71 203 175 203c61 0 96 -36 110 -77zM346 194c71 0 115 78 115 159c0 70 -43 97 -86 97c-70 0 -122 -72 -122 -147
c0 -72 46 -109 93 -109z" />
    <glyph glyph-name="A" unicode="A" horiz-adv-x="622" 
d="M532 0l-78 188h-284l-80 -188h-82l307 699l299 -699h-82zM199 258h226l-112 267z" />
    <glyph glyph-name="B" unicode="B" horiz-adv-x="530" 
d="M86 667h120c37 0 104 -3 153 -42c21 -16 60 -57 60 -138c0 -33 -7 -91 -66 -131c93 -23 127 -104 127 -168s-32 -116 -68 -144c-53 -42 -114 -44 -160 -44h-166v667zM160 597v-223h56c39 0 131 8 131 111c0 110 -108 112 -129 112h-58zM160 308v-238h85c43 0 85 3 117 28
c26 19 44 52 44 92c0 53 -31 84 -57 98c-25 14 -60 20 -113 20h-76z" />
    <glyph glyph-name="C" unicode="C" horiz-adv-x="646" 
d="M596 612v-92c-21 21 -53 46 -87 62c-35 16 -76 26 -115 26c-154 0 -268 -124 -268 -278c0 -181 147 -272 269 -272c45 0 89 13 124 31c38 19 65 44 77 56v-92c-74 -53 -151 -65 -201 -65c-198 0 -345 150 -345 343c0 199 149 347 349 347c40 0 117 -5 197 -66z" />
    <glyph glyph-name="D" unicode="D" horiz-adv-x="632" 
d="M86 0v667h136c67 0 162 -7 246 -78c61 -51 114 -136 114 -256c0 -140 -69 -215 -117 -256c-61 -52 -125 -77 -244 -77h-135zM160 597v-527h65c53 0 126 6 191 60c50 42 90 108 90 203c0 160 -112 264 -281 264h-65z" />
    <glyph glyph-name="E" unicode="E" horiz-adv-x="482" 
d="M432 667v-70h-272v-198h264v-70h-264v-259h272v-70h-346v667h346z" />
    <glyph glyph-name="F" unicode="F" horiz-adv-x="434" 
d="M390 667v-70h-230v-197h222v-70h-222v-330h-74v667h304z" />
    <glyph glyph-name="G" unicode="G" horiz-adv-x="758" 
d="M430 265v70h278v-16c0 -74 -22 -154 -64 -211c-20 -27 -95 -120 -248 -120c-198 0 -346 151 -346 345s149 345 348 345c64 0 139 -16 204 -66c30 -23 58 -53 77 -79l-55 -50c-19 27 -41 51 -63 69c-32 26 -82 56 -162 56c-161 0 -273 -121 -273 -276
c0 -182 145 -274 271 -274c89 0 166 45 204 112c12 21 25 53 27 95h-198z" />
    <glyph glyph-name="H" unicode="H" horiz-adv-x="662" 
d="M160 667v-271h342v271h74v-667h-74v326h-342v-326h-74v667h74z" />
    <glyph glyph-name="I" unicode="I" horiz-adv-x="246" 
d="M86 667h74v-667h-74v667z" />
    <glyph glyph-name="J" unicode="J" horiz-adv-x="306" 
d="M146 667h74v-480c0 -54 -1 -115 -41 -157c-23 -25 -57 -42 -106 -42c-48 0 -89 15 -119 49l41 58c22 -24 51 -37 76 -37c20 0 38 7 50 19c25 25 25 67 25 108v482z" />
    <glyph glyph-name="K" unicode="K" 
d="M160 667v-286l284 286h100l-312 -311l322 -356h-102l-273 306l-19 -19v-287h-74v667h74z" />
    <glyph glyph-name="L" unicode="L" horiz-adv-x="358" 
d="M86 667h74v-597h184v-70h-258v667z" />
    <glyph glyph-name="M" unicode="M" horiz-adv-x="863" 
d="M139 0h-76l111 704l256 -563l261 564l104 -705h-76l-63 464l-227 -492l-224 492z" />
    <glyph glyph-name="N" unicode="N" horiz-adv-x="766" 
d="M160 0h-74v695l520 -545v517h74v-697l-520 545v-515z" />
    <glyph glyph-name="O" unicode="O" horiz-adv-x="794" 
d="M397 -12c-193 0 -347 147 -347 345c0 199 155 345 347 345s347 -146 347 -345c0 -198 -154 -345 -347 -345zM397 608c-150 0 -271 -122 -271 -275s121 -275 271 -275s271 122 271 275s-121 275 -271 275z" />
    <glyph glyph-name="P" unicode="P" horiz-adv-x="456" 
d="M86 667h121c67 0 123 -8 168 -47c49 -42 61 -101 61 -143c0 -94 -59 -187 -211 -187h-65v-290h-74v667zM160 597v-237h61c88 0 141 44 141 121c0 106 -99 116 -147 116h-55z" />
    <glyph glyph-name="Q" unicode="Q" horiz-adv-x="794" 
d="M652 -7l-54 56c-28 -19 -95 -61 -201 -61c-192 0 -347 147 -347 345c0 199 155 345 347 345c191 0 347 -146 347 -345c0 -122 -55 -198 -94 -239l98 -101h-96zM480 268l117 -120c25 27 71 87 71 185c0 153 -122 275 -271 275c-150 0 -271 -122 -271 -275
s121 -275 271 -275c42 0 96 10 148 44l-161 166h96z" />
    <glyph glyph-name="R" unicode="R" horiz-adv-x="502" 
d="M86 667h107c45 0 112 -3 162 -37c39 -26 73 -77 73 -148c0 -102 -67 -177 -168 -184l212 -298h-90l-203 292h-19v-292h-74v667zM160 597v-239h47c92 0 147 44 147 122c0 37 -11 74 -53 98c-30 17 -64 19 -96 19h-45z" />
    <glyph glyph-name="S" unicode="S" horiz-adv-x="518" 
d="M443 574l-59 -39c-9 18 -24 38 -39 50c-13 10 -37 23 -75 23c-66 0 -112 -41 -112 -103c0 -26 7 -41 25 -58c20 -20 45 -31 70 -42l64 -28c39 -17 75 -35 103 -63c34 -34 48 -73 48 -121c0 -123 -91 -205 -211 -205c-44 0 -99 9 -145 54c-33 32 -53 78 -62 118l72 20
c5 -35 21 -65 40 -85c29 -29 62 -37 96 -37c91 0 134 65 134 132c0 30 -9 56 -33 78c-19 18 -45 30 -80 46l-60 28c-26 12 -59 26 -89 55c-29 28 -46 59 -46 109c0 103 79 172 187 172c41 0 74 -8 107 -30c27 -18 50 -45 65 -74z" />
    <glyph glyph-name="T" unicode="T" horiz-adv-x="426" 
d="M412 597h-162v-597h-74v597h-162v70h398v-70z" />
    <glyph glyph-name="U" unicode="U" horiz-adv-x="646" 
d="M160 667v-409c0 -56 0 -117 53 -162c27 -23 73 -38 110 -38s83 15 110 38c53 45 53 106 53 162v409h74v-429c0 -56 -6 -110 -42 -160c-40 -55 -110 -90 -195 -90s-155 35 -195 90c-36 50 -42 104 -42 160v429h74z" />
    <glyph glyph-name="V" unicode="V" horiz-adv-x="556" 
d="M8 667h82l188 -509l188 509h82l-270 -707z" />
    <glyph glyph-name="W" unicode="W" horiz-adv-x="958" 
d="M8 667h82l176 -500l209 534l198 -534l195 500h82l-280 -702l-196 534l-210 -534z" />
    <glyph glyph-name="X" unicode="X" horiz-adv-x="504" 
d="M14 0l197 345l-179 322h84l138 -251l142 251h84l-183 -322l193 -345h-84l-153 274l-155 -274h-84z" />
    <glyph glyph-name="Y" unicode="Y" horiz-adv-x="530" 
d="M227 0v287l-219 380h86l170 -298l172 298h86l-221 -380v-287h-74z" />
    <glyph glyph-name="Z" unicode="Z" horiz-adv-x="536" 
d="M512 667l-364 -597h354v-70h-478l364 597h-317v70h441z" />
    <glyph glyph-name="bracketleft" unicode="[" horiz-adv-x="290" 
d="M248 663h-96v-767h96v-66h-168v899h168v-66z" />
    <glyph glyph-name="backslash" unicode="\" horiz-adv-x="597" 
d="M597 -170l-58 -28l-519 927l58 30z" />
    <glyph glyph-name="bracketright" unicode="]" horiz-adv-x="290" 
d="M42 -104h96v767h-96v66h168v-899h-168v66z" />
    <glyph glyph-name="asciicircum" unicode="^" horiz-adv-x="500" 
d="M250 612l-146 -247h-78l177 302h94l177 -302h-78z" />
    <glyph glyph-name="underscore" unicode="_" horiz-adv-x="500" 
d="M0 -132v64h500v-64h-500z" />
    <glyph glyph-name="grave" unicode="`" horiz-adv-x="500" 
d="M249 497l-135 135l74 34l105 -145z" />
    <glyph glyph-name="a" unicode="a" horiz-adv-x="526" 
d="M386 356v59h72v-415h-72v58c-24 -31 -69 -70 -142 -70c-105 0 -202 74 -202 220c0 143 96 217 202 217c80 0 123 -44 142 -69zM252 361c-71 0 -136 -52 -136 -153c0 -89 50 -156 136 -156c88 0 138 73 138 155c0 107 -74 154 -138 154z" />
    <glyph glyph-name="b" unicode="b" horiz-adv-x="526" 
d="M140 58v-58h-72v729h72v-372c49 61 112 68 142 68c130 0 202 -108 202 -220c0 -114 -73 -217 -199 -217c-67 0 -114 30 -145 70zM275 52c84 0 135 70 135 153c0 102 -69 156 -136 156s-138 -55 -138 -155c0 -85 54 -154 139 -154z" />
    <glyph glyph-name="c" unicode="c" horiz-adv-x="438" 
d="M393 385v-86c-38 48 -93 62 -130 62c-77 0 -147 -54 -147 -155s72 -154 146 -154c43 0 96 19 134 65v-86c-45 -33 -93 -43 -132 -43c-129 0 -222 92 -222 217c0 127 94 220 222 220c66 0 109 -26 129 -40z" />
    <glyph glyph-name="d" unicode="d" horiz-adv-x="526" 
d="M386 356v373h72v-729h-72v58c-24 -31 -69 -70 -142 -70c-105 0 -202 74 -202 220c0 143 96 217 202 217c80 0 123 -44 142 -69zM252 361c-71 0 -136 -52 -136 -153c0 -89 50 -156 136 -156c88 0 138 73 138 155c0 107 -74 154 -138 154z" />
    <glyph glyph-name="e" unicode="e" horiz-adv-x="481" 
d="M376 139l60 -33c-12 -23 -30 -48 -51 -67c-38 -34 -85 -51 -138 -51c-100 0 -205 63 -205 217c0 124 76 220 201 220c81 0 132 -40 157 -76c26 -37 41 -101 39 -156h-323c1 -86 60 -141 132 -141c34 0 61 10 85 30c19 16 34 37 43 57zM121 253h244
c-12 65 -61 108 -122 108s-111 -46 -122 -108z" />
    <glyph glyph-name="f" unicode="f" horiz-adv-x="240" 
d="M244 349h-102v-349h-72v349h-40v66h40v181c0 38 3 86 40 117c20 17 50 27 83 27c26 0 43 -6 51 -9v-70c-15 6 -32 9 -47 9c-16 0 -35 -4 -46 -22c-9 -15 -9 -38 -9 -60v-173h102v-66z" />
    <glyph glyph-name="g" unicode="g" horiz-adv-x="526" 
d="M386 356v59h72v-405c0 -45 0 -109 -40 -163c-31 -42 -88 -77 -166 -77c-71 0 -120 28 -148 56s-54 73 -54 134h71c0 -35 14 -66 32 -86c30 -33 68 -40 100 -40c51 0 86 18 110 58c21 34 23 71 23 106v60c-24 -31 -69 -70 -142 -70c-61 0 -110 24 -142 56
c-28 28 -60 80 -60 164c0 81 30 131 60 161c35 34 86 56 142 56c61 0 109 -26 142 -69zM252 361c-44 0 -74 -19 -94 -39c-35 -36 -42 -80 -42 -114c0 -36 7 -85 47 -122c23 -21 51 -34 89 -34s68 12 91 35c28 27 47 71 47 120s-18 92 -44 117c-23 23 -57 37 -94 37z" />
    <glyph glyph-name="h" unicode="h" horiz-adv-x="470" 
d="M68 0v729h72v-362c13 17 50 58 119 58c49 0 94 -20 119 -57c21 -31 24 -65 24 -111v-257h-72v255c0 25 -2 54 -19 76c-14 18 -36 30 -68 30c-25 0 -52 -7 -73 -32c-28 -33 -30 -82 -30 -112v-217h-72z" />
    <glyph glyph-name="i" unicode="i" horiz-adv-x="208" 
d="M68 415h72v-415h-72v415zM53 572c0 28 23 51 51 51s51 -23 51 -51s-23 -51 -51 -51s-51 23 -51 51z" />
    <glyph glyph-name="j" unicode="j" horiz-adv-x="208" 
d="M68 415h72v-645h-72v645zM53 572c0 28 23 51 51 51s51 -23 51 -51s-23 -51 -51 -51s-51 23 -51 51z" />
    <glyph glyph-name="k" unicode="k" horiz-adv-x="422" 
d="M68 729h72v-468l152 154h94l-178 -178l210 -237h-94l-166 189l-18 -18v-171h-72v729z" />
    <glyph glyph-name="l" unicode="l" horiz-adv-x="208" 
d="M68 729h72v-729h-72v729z" />
    <glyph glyph-name="m" unicode="m" horiz-adv-x="685" 
d="M68 0v415h72v-44c23 34 59 54 103 54c75 0 105 -53 113 -67c40 63 97 67 125 67c123 0 135 -103 135 -162v-263h-72v252c0 47 -6 109 -74 109c-83 0 -92 -80 -92 -130v-231h-72v246c0 29 1 115 -75 115c-82 0 -91 -85 -91 -135v-226h-72z" />
    <glyph glyph-name="n" unicode="n" horiz-adv-x="470" 
d="M68 0v415h72v-48c13 17 50 58 119 58c49 0 94 -20 119 -57c21 -31 24 -65 24 -111v-257h-72v255c0 25 -2 54 -19 76c-14 18 -36 30 -68 30c-25 0 -52 -7 -73 -32c-28 -33 -30 -82 -30 -112v-217h-72z" />
    <glyph glyph-name="o" unicode="o" horiz-adv-x="524" 
d="M262 -12c-126 0 -220 92 -220 218s93 219 220 219s220 -93 220 -219s-94 -218 -220 -218zM262 361c-76 0 -146 -54 -146 -155c0 -102 72 -154 146 -154c75 0 146 53 146 154c0 102 -70 155 -146 155z" />
    <glyph glyph-name="p" unicode="p" horiz-adv-x="526" 
d="M140 58v-288h-72v645h72v-58c49 61 112 68 142 68c130 0 202 -108 202 -220c0 -114 -73 -217 -199 -217c-67 0 -114 30 -145 70zM275 52c84 0 135 70 135 153c0 102 -69 156 -136 156s-138 -55 -138 -155c0 -85 54 -154 139 -154z" />
    <glyph glyph-name="q" unicode="q" horiz-adv-x="526" 
d="M386 356v59h72v-645h-72v288c-24 -31 -69 -70 -142 -70c-105 0 -202 74 -202 220c0 143 96 217 202 217c80 0 123 -44 142 -69zM252 361c-71 0 -136 -52 -136 -153c0 -89 50 -156 136 -156c88 0 138 73 138 155c0 107 -74 154 -138 154z" />
    <glyph glyph-name="r" unicode="r" horiz-adv-x="296" 
d="M68 0v415h72v-45c7 11 38 55 94 55c22 0 46 -8 64 -17l-34 -65c-16 11 -31 14 -42 14c-29 0 -47 -12 -58 -26c-12 -16 -24 -44 -24 -112v-219h-72z" />
    <glyph glyph-name="s" unicode="s" horiz-adv-x="352" 
d="M298 350l-59 -31c-10 24 -31 42 -58 42c-26 0 -50 -15 -50 -47c0 -30 20 -39 67 -59c60 -25 88 -44 104 -64c18 -22 22 -44 22 -67c0 -87 -63 -136 -143 -136c-17 0 -110 2 -145 106l62 26c8 -22 32 -68 84 -68c47 0 68 35 68 66c0 39 -28 52 -67 69
c-50 22 -82 38 -101 61c-16 20 -19 40 -19 61c0 73 51 116 121 116c22 0 81 -4 114 -75z" />
    <glyph glyph-name="t" unicode="t" horiz-adv-x="214" 
d="M214 349h-72v-349h-72v349h-44v66h44v150h72v-150h72v-66z" />
    <glyph glyph-name="u" unicode="u" horiz-adv-x="466" 
d="M140 415v-242c0 -29 0 -63 20 -89c11 -14 33 -32 73 -32s62 18 73 32c20 26 20 60 20 89v242h72v-250c0 -51 -5 -89 -38 -125c-37 -39 -86 -52 -127 -52s-90 13 -127 52c-33 36 -38 74 -38 125v250h72z" />
    <glyph glyph-name="v" unicode="v" horiz-adv-x="424" 
d="M8 415h80l124 -280l124 280h80l-204 -442z" />
    <glyph glyph-name="w" unicode="w" horiz-adv-x="682" 
d="M8 415h80l123 -282l130 314l129 -314l124 282h80l-206 -444l-128 310l-128 -310z" />
    <glyph glyph-name="x" unicode="x" horiz-adv-x="454" 
d="M8 0l177 222l-151 193h88l107 -141l109 141h88l-152 -194l172 -221h-88l-131 169l-131 -169h-88z" />
    <glyph glyph-name="y" unicode="y" horiz-adv-x="460" 
d="M67 -230l132 269l-191 376h82l147 -297l135 297h80l-305 -645h-80z" />
    <glyph glyph-name="z" unicode="z" horiz-adv-x="460" 
d="M452 415l-300 -349h288v-66h-432l300 349h-242v66h386z" />
    <glyph glyph-name="braceleft" unicode="{" horiz-adv-x="501" 
d="M275 581v-188c0 -25 -3 -53 -13 -71c-10 -17 -29 -33 -48 -42c19 -9 38 -25 48 -42c10 -18 13 -46 13 -71v-189c0 -23 0 -51 19 -69c18 -17 52 -18 62 -18h15v-61h-27c-29 0 -66 2 -93 20c-44 29 -48 78 -48 116v196c0 25 -4 46 -13 61c-13 21 -31 27 -44 28v58
c13 1 31 7 44 28c9 15 13 36 13 61v195c0 38 4 87 48 116c27 18 64 20 93 20h27v-61h-15c-10 0 -44 -1 -62 -18c-19 -18 -19 -46 -19 -69z" />
    <glyph glyph-name="bar" unicode="|" horiz-adv-x="500" 
d="M214 -250v1000h72v-1000h-72z" />
    <glyph glyph-name="braceright" unicode="}" horiz-adv-x="501" 
d="M226 393v188c0 23 0 51 -19 69c-18 17 -52 18 -62 18h-15v61h27c29 0 66 -2 93 -20c44 -29 48 -78 48 -116v-195c0 -25 4 -46 13 -61c13 -21 31 -27 44 -28v-58c-13 -1 -31 -7 -44 -28c-9 -15 -13 -36 -13 -61v-196c0 -38 -4 -87 -48 -116c-27 -18 -64 -20 -93 -20h-27
v61h15c10 0 44 1 62 18c19 18 19 46 19 69v189c0 25 3 53 13 71c10 17 29 33 48 42c-19 9 -38 25 -48 42c-10 18 -13 46 -13 71z" />
    <glyph glyph-name="asciitilde" unicode="~" horiz-adv-x="500" 
d="M446 361l44 -26c-11 -25 -29 -53 -50 -73c-24 -24 -55 -39 -96 -39c-39 0 -73 18 -108 34c-45 21 -69 32 -95 32c-20 0 -37 -7 -52 -20c-14 -12 -27 -34 -35 -52l-44 26c12 26 33 61 48 78c24 27 53 38 87 38c37 0 71 -14 113 -34c30 -14 64 -32 95 -32c23 0 44 7 61 24
c13 12 25 30 32 44z" />
    <glyph glyph-name="uni00A0" unicode="&#xa0;" horiz-adv-x="233" 
 />
    <glyph glyph-name="exclamdown" unicode="&#xa1;" horiz-adv-x="280" 
d="M104 302h72v-532h-72v532zM190 397c0 -27 -23 -50 -50 -50s-50 23 -50 50s23 50 50 50s50 -23 50 -50z" />
    <glyph glyph-name="cent" unicode="&#xa2;" 
d="M344 655v-97c39 -5 75 -19 105 -39v-86c-20 24 -55 55 -105 61v-306c50 6 88 39 108 63v-86c-19 -14 -55 -36 -108 -42v-109h-60v111c-47 7 -94 29 -127 61c-31 30 -59 79 -59 153c0 81 34 130 62 158c22 22 63 51 124 59v99h60zM284 189v302c-33 -4 -55 -20 -69 -34
c-26 -26 -43 -67 -43 -117c0 -45 13 -84 44 -115c24 -24 49 -32 68 -36z" />
    <glyph glyph-name="sterling" unicode="&#xa3;" 
d="M498 458h-73v10c0 30 -4 74 -36 106c-16 16 -43 32 -85 32c-39 0 -66 -14 -83 -31c-21 -20 -37 -52 -37 -88c0 -50 26 -92 53 -146l14 -28h126v-56h-101c8 -21 11 -42 11 -61c0 -30 -10 -64 -29 -94l59 -22c31 -12 52 -21 70 -21s36 6 53 22c13 13 24 30 31 47l61 -36
c-13 -31 -31 -53 -49 -68c-27 -23 -53 -35 -89 -35c-33 0 -58 7 -86 18l-39 15c-42 16 -64 19 -75 19c-13 0 -34 -3 -53 -18c-17 -13 -28 -31 -30 -36l-57 39c13 20 32 43 47 55c29 24 58 30 82 30c16 24 28 57 28 86c0 4 0 30 -13 60h-112v56h86l-20 37
c-25 46 -44 86 -44 139c0 48 17 98 53 134c26 26 70 53 144 53c67 0 109 -26 133 -50c33 -32 60 -89 60 -159v-9z" />
    <glyph glyph-name="currency" unicode="&#xa4;" horiz-adv-x="668" 
d="M94 636l95 -94c49 42 107 51 145 51s96 -9 145 -51l95 94l40 -40l-95 -95c42 -49 51 -105 51 -142s-9 -93 -51 -142l94 -94l-40 -40l-94 93c-49 -42 -107 -51 -145 -51s-96 9 -145 51l-94 -93l-40 40l94 94c-42 49 -51 105 -51 142s9 93 51 142l-95 95zM334 189
c95 0 168 70 168 170s-73 170 -168 170s-168 -70 -168 -170s73 -170 168 -170z" />
    <glyph glyph-name="yen" unicode="&#xa5;" 
d="M518 384h-141l-51 -88h192v-56h-198v-240h-74v240h-195v56h189l-51 88h-138v56h106l-131 227h87l170 -298l172 298h87l-133 -227h109v-56z" />
    <glyph glyph-name="brokenbar" unicode="&#xa6;" horiz-adv-x="500" 
d="M214 390v360h72v-360h-72zM214 -250v360h72v-360h-72z" />
    <glyph glyph-name="section" unicode="&#xa7;" 
d="M464 540h-72v5c0 39 -12 74 -33 94s-46 24 -65 24c-30 0 -55 -9 -75 -28c-19 -17 -29 -39 -29 -66c0 -24 8 -44 26 -62c14 -14 36 -29 87 -48c38 -14 86 -29 120 -62s44 -70 44 -111c0 -32 -4 -65 -28 -99c-26 -37 -67 -59 -73 -62c27 -13 50 -33 64 -55
c15 -23 21 -48 21 -74c0 -51 -20 -91 -46 -117c-42 -42 -92 -49 -129 -49c-63 0 -103 23 -128 50c-45 48 -42 117 -44 135h72c0 -31 11 -71 31 -92c10 -11 32 -27 71 -27c23 0 50 5 71 26c17 16 28 42 28 71c0 25 -10 46 -24 61c-18 19 -44 29 -91 47c-52 20 -90 34 -119 66
c-23 24 -42 62 -42 116c0 32 8 61 27 91c20 30 44 49 74 61c-16 9 -36 22 -55 45c-22 27 -29 51 -29 81c0 53 22 96 51 123s72 45 124 45c45 0 84 -12 118 -44c50 -46 53 -96 53 -140v-5zM284 389c-34 0 -60 -13 -78 -31c-15 -15 -31 -40 -31 -78c0 -42 18 -66 31 -78
c19 -18 49 -31 78 -31c30 0 59 11 78 31c18 18 31 46 31 78c0 28 -11 58 -32 79c-14 14 -39 30 -77 30z" />
    <glyph glyph-name="dieresis" unicode="&#xa8;" horiz-adv-x="500" 
d="M113 550c0 27 23 50 50 50s50 -23 50 -50s-23 -50 -50 -50s-50 23 -50 50zM287 550c0 27 23 50 50 50s50 -23 50 -50s-23 -50 -50 -50s-50 23 -50 50z" />
    <glyph glyph-name="copyright" unicode="&#xa9;" horiz-adv-x="740" 
d="M25 333c0 192 157 345 345 345s345 -153 345 -345c0 -190 -156 -344 -345 -344s-345 154 -345 344zM659 333c0 160 -129 289 -289 289s-289 -129 -289 -289c0 -159 129 -288 289 -288s289 129 289 288zM514 497v-80c-35 43 -87 58 -122 58c-72 0 -138 -52 -138 -146
c0 -96 69 -144 137 -144c51 0 96 25 126 61v-81c-48 -35 -92 -40 -124 -40c-120 0 -208 84 -208 203c0 118 90 207 208 207c36 0 81 -9 121 -38z" />
    <glyph glyph-name="ordfeminine" unicode="&#xaa;" horiz-adv-x="373" 
d="M264 627v34h51v-266h-51v32c-10 -12 -21 -21 -35 -28c-16 -8 -33 -12 -54 -12c-47 0 -78 19 -97 38c-31 31 -38 68 -38 102c0 54 20 86 39 105c22 22 54 35 98 35c18 0 34 -3 51 -11c14 -7 26 -15 36 -29zM179 623c-21 0 -44 -7 -62 -26c-17 -18 -27 -46 -27 -71
c0 -27 11 -53 28 -70c18 -17 41 -25 62 -25c25 0 46 11 61 26c16 16 26 41 26 70c0 27 -10 53 -27 71c-15 15 -37 25 -61 25zM50 333h265v-42h-265v42z" />
    <glyph glyph-name="guillemotleft" unicode="&#xab;" horiz-adv-x="430" 
d="M112 212l120 -146l-46 -36l-150 182l150 188l46 -37zM260 212l120 -146l-46 -36l-150 182l150 188l46 -37z" />
    <glyph glyph-name="logicalnot" unicode="&#xac;" horiz-adv-x="500" 
d="M467 0h-70v203h-364v64h434v-267z" />
    <glyph glyph-name="uni00AD" unicode="&#xad;" horiz-adv-x="320" 
d="M50 176v74h220v-74h-220z" />
    <glyph glyph-name="registered" unicode="&#xae;" horiz-adv-x="740" 
d="M27 332c0 196 147 343 343 343s343 -147 343 -343s-147 -343 -343 -343s-343 147 -343 343zM657 332c0 164 -123 287 -287 287s-287 -123 -287 -287s123 -287 287 -287s287 123 287 287zM509 145h-68l-122 158v-158h-54v374h68c30 0 144 -1 144 -107
c0 -57 -40 -98 -97 -104zM319 471v-120h22c33 0 82 5 82 59c0 59 -50 61 -84 61h-20z" />
    <glyph glyph-name="macron" unicode="&#xaf;" horiz-adv-x="500" 
d="M99 513v60h302v-60h-302z" />
    <glyph glyph-name="degree" unicode="&#xb0;" horiz-adv-x="493" 
d="M108 531c0 79 59 138 138 138s138 -59 138 -138s-59 -138 -138 -138s-138 59 -138 138zM158 531c0 -62 49 -92 88 -92s88 30 88 92s-49 92 -88 92s-88 -30 -88 -92z" />
    <glyph glyph-name="plusminus" unicode="&#xb1;" horiz-adv-x="500" 
d="M33 345v66h181v171h72v-171h181v-66h-181v-171h-72v171h-181zM33 67v66h434v-66h-434z" />
    <glyph glyph-name="twosuperior" unicode="&#xb2;" horiz-adv-x="350" 
d="M297 267h-265l146 169c22 26 32 37 46 58c9 13 22 33 22 61c0 39 -28 72 -76 72c-24 0 -50 -9 -65 -34c-8 -14 -12 -32 -12 -48h-50c2 37 12 65 30 87c31 36 71 41 96 41c75 0 129 -48 129 -119c0 -27 -9 -52 -32 -85c-18 -26 -40 -50 -55 -67l-77 -89h163v-46z" />
    <glyph glyph-name="threesuperior" unicode="&#xb3;" horiz-adv-x="350" 
d="M102 563h-50c1 20 7 45 19 64c27 42 72 46 97 46c91 0 116 -65 116 -107c0 -17 -5 -67 -52 -89c44 -17 58 -59 58 -97c0 -66 -47 -120 -127 -120c-66 0 -101 35 -115 69c-6 15 -9 33 -10 47h50c1 -16 7 -30 14 -40c11 -15 30 -30 59 -30c46 0 77 33 77 76
c0 34 -18 56 -39 65c-13 6 -31 8 -46 7v46c15 -1 34 2 46 8c17 9 33 29 33 57c0 31 -18 62 -64 62c-28 0 -43 -11 -51 -21c-9 -11 -14 -30 -15 -43z" />
    <glyph glyph-name="acute" unicode="&#xb4;" horiz-adv-x="500" 
d="M312 666l74 -34l-134 -135l-45 24z" />
    <glyph glyph-name="mu" unicode="&#xb5;" horiz-adv-x="523" 
d="M140 -230h-72v645h72v-207c0 -25 1 -81 30 -118c25 -32 64 -38 88 -38c48 0 83 29 101 59c24 39 24 82 24 106v198h72v-415h-72v86c-20 -55 -64 -98 -127 -98c-76 0 -109 59 -116 73v-291z" />
    <glyph glyph-name="paragraph" unicode="&#xb6;" horiz-adv-x="580" 
d="M282 -95h-62v409h-15c-52 0 -107 20 -138 51c-22 22 -45 60 -45 120c0 64 25 109 56 135c50 43 124 47 164 47h268v-58h-60v-704h-62v704h-106v-704z" />
    <glyph glyph-name="periodcentered" unicode="&#xb7;" horiz-adv-x="200" 
d="M36 340c0 34 30 64 64 64s64 -30 64 -64s-30 -64 -64 -64s-64 30 -64 64z" />
    <glyph glyph-name="cedilla" unicode="&#xb8;" horiz-adv-x="500" 
d="M266 -52l66 -27l-101 -128l-49 24z" />
    <glyph glyph-name="onesuperior" unicode="&#xb9;" horiz-adv-x="350" 
d="M166 267v354h-78l24 46h106v-400h-52z" />
    <glyph glyph-name="ordmasculine" unicode="&#xba;" horiz-adv-x="374" 
d="M187 667c39 0 80 -15 108 -43c22 -23 38 -57 38 -97c0 -48 -21 -78 -37 -95c-22 -23 -57 -43 -109 -43c-47 0 -81 16 -105 40c-25 24 -41 59 -41 99c0 28 8 63 37 94c21 22 56 45 109 45zM52 333h271v-42h-271v42zM187 623c-37 0 -59 -16 -70 -27
c-18 -18 -26 -42 -26 -69c0 -33 14 -55 27 -68c16 -16 41 -26 69 -26c24 0 53 10 71 28c14 15 25 38 25 67c0 31 -12 55 -28 70c-11 11 -33 25 -68 25z" />
    <glyph glyph-name="guillemotright" unicode="&#xbb;" horiz-adv-x="430" 
d="M170 218l-120 146l46 36l150 -182l-150 -188l-46 37zM318 218l-120 146l46 36l150 -182l-150 -188l-46 37z" />
    <glyph glyph-name="onequarter" unicode="&#xbc;" horiz-adv-x="760" 
d="M166 267v354h-78l24 46h106v-400h-52zM187 10l388 670l38 -22l-388 -671zM679 422v-300h49v-46h-49v-76h-50v76h-205zM516 122h113v155z" />
    <glyph glyph-name="onehalf" unicode="&#xbd;" horiz-adv-x="760" 
d="M166 267v354h-78l24 46h106v-400h-52zM147 10l388 670l38 -22l-388 -671zM707 0h-265l146 169c22 26 32 37 46 58c9 13 22 33 22 61c0 39 -28 72 -76 72c-24 0 -50 -9 -65 -34c-8 -14 -12 -32 -12 -48h-50c2 37 12 65 30 87c31 36 71 41 96 41c75 0 129 -48 129 -119
c0 -27 -9 -52 -32 -85c-18 -26 -40 -50 -55 -67l-77 -89h163v-46z" />
    <glyph glyph-name="threequarters" unicode="&#xbe;" horiz-adv-x="760" 
d="M38 376h50c2 -21 11 -37 20 -47c16 -17 36 -23 58 -23c12 0 34 2 51 20c12 12 21 32 21 56c0 27 -11 46 -25 57c-18 14 -42 15 -56 15h-4v46h4c13 0 38 1 56 18c10 9 19 24 19 47c0 24 -10 39 -19 47c-15 13 -33 15 -45 15c-23 0 -37 -7 -45 -15c-13 -11 -20 -31 -21 -49
h-50c1 32 15 61 32 79c14 15 41 31 86 31c43 0 70 -16 85 -32c13 -14 29 -38 29 -75c0 -20 -4 -38 -12 -52c-11 -21 -27 -31 -40 -37c17 -8 33 -20 43 -36c13 -20 15 -44 15 -61c0 -32 -10 -60 -33 -84c-27 -28 -59 -36 -93 -36c-28 0 -67 6 -95 36c-17 18 -30 46 -31 80z
M207 10l388 670l38 -22l-388 -671zM679 422v-300h49v-46h-49v-76h-50v76h-205zM516 122h113v155z" />
    <glyph glyph-name="questiondown" unicode="&#xbf;" horiz-adv-x="436" 
d="M147 147h-72c0 47 16 87 41 113c16 17 48 40 103 40c51 0 84 -20 104 -40c16 -16 40 -49 40 -103c0 -71 -40 -104 -84 -124c-35 -16 -63 -20 -84 -28c-59 -21 -64 -62 -64 -88c0 -20 3 -49 26 -70c11 -10 30 -21 61 -21c23 0 47 6 63 21c18 17 26 45 26 67
c0 13 -2 29 -6 42h74c3 -14 4 -28 4 -44c0 -32 -6 -74 -38 -108c-24 -26 -63 -46 -122 -46c-44 0 -85 10 -118 43c-21 21 -44 57 -44 118c0 36 8 68 34 98c21 24 47 39 77 50c23 8 48 14 72 25c15 7 49 23 49 70c0 26 -10 42 -20 52c-9 9 -25 18 -49 18
c-21 0 -38 -7 -49 -18c-15 -15 -24 -43 -24 -67zM268 397c0 -27 -23 -50 -50 -50s-50 23 -50 50s23 50 50 50s50 -23 50 -50z" />
    <glyph glyph-name="Agrave" unicode="&#xc0;" horiz-adv-x="622" 
d="M532 0l-78 188h-284l-80 -188h-82l307 699l299 -699h-82zM199 258h226l-112 267zM321 720l-153 117l70 45l126 -130z" />
    <glyph glyph-name="Aacute" unicode="&#xc1;" horiz-adv-x="622" 
d="M532 0l-78 188h-284l-80 -188h-82l307 699l299 -699h-82zM199 258h226l-112 267zM393 882l70 -45l-153 -117l-43 32z" />
    <glyph glyph-name="Acircumflex" unicode="&#xc2;" horiz-adv-x="622" 
d="M532 0l-78 188h-284l-80 -188h-82l307 699l299 -699h-82zM199 258h226l-112 267zM314 797l-88 -76l-52 41l140 119l140 -119l-52 -41z" />
    <glyph glyph-name="Atilde" unicode="&#xc3;" horiz-adv-x="622" 
d="M532 0l-78 188h-284l-80 -188h-82l307 699l299 -699h-82zM199 258h226l-112 267zM423 842l43 -35c-6 -16 -15 -30 -26 -41c-24 -25 -51 -31 -70 -31c-24 0 -41 9 -67 22c-25 12 -41 20 -56 20c-11 0 -21 -4 -30 -13c-7 -8 -14 -19 -17 -31l-44 36c7 19 17 33 30 45
c16 16 35 27 63 27c27 0 50 -12 68 -21c19 -10 39 -21 56 -21c11 0 22 4 32 14c7 7 14 18 18 29z" />
    <glyph glyph-name="Adieresis" unicode="&#xc4;" horiz-adv-x="622" 
d="M532 0l-78 188h-284l-80 -188h-82l307 699l299 -699h-82zM199 258h226l-112 267zM168 784c0 28 23 51 51 51s51 -23 51 -51s-23 -51 -51 -51s-51 23 -51 51zM358 784c0 28 23 51 51 51s51 -23 51 -51s-23 -51 -51 -51s-51 23 -51 51z" />
    <glyph glyph-name="Aring" unicode="&#xc5;" horiz-adv-x="622" 
d="M532 0l-78 188h-284l-80 -188h-82l307 699l299 -699h-82zM199 258h226l-112 267zM227 818c0 48 40 88 88 88s88 -40 88 -88s-40 -88 -88 -88s-88 40 -88 88zM273 819c0 -22 20 -42 42 -42s42 20 42 42s-20 42 -42 42s-42 -20 -42 -42z" />
    <glyph glyph-name="AE" unicode="&#xc6;" horiz-adv-x="900" 
d="M538 0l-79 187h-284l-79 -187h-82l297 667h293l29 -70h-269l83 -198h264l29 -70h-262l108 -259h271l29 -70h-348zM207 257h223l-110 261z" />
    <glyph glyph-name="Ccedilla" unicode="&#xc7;" horiz-adv-x="646" 
d="M596 612v-92c-21 21 -53 46 -87 62c-35 16 -76 26 -115 26c-154 0 -268 -124 -268 -278c0 -181 147 -272 269 -272c45 0 89 13 124 31c38 19 65 44 77 56v-92c-74 -53 -151 -65 -201 -65c-198 0 -345 150 -345 343c0 199 149 347 349 347c40 0 117 -5 197 -66zM364 -52
l70 -30l-104 -128l-50 26z" />
    <glyph glyph-name="Egrave" unicode="&#xc8;" horiz-adv-x="482" 
d="M432 667v-70h-272v-198h264v-70h-264v-259h272v-70h-346v667h346zM271 720l-153 117l70 45l126 -130z" />
    <glyph glyph-name="Eacute" unicode="&#xc9;" horiz-adv-x="482" 
d="M432 667v-70h-272v-198h264v-70h-264v-259h272v-70h-346v667h346zM332 882l70 -45l-153 -117l-43 32z" />
    <glyph glyph-name="Ecircumflex" unicode="&#xca;" horiz-adv-x="482" 
d="M432 667v-70h-272v-198h264v-70h-264v-259h272v-70h-346v667h346zM260 797l-88 -76l-52 41l140 119l140 -119l-52 -41z" />
    <glyph glyph-name="Edieresis" unicode="&#xcb;" horiz-adv-x="482" 
d="M432 667v-70h-272v-198h264v-70h-264v-259h272v-70h-346v667h346zM114 784c0 28 23 51 51 51s51 -23 51 -51s-23 -51 -51 -51s-51 23 -51 51zM304 784c0 28 23 51 51 51s51 -23 51 -51s-23 -51 -51 -51s-51 23 -51 51z" />
    <glyph glyph-name="Igrave" unicode="&#xcc;" horiz-adv-x="246" 
d="M86 667h74v-667h-74v667zM125 720l-153 117l70 45l126 -130z" />
    <glyph glyph-name="Iacute" unicode="&#xcd;" horiz-adv-x="246" 
d="M86 667h74v-667h-74v667zM213 882l70 -45l-153 -117l-43 32z" />
    <glyph glyph-name="Icircumflex" unicode="&#xce;" horiz-adv-x="246" 
d="M85 667h74v-667h-74v667zM123 797l-88 -76l-52 41l140 119l140 -119l-52 -41z" />
    <glyph glyph-name="Idieresis" unicode="&#xcf;" horiz-adv-x="246" 
d="M86 667h74v-667h-74v667zM15 784c0 28 19 51 45 51s45 -24 45 -51s-19 -51 -45 -51s-45 23 -45 51zM141 784c0 27 19 51 45 51s45 -23 45 -51s-19 -51 -45 -51s-45 24 -45 51z" />
    <glyph glyph-name="Eth" unicode="&#xd0;" horiz-adv-x="632" 
d="M86 0v336h-86v64h86v267h136c67 0 162 -7 246 -78c61 -51 114 -136 114 -256c0 -140 -69 -215 -117 -256c-61 -52 -125 -77 -244 -77h-135zM160 597v-197h136v-64h-136v-266h65c53 0 126 6 191 60c50 42 90 108 90 203c0 160 -112 264 -281 264h-65z" />
    <glyph glyph-name="Ntilde" unicode="&#xd1;" horiz-adv-x="766" 
d="M160 0h-74v695l520 -545v517h74v-697l-520 545v-515zM495 842l43 -35c-6 -16 -15 -30 -26 -41c-24 -25 -51 -31 -70 -31c-24 0 -41 9 -67 22c-25 12 -41 20 -56 20c-11 0 -21 -4 -30 -13c-7 -8 -14 -19 -17 -31l-44 36c7 19 17 33 30 45c16 16 35 27 63 27
c27 0 50 -12 68 -21c19 -10 39 -21 56 -21c11 0 22 4 32 14c7 7 14 18 18 29z" />
    <glyph glyph-name="Ograve" unicode="&#xd2;" horiz-adv-x="794" 
d="M397 -12c-193 0 -347 147 -347 345c0 199 155 345 347 345s347 -146 347 -345c0 -198 -154 -345 -347 -345zM397 608c-150 0 -271 -122 -271 -275s121 -275 271 -275s271 122 271 275s-121 275 -271 275zM411 720l-153 117l70 45l126 -130z" />
    <glyph glyph-name="Oacute" unicode="&#xd3;" horiz-adv-x="794" 
d="M397 -12c-193 0 -347 147 -347 345c0 199 155 345 347 345s347 -146 347 -345c0 -198 -154 -345 -347 -345zM397 608c-150 0 -271 -122 -271 -275s121 -275 271 -275s271 122 271 275s-121 275 -271 275zM462 882l70 -45l-153 -117l-43 32z" />
    <glyph glyph-name="Ocircumflex" unicode="&#xd4;" horiz-adv-x="794" 
d="M397 -12c-193 0 -347 147 -347 345c0 199 155 345 347 345s347 -146 347 -345c0 -198 -154 -345 -347 -345zM397 608c-150 0 -271 -122 -271 -275s121 -275 271 -275s271 122 271 275s-121 275 -271 275zM397 797l-88 -76l-52 41l140 119l140 -119l-52 -41z" />
    <glyph glyph-name="Otilde" unicode="&#xd5;" horiz-adv-x="794" 
d="M397 -12c-193 0 -347 147 -347 345c0 199 155 345 347 345s347 -146 347 -345c0 -198 -154 -345 -347 -345zM397 608c-150 0 -271 -122 -271 -275s121 -275 271 -275s271 122 271 275s-121 275 -271 275zM509 842l43 -35c-6 -16 -15 -30 -26 -41c-24 -25 -51 -31 -70 -31
c-24 0 -41 9 -67 22c-25 12 -41 20 -56 20c-11 0 -21 -4 -30 -13c-7 -8 -14 -19 -17 -31l-44 36c7 19 17 33 30 45c16 16 35 27 63 27c27 0 50 -12 68 -21c19 -10 39 -21 56 -21c11 0 22 4 32 14c7 7 14 18 18 29z" />
    <glyph glyph-name="Odieresis" unicode="&#xd6;" horiz-adv-x="794" 
d="M397 -12c-193 0 -347 147 -347 345c0 199 155 345 347 345s347 -146 347 -345c0 -198 -154 -345 -347 -345zM397 608c-150 0 -271 -122 -271 -275s121 -275 271 -275s271 122 271 275s-121 275 -271 275zM251 784c0 28 23 51 51 51s51 -23 51 -51s-23 -51 -51 -51
s-51 23 -51 51zM441 784c0 28 23 51 51 51s51 -23 51 -51s-23 -51 -51 -51s-51 23 -51 51z" />
    <glyph glyph-name="multiply" unicode="&#xd7;" horiz-adv-x="500" 
d="M60 190l143 143l-149 149l47 47l149 -149l149 149l47 -47l-149 -149l143 -143l-47 -47l-143 143l-143 -143z" />
    <glyph glyph-name="Oslash" unicode="&#xd8;" horiz-adv-x="794" 
d="M744 635l-79 -80c26 -31 79 -102 79 -222c0 -198 -155 -345 -347 -345c-110 0 -181 43 -223 78l-80 -79l-50 50l80 79c-58 74 -74 154 -74 217c0 199 156 345 347 345c60 0 141 -14 218 -73l79 80zM182 166l375 389c-22 17 -77 53 -160 53c-150 0 -271 -122 -271 -275
c0 -85 35 -140 56 -167zM608 506l-377 -391c62 -48 128 -57 166 -57c149 0 271 122 271 275c0 50 -13 115 -60 173z" />
    <glyph glyph-name="Ugrave" unicode="&#xd9;" horiz-adv-x="646" 
d="M160 667v-409c0 -56 0 -117 53 -162c27 -23 73 -38 110 -38s83 15 110 38c53 45 53 106 53 162v409h74v-429c0 -56 -6 -110 -42 -160c-40 -55 -110 -90 -195 -90s-155 35 -195 90c-36 50 -42 104 -42 160v429h74zM331 720l-153 117l70 45l126 -130z" />
    <glyph glyph-name="Uacute" unicode="&#xda;" horiz-adv-x="646" 
d="M160 667v-409c0 -56 0 -117 53 -162c27 -23 73 -38 110 -38s83 15 110 38c53 45 53 106 53 162v409h74v-429c0 -56 -6 -110 -42 -160c-40 -55 -110 -90 -195 -90s-155 35 -195 90c-36 50 -42 104 -42 160v429h74zM398 882l70 -45l-153 -117l-43 32z" />
    <glyph glyph-name="Ucircumflex" unicode="&#xdb;" horiz-adv-x="646" 
d="M160 667v-409c0 -56 0 -117 53 -162c27 -23 73 -38 110 -38s83 15 110 38c53 45 53 106 53 162v409h74v-429c0 -56 -6 -110 -42 -160c-40 -55 -110 -90 -195 -90s-155 35 -195 90c-36 50 -42 104 -42 160v429h74zM323 797l-88 -76l-52 41l140 119l140 -119l-52 -41z" />
    <glyph glyph-name="Udieresis" unicode="&#xdc;" horiz-adv-x="646" 
d="M160 667v-409c0 -56 0 -117 53 -162c27 -23 73 -38 110 -38s83 15 110 38c53 45 53 106 53 162v409h74v-429c0 -56 -6 -110 -42 -160c-40 -55 -110 -90 -195 -90s-155 35 -195 90c-36 50 -42 104 -42 160v429h74zM177 784c0 28 23 51 51 51s51 -23 51 -51
s-23 -51 -51 -51s-51 23 -51 51zM367 784c0 28 23 51 51 51s51 -23 51 -51s-23 -51 -51 -51s-51 23 -51 51z" />
    <glyph glyph-name="Yacute" unicode="&#xdd;" horiz-adv-x="530" 
d="M227 0v287l-219 380h86l170 -298l172 298h86l-221 -380v-287h-74zM347 882l70 -45l-153 -117l-43 32z" />
    <glyph glyph-name="Thorn" unicode="&#xde;" horiz-adv-x="456" 
d="M86 667h74v-100h47c67 0 123 -8 168 -47c49 -42 61 -101 61 -143c0 -94 -59 -187 -211 -187h-65v-190h-74v667zM160 497v-237h61c88 0 141 44 141 121c0 106 -99 116 -147 116h-55z" />
    <glyph glyph-name="germandbls" unicode="&#xdf;" horiz-adv-x="532" 
d="M148 0h-72v349h-70v66h70v134c0 37 5 99 49 144c23 24 62 48 126 48c47 0 92 -13 128 -50c37 -38 45 -80 45 -118c0 -30 -4 -61 -22 -90s-41 -43 -55 -50c35 -12 66 -31 88 -55c26 -27 55 -73 55 -144s-28 -127 -66 -166c-33 -34 -96 -77 -187 -80v70c56 4 104 29 133 59
c24 25 44 63 44 113c0 53 -23 93 -48 117c-39 37 -92 48 -129 49v64c29 0 66 11 88 34c22 24 25 55 25 74c0 48 -16 73 -30 86c-12 11 -34 23 -69 23c-42 0 -66 -18 -80 -38c-22 -31 -23 -77 -23 -118v-521z" />
    <glyph glyph-name="agrave" unicode="&#xe0;" horiz-adv-x="526" 
d="M386 356v59h72v-415h-72v58c-24 -31 -69 -70 -142 -70c-105 0 -202 74 -202 220c0 143 96 217 202 217c80 0 123 -44 142 -69zM252 361c-71 0 -136 -52 -136 -153c0 -89 50 -156 136 -156c88 0 138 73 138 155c0 107 -74 154 -138 154zM249 497l-135 135l74 34l105 -145z
" />
    <glyph glyph-name="aacute" unicode="&#xe1;" horiz-adv-x="526" 
d="M386 356v59h72v-415h-72v58c-24 -31 -69 -70 -142 -70c-105 0 -202 74 -202 220c0 143 96 217 202 217c80 0 123 -44 142 -69zM252 361c-71 0 -136 -52 -136 -153c0 -89 50 -156 136 -156c88 0 138 73 138 155c0 107 -74 154 -138 154zM312 666l74 -34l-134 -135l-45 24z
" />
    <glyph glyph-name="acircumflex" unicode="&#xe2;" horiz-adv-x="526" 
d="M386 356v59h72v-415h-72v58c-24 -31 -69 -70 -142 -70c-105 0 -202 74 -202 220c0 143 96 217 202 217c80 0 123 -44 142 -69zM252 361c-71 0 -136 -52 -136 -153c0 -89 50 -156 136 -156c88 0 138 73 138 155c0 107 -74 154 -138 154zM256 578l-92 -81l-46 36l138 121
l138 -121l-46 -36z" />
    <glyph glyph-name="atilde" unicode="&#xe3;" horiz-adv-x="526" 
d="M386 356v59h72v-415h-72v58c-24 -31 -69 -70 -142 -70c-105 0 -202 74 -202 220c0 143 96 217 202 217c80 0 123 -44 142 -69zM252 361c-71 0 -136 -52 -136 -153c0 -89 50 -156 136 -156c88 0 138 73 138 155c0 107 -74 154 -138 154zM164 497l-42 34c9 15 23 34 34 45
c19 18 36 24 57 24c27 0 48 -9 70 -20c23 -12 37 -20 56 -20c12 0 20 2 29 12c7 8 17 23 21 31l41 -34c-5 -13 -13 -26 -26 -39c-23 -24 -47 -30 -66 -30c-24 0 -50 12 -69 21c-24 11 -40 19 -55 19c-12 0 -20 -5 -29 -14s-16 -20 -21 -29z" />
    <glyph glyph-name="adieresis" unicode="&#xe4;" horiz-adv-x="526" 
d="M386 356v59h72v-415h-72v58c-24 -31 -69 -70 -142 -70c-105 0 -202 74 -202 220c0 143 96 217 202 217c80 0 123 -44 142 -69zM252 361c-71 0 -136 -52 -136 -153c0 -89 50 -156 136 -156c88 0 138 73 138 155c0 107 -74 154 -138 154zM130 550c0 27 23 50 50 50
s50 -23 50 -50s-23 -50 -50 -50s-50 23 -50 50zM304 550c0 27 23 50 50 50s50 -23 50 -50s-23 -50 -50 -50s-50 23 -50 50z" />
    <glyph glyph-name="aring" unicode="&#xe5;" horiz-adv-x="526" 
d="M386 356v59h72v-415h-72v58c-24 -31 -69 -70 -142 -70c-105 0 -202 74 -202 220c0 143 96 217 202 217c80 0 123 -44 142 -69zM252 361c-71 0 -136 -52 -136 -153c0 -89 50 -156 136 -156c88 0 138 73 138 155c0 107 -74 154 -138 154zM182 583c0 47 39 86 86 86
s86 -39 86 -86s-39 -86 -86 -86s-86 39 -86 86zM226 583c0 -22 20 -42 42 -42s42 20 42 42s-20 42 -42 42s-42 -20 -42 -42z" />
    <glyph glyph-name="ae" unicode="&#xe6;" horiz-adv-x="774" 
d="M667 140l60 -36c-28 -53 -83 -116 -187 -116c-35 0 -110 5 -163 83c-42 -74 -113 -83 -156 -83c-97 0 -179 44 -179 135c0 89 77 137 173 137c50 0 87 -12 119 -35c1 24 -3 62 -19 88c-21 36 -56 48 -99 48c-48 0 -103 -17 -128 -26v68c55 18 95 22 129 22
c46 0 121 -8 157 -84c34 55 93 84 160 84c121 0 198 -89 198 -225v-7h-324c3 -82 60 -141 131 -141c58 0 104 40 128 88zM413 253h245c-9 68 -61 108 -123 108c-60 0 -111 -39 -122 -108zM221 196c-71 0 -107 -33 -107 -73c0 -30 22 -71 105 -71s111 42 111 74
c0 29 -27 70 -109 70z" />
    <glyph glyph-name="ccedilla" unicode="&#xe7;" horiz-adv-x="438" 
d="M393 385v-86c-38 48 -93 62 -130 62c-77 0 -147 -54 -147 -155s72 -154 146 -154c43 0 96 19 134 65v-86c-45 -33 -93 -43 -132 -43c-129 0 -222 92 -222 217c0 127 94 220 222 220c66 0 109 -26 129 -40zM246 -52l66 -27l-101 -128l-49 24z" />
    <glyph glyph-name="egrave" unicode="&#xe8;" horiz-adv-x="481" 
d="M376 139l60 -33c-12 -23 -30 -48 -51 -67c-38 -34 -85 -51 -138 -51c-100 0 -205 63 -205 217c0 124 76 220 201 220c81 0 132 -40 157 -76c26 -37 41 -101 39 -156h-323c1 -86 60 -141 132 -141c34 0 61 10 85 30c19 16 34 37 43 57zM121 253h244
c-12 65 -61 108 -122 108s-111 -46 -122 -108zM249 497l-135 135l74 34l105 -145z" />
    <glyph glyph-name="eacute" unicode="&#xe9;" horiz-adv-x="481" 
d="M376 139l60 -33c-12 -23 -30 -48 -51 -67c-38 -34 -85 -51 -138 -51c-100 0 -205 63 -205 217c0 124 76 220 201 220c81 0 132 -40 157 -76c26 -37 41 -101 39 -156h-323c1 -86 60 -141 132 -141c34 0 61 10 85 30c19 16 34 37 43 57zM121 253h244
c-12 65 -61 108 -122 108s-111 -46 -122 -108zM292 666l74 -34l-134 -135l-45 24z" />
    <glyph glyph-name="ecircumflex" unicode="&#xea;" horiz-adv-x="481" 
d="M376 139l60 -33c-12 -23 -30 -48 -51 -67c-38 -34 -85 -51 -138 -51c-100 0 -205 63 -205 217c0 124 76 220 201 220c81 0 132 -40 157 -76c26 -37 41 -101 39 -156h-323c1 -86 60 -141 132 -141c34 0 61 10 85 30c19 16 34 37 43 57zM121 253h244
c-12 65 -61 108 -122 108s-111 -46 -122 -108zM242 578l-92 -81l-46 36l138 121l138 -121l-46 -36z" />
    <glyph glyph-name="edieresis" unicode="&#xeb;" horiz-adv-x="481" 
d="M376 139l60 -33c-12 -23 -30 -48 -51 -67c-38 -34 -85 -51 -138 -51c-100 0 -205 63 -205 217c0 124 76 220 201 220c81 0 132 -40 157 -76c26 -37 41 -101 39 -156h-323c1 -86 60 -141 132 -141c34 0 61 10 85 30c19 16 34 37 43 57zM121 253h244
c-12 65 -61 108 -122 108s-111 -46 -122 -108zM105 550c0 27 23 50 50 50s50 -23 50 -50s-23 -50 -50 -50s-50 23 -50 50zM279 550c0 27 23 50 50 50s50 -23 50 -50s-23 -50 -50 -50s-50 23 -50 50z" />
    <glyph glyph-name="igrave" unicode="&#xec;" horiz-adv-x="208" 
d="M68 415h72v-415h-72v415zM109 493l-123 147l77 27l91 -153z" />
    <glyph glyph-name="iacute" unicode="&#xed;" horiz-adv-x="208" 
d="M68 415h72v-415h-72v415zM145 667l77 -27l-123 -147l-47 21z" />
    <glyph glyph-name="icircumflex" unicode="&#xee;" horiz-adv-x="208" 
d="M68 415h72v-415h-72v415zM104 572l-75 -67l-43 35l118 106l118 -106l-43 -35z" />
    <glyph glyph-name="idieresis" unicode="&#xef;" horiz-adv-x="208" 
d="M68 415h72v-415h-72v415zM9 573c0 27 19 50 42 50s42 -23 42 -50s-19 -50 -42 -50s-42 23 -42 50zM115 573c0 27 19 50 42 50s42 -23 42 -50s-19 -50 -42 -50s-42 23 -42 50z" />
    <glyph glyph-name="eth" unicode="&#xf0;" horiz-adv-x="524" 
d="M83 612l17 61c103 -9 175 -48 211 -71l129 42l18 -54l-95 -31c33 -29 55 -59 74 -97c22 -44 45 -105 45 -210c0 -49 -6 -107 -35 -158c-32 -56 -91 -106 -185 -106c-80 0 -130 35 -159 64c-34 35 -61 86 -61 160c0 81 33 135 65 167c26 26 74 58 149 58
c77 0 117 -33 135 -49c-8 30 -20 54 -37 79c-20 29 -41 50 -64 68l-179 -59l-18 54l134 44c-32 15 -79 31 -144 38zM408 218c0 52 -21 95 -48 120c-22 21 -53 35 -95 35c-47 0 -80 -20 -101 -40c-29 -27 -48 -67 -48 -123c0 -37 9 -81 46 -117c29 -28 67 -41 100 -41
c47 0 79 21 97 39c33 32 49 80 49 127z" />
    <glyph glyph-name="ntilde" unicode="&#xf1;" horiz-adv-x="470" 
d="M68 0v415h72v-48c13 17 50 58 119 58c49 0 94 -20 119 -57c21 -31 24 -65 24 -111v-257h-72v255c0 25 -2 54 -19 76c-14 18 -36 30 -68 30c-25 0 -52 -7 -73 -32c-28 -33 -30 -82 -30 -112v-217h-72zM118 497l-42 34c9 15 23 34 34 45c19 18 36 24 57 24
c27 0 48 -9 70 -20c23 -12 37 -20 56 -20c12 0 20 2 29 12c7 8 17 23 21 31l41 -34c-5 -13 -13 -26 -26 -39c-23 -24 -47 -30 -66 -30c-24 0 -50 12 -69 21c-24 11 -40 19 -55 19c-12 0 -20 -5 -29 -14s-16 -20 -21 -29z" />
    <glyph glyph-name="ograve" unicode="&#xf2;" horiz-adv-x="524" 
d="M262 -12c-126 0 -220 92 -220 218s93 219 220 219s220 -93 220 -219s-94 -218 -220 -218zM262 361c-76 0 -146 -54 -146 -155c0 -102 72 -154 146 -154c75 0 146 53 146 154c0 102 -70 155 -146 155zM261 497l-135 135l74 34l105 -145z" />
    <glyph glyph-name="oacute" unicode="&#xf3;" horiz-adv-x="524" 
d="M262 -12c-126 0 -220 92 -220 218s93 219 220 219s220 -93 220 -219s-94 -218 -220 -218zM262 361c-76 0 -146 -54 -146 -155c0 -102 72 -154 146 -154c75 0 146 53 146 154c0 102 -70 155 -146 155zM324 666l74 -34l-134 -135l-45 24z" />
    <glyph glyph-name="ocircumflex" unicode="&#xf4;" horiz-adv-x="524" 
d="M262 -12c-126 0 -220 92 -220 218s93 219 220 219s220 -93 220 -219s-94 -218 -220 -218zM262 361c-76 0 -146 -54 -146 -155c0 -102 72 -154 146 -154c75 0 146 53 146 154c0 102 -70 155 -146 155zM262 578l-92 -81l-46 36l138 121l138 -121l-46 -36z" />
    <glyph glyph-name="otilde" unicode="&#xf5;" horiz-adv-x="524" 
d="M262 -12c-126 0 -220 92 -220 218s93 219 220 219s220 -93 220 -219s-94 -218 -220 -218zM262 361c-76 0 -146 -54 -146 -155c0 -102 72 -154 146 -154c75 0 146 53 146 154c0 102 -70 155 -146 155zM150 497l-42 34c9 15 23 34 34 45c19 18 36 24 57 24
c27 0 48 -9 70 -20c23 -12 37 -20 56 -20c12 0 20 2 29 12c7 8 17 23 21 31l41 -34c-5 -13 -13 -26 -26 -39c-23 -24 -47 -30 -66 -30c-24 0 -50 12 -69 21c-24 11 -40 19 -55 19c-12 0 -20 -5 -29 -14s-16 -20 -21 -29z" />
    <glyph glyph-name="odieresis" unicode="&#xf6;" horiz-adv-x="524" 
d="M262 -12c-126 0 -220 92 -220 218s93 219 220 219s220 -93 220 -219s-94 -218 -220 -218zM262 361c-76 0 -146 -54 -146 -155c0 -102 72 -154 146 -154c75 0 146 53 146 154c0 102 -70 155 -146 155zM125 550c0 27 23 50 50 50s50 -23 50 -50s-23 -50 -50 -50
s-50 23 -50 50zM299 550c0 27 23 50 50 50s50 -23 50 -50s-23 -50 -50 -50s-50 23 -50 50z" />
    <glyph glyph-name="divide" unicode="&#xf7;" horiz-adv-x="500" 
d="M201 515c0 27 22 49 49 49s49 -22 49 -49s-22 -49 -49 -49s-49 22 -49 49zM201 151c0 27 22 49 49 49s49 -22 49 -49s-22 -49 -49 -49s-49 22 -49 49zM33 300v66h434v-66h-434z" />
    <glyph glyph-name="oslash" unicode="&#xf8;" horiz-adv-x="524" 
d="M497 400l-59 -59c20 -25 44 -66 44 -135c0 -127 -94 -218 -220 -218c-70 0 -111 25 -134 42l-61 -60l-46 45l61 60c-15 21 -40 62 -40 131c0 127 94 219 220 219c69 0 110 -25 130 -40l61 60zM135 124l207 214c-23 15 -49 23 -80 23c-76 0 -146 -53 -146 -155
c0 -34 8 -60 19 -82zM386 292l-207 -214c21 -15 47 -26 83 -26c75 0 146 52 146 154c0 34 -8 61 -22 86z" />
    <glyph glyph-name="ugrave" unicode="&#xf9;" horiz-adv-x="466" 
d="M140 415v-242c0 -29 0 -63 20 -89c11 -14 33 -32 73 -32s62 18 73 32c20 26 20 60 20 89v242h72v-250c0 -51 -5 -89 -38 -125c-37 -39 -86 -52 -127 -52s-90 13 -127 52c-33 36 -38 74 -38 125v250h72zM239 497l-135 135l74 34l105 -145z" />
    <glyph glyph-name="uacute" unicode="&#xfa;" horiz-adv-x="466" 
d="M140 415v-242c0 -29 0 -63 20 -89c11 -14 33 -32 73 -32s62 18 73 32c20 26 20 60 20 89v242h72v-250c0 -51 -5 -89 -38 -125c-37 -39 -86 -52 -127 -52s-90 13 -127 52c-33 36 -38 74 -38 125v250h72zM286 666l74 -34l-134 -135l-45 24z" />
    <glyph glyph-name="ucircumflex" unicode="&#xfb;" horiz-adv-x="466" 
d="M140 415v-242c0 -29 0 -63 20 -89c11 -14 33 -32 73 -32s62 18 73 32c20 26 20 60 20 89v242h72v-250c0 -51 -5 -89 -38 -125c-37 -39 -86 -52 -127 -52s-90 13 -127 52c-33 36 -38 74 -38 125v250h72zM233 578l-92 -81l-46 36l138 121l138 -121l-46 -36z" />
    <glyph glyph-name="udieresis" unicode="&#xfc;" horiz-adv-x="466" 
d="M140 415v-242c0 -29 0 -63 20 -89c11 -14 33 -32 73 -32s62 18 73 32c20 26 20 60 20 89v242h72v-250c0 -51 -5 -89 -38 -125c-37 -39 -86 -52 -127 -52s-90 13 -127 52c-33 36 -38 74 -38 125v250h72zM96 550c0 27 23 50 50 50s50 -23 50 -50s-23 -50 -50 -50
s-50 23 -50 50zM270 550c0 27 23 50 50 50s50 -23 50 -50s-23 -50 -50 -50s-50 23 -50 50z" />
    <glyph glyph-name="yacute" unicode="&#xfd;" horiz-adv-x="460" 
d="M67 -230l132 269l-191 376h82l147 -297l135 297h80l-305 -645h-80zM292 666l74 -34l-134 -135l-45 24z" />
    <glyph glyph-name="thorn" unicode="&#xfe;" horiz-adv-x="526" 
d="M140 58v-288h-72v959h72v-372c49 61 112 68 142 68c130 0 202 -108 202 -220c0 -114 -73 -217 -199 -217c-67 0 -114 30 -145 70zM275 52c84 0 135 70 135 153c0 102 -69 156 -136 156s-138 -55 -138 -155c0 -85 54 -154 139 -154z" />
    <glyph glyph-name="ydieresis" unicode="&#xff;" horiz-adv-x="460" 
d="M67 -230l132 269l-191 376h82l147 -297l135 297h80l-305 -645h-80zM103 550c0 27 23 50 50 50s50 -23 50 -50s-23 -50 -50 -50s-50 23 -50 50zM277 550c0 27 23 50 50 50s50 -23 50 -50s-23 -50 -50 -50s-50 23 -50 50z" />
    <glyph glyph-name="Amacron" unicode="&#x100;" horiz-adv-x="622" 
d="M532 0l-78 188h-284l-80 -188h-82l307 699l299 -699h-82zM199 258h226l-112 267zM155 733v64h320v-64h-320z" />
    <glyph glyph-name="amacron" unicode="&#x101;" horiz-adv-x="526" 
d="M386 356v59h72v-415h-72v58c-24 -31 -69 -70 -142 -70c-105 0 -202 74 -202 220c0 143 96 217 202 217c80 0 123 -44 142 -69zM252 361c-71 0 -136 -52 -136 -153c0 -89 50 -156 136 -156c88 0 138 73 138 155c0 107 -74 154 -138 154zM113 513v60h302v-60h-302z" />
    <glyph glyph-name="Abreve" unicode="&#x102;" horiz-adv-x="622" 
d="M532 0l-78 188h-284l-80 -188h-82l307 699l299 -699h-82zM199 258h226l-112 267zM404 841h66c-5 -26 -16 -49 -31 -67c-20 -23 -58 -53 -124 -53s-104 30 -124 53c-15 18 -26 41 -31 67h66c4 -12 11 -25 25 -36c18 -14 42 -20 64 -20s46 6 64 20c14 11 21 24 25 36z" />
    <glyph glyph-name="abreve" unicode="&#x103;" horiz-adv-x="526" 
d="M386 356v59h72v-415h-72v58c-24 -31 -69 -70 -142 -70c-105 0 -202 74 -202 220c0 143 96 217 202 217c80 0 123 -44 142 -69zM252 361c-71 0 -136 -52 -136 -153c0 -89 50 -156 136 -156c88 0 138 73 138 155c0 107 -74 154 -138 154zM123 617h61c5 -18 15 -31 24 -39
c17 -15 38 -21 60 -21s43 6 60 21c9 8 19 21 24 39h61c-7 -38 -25 -61 -29 -67c-18 -23 -52 -53 -116 -53s-98 30 -116 53c-4 6 -22 29 -29 67z" />
    <glyph glyph-name="Aogonek" unicode="&#x104;" horiz-adv-x="622" 
d="M315 699l299 -699h-20c-17 -10 -36 -24 -50 -41c-8 -10 -20 -27 -20 -48c0 -15 7 -24 12 -29c9 -8 24 -12 38 -12c16 0 34 4 50 13l-8 -59c-19 -10 -38 -14 -55 -14c-28 0 -60 12 -78 29c-12 11 -23 30 -23 57c0 19 6 41 23 63c13 16 31 31 49 41l-78 188h-284l-80 -188
h-82zM199 258h226l-112 267z" />
    <glyph glyph-name="aogonek" unicode="&#x105;" horiz-adv-x="526" 
d="M386 356v59h72v-415h-14c-15 -9 -33 -24 -47 -39c-9 -10 -23 -28 -23 -51c0 -13 5 -23 12 -29c12 -11 35 -11 40 -11c9 0 30 2 48 13l-8 -55c-22 -13 -47 -14 -56 -14c-24 0 -55 9 -74 28c-10 10 -22 29 -22 56c0 45 34 80 72 102v58c-16 -19 -37 -37 -56 -48
c-31 -18 -63 -22 -86 -22c-64 0 -112 26 -143 57c-19 20 -59 71 -59 163c0 71 25 127 60 162c33 33 85 55 142 55c61 0 109 -26 142 -69zM252 361c-41 0 -73 -17 -95 -40c-23 -25 -41 -62 -41 -117c0 -66 27 -101 44 -117c22 -20 56 -35 94 -35c37 0 66 12 91 37
c21 22 45 59 45 118c0 52 -18 89 -39 112c-22 24 -57 42 -99 42z" />
    <glyph glyph-name="Cacute" unicode="&#x106;" horiz-adv-x="646" 
d="M596 612v-92c-21 21 -53 46 -87 62c-35 16 -76 26 -115 26c-154 0 -268 -124 -268 -278c0 -181 147 -272 269 -272c45 0 89 13 124 31c38 19 65 44 77 56v-92c-74 -53 -151 -65 -201 -65c-198 0 -345 150 -345 343c0 199 149 347 349 347c40 0 117 -5 197 -66zM452 882
l70 -45l-153 -117l-43 32z" />
    <glyph glyph-name="cacute" unicode="&#x107;" horiz-adv-x="438" 
d="M393 385v-86c-38 48 -93 62 -130 62c-77 0 -147 -54 -147 -155s72 -154 146 -154c43 0 96 19 134 65v-86c-45 -33 -93 -43 -132 -43c-129 0 -222 92 -222 217c0 127 94 220 222 220c66 0 109 -26 129 -40zM292 666l74 -34l-134 -135l-45 24z" />
    <glyph glyph-name="Ccircumflex" unicode="&#x108;" horiz-adv-x="646" 
d="M596 612v-92c-21 21 -53 46 -87 62c-35 16 -76 26 -115 26c-154 0 -268 -124 -268 -278c0 -181 147 -272 269 -272c45 0 89 13 124 31c38 19 65 44 77 56v-92c-74 -53 -151 -65 -201 -65c-198 0 -345 150 -345 343c0 199 149 347 349 347c40 0 117 -5 197 -66zM400 797
l-88 -76l-52 41l140 119l140 -119l-52 -41z" />
    <glyph glyph-name="ccircumflex" unicode="&#x109;" horiz-adv-x="438" 
d="M393 385v-86c-38 48 -93 62 -130 62c-77 0 -147 -54 -147 -155s72 -154 146 -154c43 0 96 19 134 65v-86c-45 -33 -93 -43 -132 -43c-129 0 -222 92 -222 217c0 127 94 220 222 220c66 0 109 -26 129 -40zM260 578l-92 -81l-46 36l138 121l138 -121l-46 -36z" />
    <glyph glyph-name="Cdotaccent" unicode="&#x10a;" horiz-adv-x="646" 
d="M596 612v-92c-21 21 -53 46 -87 62c-35 16 -76 26 -115 26c-154 0 -268 -124 -268 -278c0 -181 147 -272 269 -272c45 0 89 13 124 31c38 19 65 44 77 56v-92c-74 -53 -151 -65 -201 -65c-198 0 -345 150 -345 343c0 199 149 347 349 347c40 0 117 -5 197 -66zM338 784
c0 32 23 55 55 55s55 -23 55 -55s-23 -55 -55 -55s-55 23 -55 55z" />
    <glyph glyph-name="cdotaccent" unicode="&#x10b;" horiz-adv-x="438" 
d="M393 385v-86c-38 48 -93 62 -130 62c-77 0 -147 -54 -147 -155s72 -154 146 -154c43 0 96 19 134 65v-86c-45 -33 -93 -43 -132 -43c-129 0 -222 92 -222 217c0 127 94 220 222 220c66 0 109 -26 129 -40zM211 553c0 30 23 53 53 53s53 -23 53 -53s-23 -53 -53 -53
s-53 23 -53 53z" />
    <glyph glyph-name="Ccaron" unicode="&#x10c;" horiz-adv-x="646" 
d="M596 612v-92c-21 21 -53 46 -87 62c-35 16 -76 26 -115 26c-154 0 -268 -124 -268 -278c0 -181 147 -272 269 -272c45 0 89 13 124 31c38 19 65 44 77 56v-92c-74 -53 -151 -65 -201 -65c-198 0 -345 150 -345 343c0 199 149 347 349 347c40 0 117 -5 197 -66zM400 805
l88 76l52 -41l-140 -119l-140 119l52 41z" />
    <glyph glyph-name="ccaron" unicode="&#x10d;" horiz-adv-x="438" 
d="M393 385v-86c-38 48 -93 62 -130 62c-77 0 -147 -54 -147 -155s72 -154 146 -154c43 0 96 19 134 65v-86c-45 -33 -93 -43 -132 -43c-129 0 -222 92 -222 217c0 127 94 220 222 220c66 0 109 -26 129 -40zM260 573l92 81l46 -36l-138 -121l-138 121l46 36z" />
    <glyph glyph-name="Dcaron" unicode="&#x10e;" horiz-adv-x="632" 
d="M86 0v667h136c67 0 162 -7 246 -78c61 -51 114 -136 114 -256c0 -140 -69 -215 -117 -256c-61 -52 -125 -77 -244 -77h-135zM160 597v-527h65c53 0 126 6 191 60c50 42 90 108 90 203c0 160 -112 264 -281 264h-65zM280 805l88 76l52 -41l-140 -119l-140 119l52 41z" />
    <glyph glyph-name="dcaron" unicode="&#x10f;" horiz-adv-x="596" 
d="M386 356v373h72v-729h-72v58c-24 -31 -69 -70 -142 -70c-105 0 -202 74 -202 220c0 143 96 217 202 217c80 0 123 -44 142 -69zM252 361c-71 0 -136 -52 -136 -153c0 -89 50 -156 136 -156c88 0 138 73 138 155c0 107 -74 154 -138 154zM500 530l52 160l64 -24l-70 -156z
" />
    <glyph glyph-name="Dcroat" unicode="&#x110;" horiz-adv-x="632" 
d="M86 0v336h-86v64h86v267h136c67 0 162 -7 246 -78c61 -51 114 -136 114 -256c0 -140 -69 -215 -117 -256c-61 -52 -125 -77 -244 -77h-135zM160 597v-197h136v-64h-136v-266h65c53 0 126 6 191 60c50 42 90 108 90 203c0 160 -112 264 -281 264h-65z" />
    <glyph glyph-name="dcroat" unicode="&#x111;" horiz-adv-x="526" 
d="M386 356v198h-200v60h200v115h72v-115h68v-60h-68v-554h-72v58c-24 -31 -69 -70 -142 -70c-105 0 -202 74 -202 220c0 143 96 217 202 217c80 0 123 -44 142 -69zM252 361c-71 0 -136 -52 -136 -153c0 -89 50 -156 136 -156c87 0 138 72 138 155c0 108 -71 154 -138 154z
" />
    <glyph glyph-name="Emacron" unicode="&#x112;" horiz-adv-x="482" 
d="M432 667v-70h-272v-198h264v-70h-264v-259h272v-70h-346v667h346zM100 733v64h320v-64h-320z" />
    <glyph glyph-name="emacron" unicode="&#x113;" horiz-adv-x="481" 
d="M376 139l60 -33c-12 -23 -30 -48 -51 -67c-38 -34 -85 -51 -138 -51c-100 0 -205 63 -205 217c0 124 76 220 201 220c81 0 132 -40 157 -76c26 -37 41 -101 39 -156h-323c1 -86 60 -141 132 -141c34 0 61 10 85 30c19 16 34 37 43 57zM121 253h244
c-12 65 -61 108 -122 108s-111 -46 -122 -108zM91 513v60h302v-60h-302z" />
    <glyph glyph-name="Edotaccent" unicode="&#x116;" horiz-adv-x="482" 
d="M432 667v-70h-272v-198h264v-70h-264v-259h272v-70h-346v667h346zM205 784c0 32 23 55 55 55s55 -23 55 -55s-23 -55 -55 -55s-55 23 -55 55z" />
    <glyph glyph-name="edotaccent" unicode="&#x117;" horiz-adv-x="481" 
d="M376 139l60 -33c-12 -23 -30 -48 -51 -67c-38 -34 -85 -51 -138 -51c-100 0 -205 63 -205 217c0 124 76 220 201 220c81 0 132 -40 157 -76c26 -37 41 -101 39 -156h-323c1 -86 60 -141 132 -141c34 0 61 10 85 30c19 16 34 37 43 57zM121 253h244
c-12 65 -61 108 -122 108s-111 -46 -122 -108zM189 553c0 30 23 53 53 53s53 -23 53 -53s-23 -53 -53 -53s-53 23 -53 53z" />
    <glyph glyph-name="Eogonek" unicode="&#x118;" horiz-adv-x="482" 
d="M432 667v-70h-272v-198h264v-70h-264v-259h272v-70h-40c-17 -10 -36 -24 -50 -41c-8 -10 -20 -27 -20 -48c0 -15 7 -24 12 -29c9 -8 24 -12 38 -12c16 0 34 4 50 13l-8 -59c-19 -10 -38 -14 -55 -14c-28 0 -60 12 -78 29c-12 11 -23 30 -23 57c0 22 8 45 23 63
c11 14 33 32 45 41h-240v667h346z" />
    <glyph glyph-name="eogonek" unicode="&#x119;" horiz-adv-x="482" 
d="M377 139l60 -33c-12 -26 -27 -45 -51 -66c-25 -22 -38 -28 -62 -42c-29 -17 -43 -30 -51 -38c-19 -20 -23 -39 -23 -50c0 -16 9 -25 11 -27c10 -10 28 -13 41 -13c12 0 27 2 48 13l-8 -55c-20 -11 -40 -14 -56 -14c-29 0 -56 10 -73 27c-12 11 -23 30 -23 57
c0 21 7 39 18 54c9 13 22 26 35 36c-65 0 -112 28 -140 55s-61 77 -61 162c0 69 24 128 62 166c28 28 73 54 140 54c59 0 108 -22 139 -54c56 -57 57 -148 57 -178h-324c1 -36 15 -78 40 -104c22 -23 56 -37 93 -37c39 0 67 15 85 30s33 37 43 57zM122 253h244
c-6 36 -23 60 -38 74c-26 25 -57 34 -84 34c-35 0 -65 -14 -85 -35c-19 -20 -32 -48 -37 -73z" />
    <glyph glyph-name="Ecaron" unicode="&#x11a;" horiz-adv-x="482" 
d="M432 667v-70h-272v-198h264v-70h-264v-259h272v-70h-346v667h346zM260 805l88 76l52 -41l-140 -119l-140 119l52 41z" />
    <glyph glyph-name="ecaron" unicode="&#x11b;" horiz-adv-x="481" 
d="M376 139l60 -33c-12 -23 -30 -48 -51 -67c-38 -34 -85 -51 -138 -51c-100 0 -205 63 -205 217c0 124 76 220 201 220c81 0 132 -40 157 -76c26 -37 41 -101 39 -156h-323c1 -86 60 -141 132 -141c34 0 61 10 85 30c19 16 34 37 43 57zM121 253h244
c-12 65 -61 108 -122 108s-111 -46 -122 -108zM242 573l92 81l46 -36l-138 -121l-138 121l46 36z" />
    <glyph glyph-name="Gcircumflex" unicode="&#x11c;" horiz-adv-x="758" 
d="M430 265v70h278v-16c0 -74 -22 -154 -64 -211c-20 -27 -95 -120 -248 -120c-198 0 -346 151 -346 345s149 345 348 345c64 0 139 -16 204 -66c30 -23 58 -53 77 -79l-55 -50c-19 27 -41 51 -63 69c-32 26 -82 56 -162 56c-161 0 -273 -121 -273 -276
c0 -182 145 -274 271 -274c89 0 166 45 204 112c12 21 25 53 27 95h-198zM396 797l-88 -76l-52 41l140 119l140 -119l-52 -41z" />
    <glyph glyph-name="gcircumflex" unicode="&#x11d;" horiz-adv-x="526" 
d="M386 356v59h72v-405c0 -45 0 -109 -40 -163c-31 -42 -88 -77 -166 -77c-71 0 -120 28 -148 56s-54 73 -54 134h71c0 -35 14 -66 32 -86c30 -33 68 -40 100 -40c51 0 86 18 110 58c21 34 23 71 23 106v60c-24 -31 -69 -70 -142 -70c-61 0 -110 24 -142 56
c-28 28 -60 80 -60 164c0 81 30 131 60 161c35 34 86 56 142 56c61 0 109 -26 142 -69zM252 361c-44 0 -74 -19 -94 -39c-35 -36 -42 -80 -42 -114c0 -36 7 -85 47 -122c23 -21 51 -34 89 -34s68 12 91 35c28 27 47 71 47 120s-18 92 -44 117c-23 23 -57 37 -94 37zM263 578
l-92 -81l-46 36l138 121l138 -121l-46 -36z" />
    <glyph glyph-name="Gbreve" unicode="&#x11e;" horiz-adv-x="758" 
d="M430 265v70h278v-16c0 -74 -22 -154 -64 -211c-20 -27 -95 -120 -248 -120c-198 0 -346 151 -346 345s149 345 348 345c64 0 139 -16 204 -66c30 -23 58 -53 77 -79l-55 -50c-19 27 -41 51 -63 69c-32 26 -82 56 -162 56c-161 0 -273 -121 -273 -276
c0 -182 145 -274 271 -274c89 0 166 45 204 112c12 21 25 53 27 95h-198zM485 841h66c-5 -26 -16 -49 -31 -67c-20 -23 -58 -53 -124 -53s-104 30 -124 53c-15 18 -26 41 -31 67h66c4 -12 11 -25 25 -36c18 -14 42 -20 64 -20s46 6 64 20c14 11 21 24 25 36z" />
    <glyph glyph-name="gbreve" unicode="&#x11f;" horiz-adv-x="526" 
d="M386 356v59h72v-405c0 -45 0 -109 -40 -163c-31 -42 -88 -77 -166 -77c-71 0 -120 28 -148 56s-54 73 -54 134h71c0 -35 14 -66 32 -86c30 -33 68 -40 100 -40c51 0 86 18 110 58c21 34 23 71 23 106v60c-24 -31 -69 -70 -142 -70c-61 0 -110 24 -142 56
c-28 28 -60 80 -60 164c0 81 30 131 60 161c35 34 86 56 142 56c61 0 109 -26 142 -69zM252 361c-44 0 -74 -19 -94 -39c-35 -36 -42 -80 -42 -114c0 -36 7 -85 47 -122c23 -21 51 -34 89 -34s68 12 91 35c28 27 47 71 47 120s-18 92 -44 117c-23 23 -57 37 -94 37zM118 617
h61c5 -18 15 -31 24 -39c17 -15 38 -21 60 -21s43 6 60 21c9 8 19 21 24 39h61c-7 -38 -25 -61 -29 -67c-18 -23 -52 -53 -116 -53s-98 30 -116 53c-4 6 -22 29 -29 67z" />
    <glyph glyph-name="Gdotaccent" unicode="&#x120;" horiz-adv-x="758" 
d="M430 265v70h278v-16c0 -74 -22 -154 -64 -211c-20 -27 -95 -120 -248 -120c-198 0 -346 151 -346 345s149 345 348 345c64 0 139 -16 204 -66c30 -23 58 -53 77 -79l-55 -50c-19 27 -41 51 -63 69c-32 26 -82 56 -162 56c-161 0 -273 -121 -273 -276
c0 -182 145 -274 271 -274c89 0 166 45 204 112c12 21 25 53 27 95h-198zM344 784c0 32 23 55 55 55s55 -23 55 -55s-23 -55 -55 -55s-55 23 -55 55z" />
    <glyph glyph-name="gdotaccent" unicode="&#x121;" horiz-adv-x="526" 
d="M386 356v59h72v-405c0 -45 0 -109 -40 -163c-31 -42 -88 -77 -166 -77c-71 0 -120 28 -148 56s-54 73 -54 134h71c0 -35 14 -66 32 -86c30 -33 68 -40 100 -40c51 0 86 18 110 58c21 34 23 71 23 106v60c-24 -31 -69 -70 -142 -70c-61 0 -110 24 -142 56
c-28 28 -60 80 -60 164c0 81 30 131 60 161c35 34 86 56 142 56c61 0 109 -26 142 -69zM252 361c-44 0 -74 -19 -94 -39c-35 -36 -42 -80 -42 -114c0 -36 7 -85 47 -122c23 -21 51 -34 89 -34s68 12 91 35c28 27 47 71 47 120s-18 92 -44 117c-23 23 -57 37 -94 37zM193 553
c0 30 23 53 53 53s53 -23 53 -53s-23 -53 -53 -53s-53 23 -53 53z" />
    <glyph glyph-name="Gcommaaccent" unicode="&#x122;" horiz-adv-x="758" 
d="M430 265v70h278v-16c0 -74 -22 -154 -64 -211c-20 -27 -95 -120 -248 -120c-198 0 -346 151 -346 345s149 345 348 345c64 0 139 -16 204 -66c30 -23 58 -53 77 -79l-55 -50c-19 27 -41 51 -63 69c-32 26 -82 56 -162 56c-161 0 -273 -121 -273 -276
c0 -182 145 -274 271 -274c89 0 166 45 204 112c12 21 25 53 27 95h-198zM318 -210l56 160l64 -24l-70 -156z" />
    <glyph glyph-name="gcommaaccent" unicode="&#x123;" horiz-adv-x="526" 
d="M386 356v59h72v-405c0 -45 0 -109 -40 -163c-31 -42 -88 -77 -166 -77c-71 0 -120 28 -148 56s-54 73 -54 134h71c0 -35 14 -66 32 -86c30 -33 68 -40 100 -40c51 0 86 18 110 58c21 34 23 71 23 106v60c-24 -31 -69 -70 -142 -70c-61 0 -110 24 -142 56
c-28 28 -60 80 -60 164c0 81 30 131 60 161c35 34 86 56 142 56c61 0 109 -26 142 -69zM252 361c-44 0 -74 -19 -94 -39c-35 -36 -42 -80 -42 -114c0 -36 7 -85 47 -122c23 -21 51 -34 89 -34s68 12 91 35c28 27 47 71 47 120s-18 92 -44 117c-23 23 -57 37 -94 37zM315 650
l-56 -160l-64 24l70 156z" />
    <glyph glyph-name="Hcircumflex" unicode="&#x124;" horiz-adv-x="662" 
d="M160 667v-271h342v271h74v-667h-74v326h-342v-326h-74v667h74zM331 797l-88 -76l-52 41l140 119l140 -119l-52 -41z" />
    <glyph glyph-name="hcircumflex" unicode="&#x125;" horiz-adv-x="470" 
d="M68 0v729h72v-362c13 17 50 58 119 58c49 0 94 -20 119 -57c21 -31 24 -65 24 -111v-257h-72v255c0 25 -2 54 -19 76c-14 18 -36 30 -68 30c-25 0 -52 -7 -73 -32c-28 -33 -30 -82 -30 -112v-217h-72zM106 818l-92 -81l-46 36l138 121l138 -121l-46 -36z" />
    <glyph glyph-name="Hbar" unicode="&#x126;" horiz-adv-x="662" 
d="M160 667v-53h342v53h74v-53h60v-62h-60v-552h-74v326h-342v-326h-74v552h-60v62h60v53h74zM502 552h-342v-156h342v156z" />
    <glyph glyph-name="hbar" unicode="&#x127;" horiz-adv-x="470" 
d="M68 0v554h-68v60h68v115h72v-115h200v-60h-200v-187c13 17 50 58 119 58c49 0 94 -20 119 -57c21 -31 24 -65 24 -111v-257h-72v255c0 25 -2 54 -19 76c-14 18 -36 30 -68 30c-25 0 -52 -7 -73 -32c-28 -33 -30 -82 -30 -112v-217h-72z" />
    <glyph glyph-name="Imacron" unicode="&#x12a;" horiz-adv-x="246" 
d="M86 667h74v-667h-74v667zM0 733v64h246v-64h-246z" />
    <glyph glyph-name="imacron" unicode="&#x12b;" horiz-adv-x="208" 
d="M68 415h72v-415h-72v415zM0 513v60h208v-60h-208z" />
    <glyph glyph-name="Iogonek" unicode="&#x12e;" horiz-adv-x="246" 
d="M86 667h74v-667c-15 -10 -35 -25 -47 -39c-5 -6 -23 -28 -23 -51c0 -20 12 -40 52 -40c20 0 38 7 48 13l-8 -59c-22 -11 -45 -14 -59 -14c-48 0 -97 31 -97 87c0 23 9 45 24 64c18 22 39 34 48 39h-12v667z" />
    <glyph glyph-name="iogonek" unicode="&#x12f;" horiz-adv-x="208" 
d="M68 415h72v-415c-15 -10 -35 -25 -47 -39c-5 -6 -23 -28 -23 -51c0 -20 12 -40 52 -40c20 0 38 7 48 13l-8 -55c-21 -11 -42 -14 -56 -14c-49 0 -96 32 -96 83c0 23 9 45 24 64c6 8 21 26 48 39h-14v415zM53 572c0 28 23 51 51 51s51 -23 51 -51s-23 -51 -51 -51
s-51 23 -51 51z" />
    <glyph glyph-name="Idotaccent" unicode="&#x130;" horiz-adv-x="246" 
d="M86 667h74v-667h-74v667zM68 784c0 32 23 55 55 55s55 -23 55 -55s-23 -55 -55 -55s-55 23 -55 55z" />
    <glyph glyph-name="dotlessi" unicode="&#x131;" horiz-adv-x="208" 
d="M68 415h72v-415h-72v415z" />
    <glyph glyph-name="Jcircumflex" unicode="&#x134;" horiz-adv-x="306" 
d="M146 667h74v-480c0 -54 -1 -115 -41 -157c-23 -25 -57 -42 -106 -42c-48 0 -89 15 -119 49l41 58c22 -24 51 -37 76 -37c20 0 38 7 50 19c25 25 25 67 25 108v482zM180 797l-88 -76l-52 41l140 119l140 -119l-52 -41z" />
    <glyph glyph-name="jcircumflex" unicode="&#x135;" horiz-adv-x="208" 
d="M68 415h72v-645h-72v645zM104 572l-75 -67l-43 35l118 106l118 -106l-43 -35z" />
    <glyph glyph-name="Kcommaaccent" unicode="&#x136;" 
d="M160 667v-286l284 286h100l-312 -311l322 -356h-102l-273 306l-19 -19v-287h-74v667h74zM202 -210l56 160l64 -24l-70 -156z" />
    <glyph glyph-name="kcommaaccent" unicode="&#x137;" horiz-adv-x="422" 
d="M68 729h72v-468l152 154h94l-178 -178l210 -237h-94l-166 189l-18 -18v-171h-72v729zM131 -210l56 160l64 -24l-70 -156z" />
    <glyph glyph-name="Lacute" unicode="&#x139;" horiz-adv-x="358" 
d="M86 667h74v-597h184v-70h-258v667zM242 882l70 -45l-153 -117l-43 32z" />
    <glyph glyph-name="lacute" unicode="&#x13a;" horiz-adv-x="208" 
d="M68 729h72v-729h-72v729zM172 926l74 -34l-134 -135l-45 24z" />
    <glyph glyph-name="Lcommaaccent" unicode="&#x13b;" horiz-adv-x="358" 
d="M86 667h74v-597h184v-70h-258v667zM138 -210l56 160l64 -24l-70 -156z" />
    <glyph glyph-name="lcommaaccent" unicode="&#x13c;" horiz-adv-x="208" 
d="M68 729h72v-729h-72v729zM24 -210l56 160l64 -24l-70 -156z" />
    <glyph glyph-name="Lcaron" unicode="&#x13d;" horiz-adv-x="358" 
d="M86 667h74v-597h184v-70h-258v667zM250 520l52 160l64 -24l-70 -156z" />
    <glyph glyph-name="lcaron" unicode="&#x13e;" horiz-adv-x="278" 
d="M68 729h72v-729h-72v729zM182 530l52 160l64 -24l-70 -156z" />
    <glyph glyph-name="Ldot" unicode="&#x13f;" horiz-adv-x="357" 
d="M86 667h74v-597h184v-70h-258v667zM242 334c0 32 23 55 55 55s55 -23 55 -55s-23 -55 -55 -55s-55 23 -55 55z" />
    <glyph glyph-name="ldot" unicode="&#x140;" horiz-adv-x="314" 
d="M68 729h72v-729h-72v729zM208 365c0 30 23 53 53 53s53 -23 53 -53s-23 -53 -53 -53s-53 23 -53 53z" />
    <glyph glyph-name="Lslash" unicode="&#x141;" horiz-adv-x="358" 
d="M86 667h74v-261l100 64v-64l-100 -64v-272h184v-70h-258v305l-86 -55v64l86 55v298z" />
    <glyph glyph-name="lslash" unicode="&#x142;" horiz-adv-x="208" 
d="M68 729h72v-230l68 53v-60l-68 -53v-439h-72v393l-68 -53v60l68 53v276z" />
    <glyph glyph-name="Nacute" unicode="&#x143;" horiz-adv-x="766" 
d="M160 0h-74v695l520 -545v517h74v-697l-520 545v-515zM465 882l70 -45l-153 -117l-43 32z" />
    <glyph glyph-name="nacute" unicode="&#x144;" horiz-adv-x="470" 
d="M68 0v415h72v-48c13 17 50 58 119 58c49 0 94 -20 119 -57c21 -31 24 -65 24 -111v-257h-72v255c0 25 -2 54 -19 76c-14 18 -36 30 -68 30c-25 0 -52 -7 -73 -32c-28 -33 -30 -82 -30 -112v-217h-72zM312 666l74 -34l-134 -135l-45 24z" />
    <glyph glyph-name="Ncommaaccent" unicode="&#x145;" horiz-adv-x="766" 
d="M160 0h-74v695l520 -545v517h74v-697l-520 545v-515zM308 -210l56 160l64 -24l-70 -156z" />
    <glyph glyph-name="ncommaaccent" unicode="&#x146;" horiz-adv-x="470" 
d="M68 0v415h72v-48c13 17 50 58 119 58c49 0 94 -20 119 -57c21 -31 24 -65 24 -111v-257h-72v255c0 25 -2 54 -19 76c-14 18 -36 30 -68 30c-25 0 -52 -7 -73 -32c-28 -33 -30 -82 -30 -112v-217h-72zM155 -210l56 160l64 -24l-70 -156z" />
    <glyph glyph-name="Ncaron" unicode="&#x147;" horiz-adv-x="766" 
d="M160 0h-74v695l520 -545v517h74v-697l-520 545v-515zM383 805l88 76l52 -41l-140 -119l-140 119l52 41z" />
    <glyph glyph-name="ncaron" unicode="&#x148;" horiz-adv-x="470" 
d="M68 0v415h72v-48c13 17 50 58 119 58c49 0 94 -20 119 -57c21 -31 24 -65 24 -111v-257h-72v255c0 25 -2 54 -19 76c-14 18 -36 30 -68 30c-25 0 -52 -7 -73 -32c-28 -33 -30 -82 -30 -112v-217h-72zM250 573l92 81l46 -36l-138 -121l-138 121l46 36z" />
    <glyph glyph-name="Omacron" unicode="&#x14c;" horiz-adv-x="794" 
d="M397 -12c-193 0 -347 147 -347 345c0 199 155 345 347 345s347 -146 347 -345c0 -198 -154 -345 -347 -345zM397 608c-150 0 -271 -122 -271 -275s121 -275 271 -275s271 122 271 275s-121 275 -271 275zM237 733v64h320v-64h-320z" />
    <glyph glyph-name="omacron" unicode="&#x14d;" horiz-adv-x="524" 
d="M262 -12c-126 0 -220 92 -220 218s93 219 220 219s220 -93 220 -219s-94 -218 -220 -218zM262 361c-76 0 -146 -54 -146 -155c0 -102 72 -154 146 -154c75 0 146 53 146 154c0 102 -70 155 -146 155zM111 513v60h302v-60h-302z" />
    <glyph glyph-name="Obreve" unicode="&#x14e;" horiz-adv-x="794" 
d="M397 -12c-193 0 -347 147 -347 345c0 199 155 345 347 345s347 -146 347 -345c0 -198 -154 -345 -347 -345zM397 608c-150 0 -271 -122 -271 -275s121 -275 271 -275s271 122 271 275s-121 275 -271 275zM486 841h66c-5 -26 -16 -49 -31 -67c-20 -23 -58 -53 -124 -53
s-104 30 -124 53c-15 18 -26 41 -31 67h66c4 -12 11 -25 25 -36c18 -14 42 -20 64 -20s46 6 64 20c14 11 21 24 25 36z" />
    <glyph glyph-name="obreve" unicode="&#x14f;" horiz-adv-x="524" 
d="M262 -12c-126 0 -220 92 -220 218s93 219 220 219s220 -93 220 -219s-94 -218 -220 -218zM262 361c-76 0 -146 -54 -146 -155c0 -102 72 -154 146 -154c75 0 146 53 146 154c0 102 -70 155 -146 155zM117 617h61c5 -18 15 -31 24 -39c17 -15 38 -21 60 -21s43 6 60 21
c9 8 19 21 24 39h61c-7 -38 -25 -61 -29 -67c-18 -23 -52 -53 -116 -53s-98 30 -116 53c-4 6 -22 29 -29 67z" />
    <glyph glyph-name="Ohungarumlaut" unicode="&#x150;" horiz-adv-x="794" 
d="M397 -12c-193 0 -347 147 -347 345c0 199 155 345 347 345s347 -146 347 -345c0 -198 -154 -345 -347 -345zM397 608c-150 0 -271 -122 -271 -275s121 -275 271 -275s271 122 271 275s-121 275 -271 275zM401 882l70 -40l-147 -122l-43 26zM551 882l70 -40l-147 -122
l-43 26z" />
    <glyph glyph-name="ohungarumlaut" unicode="&#x151;" horiz-adv-x="524" 
d="M262 -12c-126 0 -220 92 -220 218s93 219 220 219s220 -93 220 -219s-94 -218 -220 -218zM262 361c-76 0 -146 -54 -146 -155c0 -102 72 -154 146 -154c75 0 146 53 146 154c0 102 -70 155 -146 155zM262 666l72 -32l-137 -136l-41 23zM396 666l70 -32l-135 -136l-41 23z
" />
    <glyph glyph-name="OE" unicode="&#x152;" horiz-adv-x="1056" 
d="M1006 667v-70h-267v-198h260v-70h-260v-259h267v-70h-341v128c-66 -100 -171 -140 -264 -140c-197 0 -351 157 -351 344c0 189 156 346 348 346c104 0 203 -48 267 -142v131h341zM396 608c-150 0 -270 -126 -270 -276c0 -149 119 -274 269 -274s270 124 270 273
c0 152 -121 277 -269 277z" />
    <glyph glyph-name="oe" unicode="&#x153;" horiz-adv-x="852" 
d="M810 209v-15h-327c3 -77 57 -142 136 -142c60 0 104 40 125 89l61 -35c-34 -63 -98 -118 -189 -118c-22 0 -123 4 -174 99c-40 -61 -104 -99 -182 -99c-124 0 -218 95 -218 218c0 125 95 219 221 219c88 0 146 -45 179 -99c49 92 132 99 167 99c124 0 201 -85 201 -216z
M489 254h247c-10 65 -61 107 -124 107c-60 0 -110 -40 -123 -107zM261 361c-93 0 -145 -76 -145 -155c0 -81 55 -154 144 -154c72 0 146 50 146 152c0 87 -52 157 -145 157z" />
    <glyph glyph-name="Racute" unicode="&#x154;" horiz-adv-x="502" 
d="M86 667h107c45 0 112 -3 162 -37c39 -26 73 -77 73 -148c0 -102 -67 -177 -168 -184l212 -298h-90l-203 292h-19v-292h-74v667zM160 597v-239h47c92 0 147 44 147 122c0 37 -11 74 -53 98c-30 17 -64 19 -96 19h-45zM312 882l70 -45l-153 -117l-43 32z" />
    <glyph glyph-name="racute" unicode="&#x155;" horiz-adv-x="296" 
d="M68 0v415h72v-45c7 11 38 55 94 55c22 0 46 -8 64 -17l-34 -65c-16 11 -31 14 -42 14c-29 0 -47 -12 -58 -26c-12 -16 -24 -44 -24 -112v-219h-72zM252 666l74 -34l-134 -135l-45 24z" />
    <glyph glyph-name="Rcommaaccent" unicode="&#x156;" horiz-adv-x="502" 
d="M86 667h107c45 0 112 -3 162 -37c39 -26 73 -77 73 -148c0 -102 -67 -177 -168 -184l212 -298h-90l-203 292h-19v-292h-74v667zM160 597v-239h47c92 0 147 44 147 122c0 37 -11 74 -53 98c-30 17 -64 19 -96 19h-45zM178 -210l56 160l64 -24l-70 -156z" />
    <glyph glyph-name="rcommaaccent" unicode="&#x157;" horiz-adv-x="296" 
d="M68 0v415h72v-45c7 11 38 55 94 55c22 0 46 -8 64 -17l-34 -65c-16 11 -31 14 -42 14c-29 0 -47 -12 -58 -26c-12 -16 -24 -44 -24 -112v-219h-72zM65 -210l56 160l64 -24l-70 -156z" />
    <glyph glyph-name="Rcaron" unicode="&#x158;" horiz-adv-x="502" 
d="M86 667h107c45 0 112 -3 162 -37c39 -26 73 -77 73 -148c0 -102 -67 -177 -168 -184l212 -298h-90l-203 292h-19v-292h-74v667zM160 597v-239h47c92 0 147 44 147 122c0 37 -11 74 -53 98c-30 17 -64 19 -96 19h-45zM230 805l88 76l52 -41l-140 -119l-140 119l52 41z" />
    <glyph glyph-name="rcaron" unicode="&#x159;" horiz-adv-x="296" 
d="M68 0v415h72v-45c7 11 38 55 94 55c22 0 46 -8 64 -17l-34 -65c-16 11 -31 14 -42 14c-29 0 -47 -12 -58 -26c-12 -16 -24 -44 -24 -112v-219h-72zM200 573l92 81l46 -36l-138 -121l-138 121l46 36z" />
    <glyph glyph-name="Sacute" unicode="&#x15a;" horiz-adv-x="518" 
d="M443 574l-59 -39c-9 18 -24 38 -39 50c-13 10 -37 23 -75 23c-66 0 -112 -41 -112 -103c0 -26 7 -41 25 -58c20 -20 45 -31 70 -42l64 -28c39 -17 75 -35 103 -63c34 -34 48 -73 48 -121c0 -123 -91 -205 -211 -205c-44 0 -99 9 -145 54c-33 32 -53 78 -62 118l72 20
c5 -35 21 -65 40 -85c29 -29 62 -37 96 -37c91 0 134 65 134 132c0 30 -9 56 -33 78c-19 18 -45 30 -80 46l-60 28c-26 12 -59 26 -89 55c-29 28 -46 59 -46 109c0 103 79 172 187 172c41 0 74 -8 107 -30c27 -18 50 -45 65 -74zM341 882l70 -45l-153 -117l-43 32z" />
    <glyph glyph-name="sacute" unicode="&#x15b;" horiz-adv-x="352" 
d="M298 350l-59 -31c-10 24 -31 42 -58 42c-26 0 -50 -15 -50 -47c0 -30 20 -39 67 -59c60 -25 88 -44 104 -64c18 -22 22 -44 22 -67c0 -87 -63 -136 -143 -136c-17 0 -110 2 -145 106l62 26c8 -22 32 -68 84 -68c47 0 68 35 68 66c0 39 -28 52 -67 69
c-50 22 -82 38 -101 61c-16 20 -19 40 -19 61c0 73 51 116 121 116c22 0 81 -4 114 -75zM238 666l74 -34l-134 -135l-45 24z" />
    <glyph glyph-name="Scircumflex" unicode="&#x15c;" horiz-adv-x="518" 
d="M443 574l-59 -39c-9 18 -24 38 -39 50c-13 10 -37 23 -75 23c-66 0 -112 -41 -112 -103c0 -26 7 -41 25 -58c20 -20 45 -31 70 -42l64 -28c39 -17 75 -35 103 -63c34 -34 48 -73 48 -121c0 -123 -91 -205 -211 -205c-44 0 -99 9 -145 54c-33 32 -53 78 -62 118l72 20
c5 -35 21 -65 40 -85c29 -29 62 -37 96 -37c91 0 134 65 134 132c0 30 -9 56 -33 78c-19 18 -45 30 -80 46l-60 28c-26 12 -59 26 -89 55c-29 28 -46 59 -46 109c0 103 79 172 187 172c41 0 74 -8 107 -30c27 -18 50 -45 65 -74zM274 797l-88 -76l-52 41l140 119l140 -119
l-52 -41z" />
    <glyph glyph-name="scircumflex" unicode="&#x15d;" horiz-adv-x="352" 
d="M298 350l-59 -31c-10 24 -31 42 -58 42c-26 0 -50 -15 -50 -47c0 -30 20 -39 67 -59c60 -25 88 -44 104 -64c18 -22 22 -44 22 -67c0 -87 -63 -136 -143 -136c-17 0 -110 2 -145 106l62 26c8 -22 32 -68 84 -68c47 0 68 35 68 66c0 39 -28 52 -67 69
c-50 22 -82 38 -101 61c-16 20 -19 40 -19 61c0 73 51 116 121 116c22 0 81 -4 114 -75zM184 578l-92 -81l-46 36l138 121l138 -121l-46 -36z" />
    <glyph glyph-name="Scedilla" unicode="&#x15e;" horiz-adv-x="518" 
d="M443 574l-59 -39c-9 18 -24 38 -39 50c-13 10 -37 23 -75 23c-66 0 -112 -41 -112 -103c0 -26 7 -41 25 -58c20 -20 45 -31 70 -42l64 -28c39 -17 75 -35 103 -63c34 -34 48 -73 48 -121c0 -123 -91 -205 -211 -205c-44 0 -99 9 -145 54c-33 32 -53 78 -62 118l72 20
c5 -35 21 -65 40 -85c29 -29 62 -37 96 -37c91 0 134 65 134 132c0 30 -9 56 -33 78c-19 18 -45 30 -80 46l-60 28c-26 12 -59 26 -89 55c-29 28 -46 59 -46 109c0 103 79 172 187 172c41 0 74 -8 107 -30c27 -18 50 -45 65 -74zM254 -52l70 -30l-104 -128l-50 26z" />
    <glyph glyph-name="scedilla" unicode="&#x15f;" horiz-adv-x="352" 
d="M298 350l-59 -31c-10 24 -31 42 -58 42c-26 0 -50 -15 -50 -47c0 -30 20 -39 67 -59c60 -25 88 -44 104 -64c18 -22 22 -44 22 -67c0 -87 -63 -136 -143 -136c-17 0 -110 2 -145 106l62 26c8 -22 32 -68 84 -68c47 0 68 35 68 66c0 39 -28 52 -67 69
c-50 22 -82 38 -101 61c-16 20 -19 40 -19 61c0 73 51 116 121 116c22 0 81 -4 114 -75zM176 -52l66 -27l-101 -128l-49 24z" />
    <glyph glyph-name="Scaron" unicode="&#x160;" horiz-adv-x="518" 
d="M443 574l-59 -39c-9 18 -24 38 -39 50c-13 10 -37 23 -75 23c-66 0 -112 -41 -112 -103c0 -26 7 -41 25 -58c20 -20 45 -31 70 -42l64 -28c39 -17 75 -35 103 -63c34 -34 48 -73 48 -121c0 -123 -91 -205 -211 -205c-44 0 -99 9 -145 54c-33 32 -53 78 -62 118l72 20
c5 -35 21 -65 40 -85c29 -29 62 -37 96 -37c91 0 134 65 134 132c0 30 -9 56 -33 78c-19 18 -45 30 -80 46l-60 28c-26 12 -59 26 -89 55c-29 28 -46 59 -46 109c0 103 79 172 187 172c41 0 74 -8 107 -30c27 -18 50 -45 65 -74zM274 805l88 76l52 -41l-140 -119l-140 119
l52 41z" />
    <glyph glyph-name="scaron" unicode="&#x161;" horiz-adv-x="352" 
d="M298 350l-59 -31c-10 24 -31 42 -58 42c-26 0 -50 -15 -50 -47c0 -30 20 -39 67 -59c60 -25 88 -44 104 -64c18 -22 22 -44 22 -67c0 -87 -63 -136 -143 -136c-17 0 -110 2 -145 106l62 26c8 -22 32 -68 84 -68c47 0 68 35 68 66c0 39 -28 52 -67 69
c-50 22 -82 38 -101 61c-16 20 -19 40 -19 61c0 73 51 116 121 116c22 0 81 -4 114 -75zM184 573l92 81l46 -36l-138 -121l-138 121l46 36z" />
    <glyph glyph-name="Tcommaaccent" unicode="&#x162;" horiz-adv-x="426" 
d="M412 597h-162v-597h-74v597h-162v70h398v-70zM128 -210l56 160l64 -24l-70 -156z" />
    <glyph glyph-name="tcommaaccent" unicode="&#x163;" horiz-adv-x="214" 
d="M214 349h-72v-349h-72v349h-44v66h44v150h72v-150h72v-66zM30 -210l56 160l64 -24l-70 -156z" />
    <glyph glyph-name="Tcaron" unicode="&#x164;" horiz-adv-x="426" 
d="M412 597h-162v-597h-74v597h-162v70h398v-70zM213 805l88 76l52 -41l-140 -119l-140 119l52 41z" />
    <glyph glyph-name="tcaron" unicode="&#x165;" horiz-adv-x="276" 
d="M214 349h-72v-349h-72v349h-44v66h44v150h72v-150h72v-66zM180 530l52 160l64 -24l-70 -156z" />
    <glyph glyph-name="Utilde" unicode="&#x168;" horiz-adv-x="646" 
d="M160 667v-409c0 -56 0 -117 53 -162c27 -23 73 -38 110 -38s83 15 110 38c53 45 53 106 53 162v409h74v-429c0 -56 -6 -110 -42 -160c-40 -55 -110 -90 -195 -90s-155 35 -195 90c-36 50 -42 104 -42 160v429h74zM435 842l43 -35c-6 -16 -15 -30 -26 -41
c-24 -25 -51 -31 -70 -31c-24 0 -41 9 -67 22c-25 12 -41 20 -56 20c-11 0 -21 -4 -30 -13c-7 -8 -14 -19 -17 -31l-44 36c7 19 17 33 30 45c16 16 35 27 63 27c27 0 50 -12 68 -21c19 -10 39 -21 56 -21c11 0 22 4 32 14c7 7 14 18 18 29z" />
    <glyph glyph-name="utilde" unicode="&#x169;" horiz-adv-x="466" 
d="M140 415v-242c0 -29 0 -63 20 -89c11 -14 33 -32 73 -32s62 18 73 32c20 26 20 60 20 89v242h72v-250c0 -51 -5 -89 -38 -125c-37 -39 -86 -52 -127 -52s-90 13 -127 52c-33 36 -38 74 -38 125v250h72zM121 497l-42 34c9 15 23 34 34 45c19 18 36 24 57 24
c27 0 48 -9 70 -20c23 -12 37 -20 56 -20c12 0 20 2 29 12c7 8 17 23 21 31l41 -34c-5 -13 -13 -26 -26 -39c-23 -24 -47 -30 -66 -30c-24 0 -50 12 -69 21c-24 11 -40 19 -55 19c-12 0 -20 -5 -29 -14s-16 -20 -21 -29z" />
    <glyph glyph-name="Umacron" unicode="&#x16a;" horiz-adv-x="646" 
d="M160 667v-409c0 -56 0 -117 53 -162c27 -23 73 -38 110 -38s83 15 110 38c53 45 53 106 53 162v409h74v-429c0 -56 -6 -110 -42 -160c-40 -55 -110 -90 -195 -90s-155 35 -195 90c-36 50 -42 104 -42 160v429h74zM163 733v64h320v-64h-320z" />
    <glyph glyph-name="umacron" unicode="&#x16b;" horiz-adv-x="466" 
d="M140 415v-242c0 -29 0 -63 20 -89c11 -14 33 -32 73 -32s62 18 73 32c20 26 20 60 20 89v242h72v-250c0 -51 -5 -89 -38 -125c-37 -39 -86 -52 -127 -52s-90 13 -127 52c-33 36 -38 74 -38 125v250h72zM82 513v60h302v-60h-302z" />
    <glyph glyph-name="Ubreve" unicode="&#x16c;" horiz-adv-x="646" 
d="M160 667v-409c0 -56 0 -117 53 -162c27 -23 73 -38 110 -38s83 15 110 38c53 45 53 106 53 162v409h74v-429c0 -56 -6 -110 -42 -160c-40 -55 -110 -90 -195 -90s-155 35 -195 90c-36 50 -42 104 -42 160v429h74zM412 841h66c-5 -26 -16 -49 -31 -67
c-20 -23 -58 -53 -124 -53s-104 30 -124 53c-15 18 -26 41 -31 67h66c4 -12 11 -25 25 -36c18 -14 42 -20 64 -20s46 6 64 20c14 11 21 24 25 36z" />
    <glyph glyph-name="ubreve" unicode="&#x16d;" horiz-adv-x="466" 
d="M140 415v-242c0 -29 0 -63 20 -89c11 -14 33 -32 73 -32s62 18 73 32c20 26 20 60 20 89v242h72v-250c0 -51 -5 -89 -38 -125c-37 -39 -86 -52 -127 -52s-90 13 -127 52c-33 36 -38 74 -38 125v250h72zM88 617h61c5 -18 15 -31 24 -39c17 -15 38 -21 60 -21s43 6 60 21
c9 8 19 21 24 39h61c-7 -38 -25 -61 -29 -67c-18 -23 -52 -53 -116 -53s-98 30 -116 53c-4 6 -22 29 -29 67z" />
    <glyph glyph-name="Uring" unicode="&#x16e;" horiz-adv-x="646" 
d="M160 667v-409c0 -56 0 -117 53 -162c27 -23 73 -38 110 -38s83 15 110 38c53 45 53 106 53 162v409h74v-429c0 -56 -6 -110 -42 -160c-40 -55 -110 -90 -195 -90s-155 35 -195 90c-36 50 -42 104 -42 160v429h74zM235 818c0 48 40 88 88 88s88 -40 88 -88
s-40 -88 -88 -88s-88 40 -88 88zM281 819c0 -22 20 -42 42 -42s42 20 42 42s-20 42 -42 42s-42 -20 -42 -42z" />
    <glyph glyph-name="uring" unicode="&#x16f;" horiz-adv-x="466" 
d="M140 415v-242c0 -29 0 -63 20 -89c11 -14 33 -32 73 -32s62 18 73 32c20 26 20 60 20 89v242h72v-250c0 -51 -5 -89 -38 -125c-37 -39 -86 -52 -127 -52s-90 13 -127 52c-33 36 -38 74 -38 125v250h72zM147 583c0 47 39 86 86 86s86 -39 86 -86s-39 -86 -86 -86
s-86 39 -86 86zM191 583c0 -22 20 -42 42 -42s42 20 42 42s-20 42 -42 42s-42 -20 -42 -42z" />
    <glyph glyph-name="Uhungarumlaut" unicode="&#x170;" horiz-adv-x="646" 
d="M160 667v-409c0 -56 0 -117 53 -162c27 -23 73 -38 110 -38s83 15 110 38c53 45 53 106 53 162v409h74v-429c0 -56 -6 -110 -42 -160c-40 -55 -110 -90 -195 -90s-155 35 -195 90c-36 50 -42 104 -42 160v429h74zM327 882l70 -40l-147 -122l-43 26zM477 882l70 -40
l-147 -122l-43 26z" />
    <glyph glyph-name="uhungarumlaut" unicode="&#x171;" horiz-adv-x="466" 
d="M140 415v-242c0 -29 0 -63 20 -89c11 -14 33 -32 73 -32s62 18 73 32c20 26 20 60 20 89v242h72v-250c0 -51 -5 -89 -38 -125c-37 -39 -86 -52 -127 -52s-90 13 -127 52c-33 36 -38 74 -38 125v250h72zM233 666l72 -32l-137 -136l-41 23zM367 666l70 -32l-135 -136
l-41 23z" />
    <glyph glyph-name="Uogonek" unicode="&#x172;" horiz-adv-x="646" 
d="M160 667v-422c0 -48 3 -98 43 -139c28 -28 76 -48 120 -48c37 0 83 15 110 38c53 45 53 109 53 151v420h74v-429c0 -49 -3 -123 -57 -179c-20 -21 -58 -41 -89 -59c-20 -11 -44 -24 -59 -42c-13 -15 -20 -33 -20 -48c0 -12 4 -21 13 -29c12 -10 27 -11 39 -11
c17 0 32 4 48 13l-8 -59c-20 -10 -41 -14 -59 -14c-31 0 -59 13 -76 30c-16 17 -21 35 -21 56c0 23 8 42 21 60c10 14 20 24 31 32c-68 0 -148 25 -195 90c-36 50 -42 103 -42 160v429h74z" />
    <glyph glyph-name="uogonek" unicode="&#x173;" horiz-adv-x="466" 
d="M140 415v-242c0 -29 0 -63 20 -89c11 -14 33 -32 73 -32s62 18 73 32c20 26 20 60 20 89v242h72v-250c0 -39 -1 -87 -38 -125c-19 -19 -37 -28 -60 -42c-25 -15 -40 -29 -50 -41c-16 -19 -20 -35 -20 -47c0 -14 5 -23 13 -29c10 -8 25 -11 39 -11c17 0 34 5 48 13l-8 -55
c-21 -12 -43 -14 -57 -14c-31 0 -57 12 -73 28c-11 11 -22 29 -22 55c0 19 5 36 16 52c2 3 15 22 37 39c-38 2 -83 16 -117 52c-33 36 -38 74 -38 125v250h72z" />
    <glyph glyph-name="Ydieresis" unicode="&#x178;" horiz-adv-x="530" 
d="M227 0v287l-219 380h86l170 -298l172 298h86l-221 -380v-287h-74zM119 784c0 28 23 51 51 51s51 -23 51 -51s-23 -51 -51 -51s-51 23 -51 51zM309 784c0 28 23 51 51 51s51 -23 51 -51s-23 -51 -51 -51s-51 23 -51 51z" />
    <glyph glyph-name="Zacute" unicode="&#x179;" horiz-adv-x="536" 
d="M512 667l-364 -597h354v-70h-478l364 597h-317v70h441zM350 882l70 -45l-153 -117l-43 32z" />
    <glyph glyph-name="zacute" unicode="&#x17a;" horiz-adv-x="460" 
d="M452 415l-300 -349h288v-66h-432l300 349h-242v66h386zM292 666l74 -34l-134 -135l-45 24z" />
    <glyph glyph-name="Zdotaccent" unicode="&#x17b;" horiz-adv-x="536" 
d="M512 667l-364 -597h354v-70h-478l364 597h-317v70h441zM225 784c0 32 23 55 55 55s55 -23 55 -55s-23 -55 -55 -55s-55 23 -55 55z" />
    <glyph glyph-name="zdotaccent" unicode="&#x17c;" horiz-adv-x="460" 
d="M452 415l-300 -349h288v-66h-432l300 349h-242v66h386zM197 553c0 30 23 53 53 53s53 -23 53 -53s-23 -53 -53 -53s-53 23 -53 53z" />
    <glyph glyph-name="Zcaron" unicode="&#x17d;" horiz-adv-x="536" 
d="M512 667l-364 -597h354v-70h-478l364 597h-317v70h441zM280 805l88 76l52 -41l-140 -119l-140 119l52 41z" />
    <glyph glyph-name="zcaron" unicode="&#x17e;" horiz-adv-x="460" 
d="M452 415l-300 -349h288v-66h-432l300 349h-242v66h386zM250 573l92 81l46 -36l-138 -121l-138 121l46 36z" />
    <glyph glyph-name="uni018F" unicode="&#x18f;" horiz-adv-x="756" 
d="M132 483l-55 50c19 26 47 56 77 79c65 50 140 66 204 66c199 0 348 -151 348 -345s-147 -345 -344 -345c-118 0 -202 57 -248 120c-42 57 -64 137 -64 211v16h580c0 149 -111 273 -273 273c-80 0 -130 -29 -162 -56c-22 -18 -44 -42 -63 -69zM623 265h-497
c2 -42 15 -74 27 -95c38 -68 115 -112 204 -112c129 0 239 87 266 207z" />
    <glyph glyph-name="florin" unicode="&#x192;" 
d="M427 355h-108l-61 -329c-10 -55 -21 -109 -62 -149c-33 -32 -79 -47 -139 -47c-17 0 -30 2 -42 4l14 64c7 -1 15 -2 25 -2c21 0 61 2 89 29c22 22 36 60 48 128l55 302h-72l9 60h74l33 179c13 73 38 102 49 113c28 28 64 33 92 33c30 0 52 -6 64 -10l-13 -67
c-14 6 -30 11 -46 11c-19 0 -33 -6 -44 -16c-10 -10 -22 -29 -32 -84l-30 -159h106z" />
    <glyph glyph-name="uni01CF" unicode="&#x1cf;" horiz-adv-x="246" 
d="M85 667h74v-667h-74v667zM123 805l88 76l52 -41l-140 -119l-140 119l52 41z" />
    <glyph glyph-name="uni01D0" unicode="&#x1d0;" horiz-adv-x="208" 
d="M68 415h72v-415h-72v415zM104 579l75 67l43 -35l-118 -106l-118 106l43 35z" />
    <glyph glyph-name="uni01DD" unicode="&#x1dd;" horiz-adv-x="482" 
d="M105 274l-60 33c12 23 30 48 51 67c44 40 95 51 138 51c100 0 206 -63 206 -217c0 -124 -76 -220 -202 -220c-81 0 -132 40 -158 76c-29 41 -42 103 -38 156h324c-1 86 -60 141 -133 141c-34 0 -61 -9 -85 -30c-19 -16 -34 -37 -43 -57zM360 160h-244
c10 -64 58 -108 122 -108c61 0 111 46 122 108z" />
    <glyph glyph-name="Gcaron" unicode="&#x1e6;" horiz-adv-x="758" 
d="M430 265v70h278v-16c0 -74 -22 -154 -64 -211c-20 -27 -95 -120 -248 -120c-198 0 -346 151 -346 345s149 345 348 345c64 0 139 -16 204 -66c30 -23 58 -53 77 -79l-55 -50c-19 27 -41 51 -63 69c-32 26 -82 56 -162 56c-161 0 -273 -121 -273 -276
c0 -182 145 -274 271 -274c89 0 166 45 204 112c12 21 25 53 27 95h-198zM379 805l88 76l52 -41l-140 -119l-140 119l52 41z" />
    <glyph glyph-name="gcaron" unicode="&#x1e7;" horiz-adv-x="526" 
d="M386 356v59h72v-405c0 -45 0 -109 -40 -163c-31 -42 -88 -77 -166 -77c-71 0 -120 28 -148 56s-54 73 -54 134h71c0 -35 14 -66 32 -86c30 -33 68 -40 100 -40c51 0 86 18 110 58c21 34 23 71 23 106v60c-24 -31 -69 -70 -142 -70c-61 0 -110 24 -142 56
c-28 28 -60 80 -60 164c0 81 30 131 60 161c35 34 86 56 142 56c61 0 109 -26 142 -69zM252 361c-44 0 -74 -19 -94 -39c-35 -36 -42 -80 -42 -114c0 -36 7 -85 47 -122c23 -21 51 -34 89 -34s68 12 91 35c28 27 47 71 47 120s-18 92 -44 117c-23 23 -57 37 -94 37zM263 573
l92 81l46 -36l-138 -121l-138 121l46 36z" />
    <glyph glyph-name="AEacute" unicode="&#x1fc;" horiz-adv-x="900" 
d="M538 0l-79 187h-284l-79 -187h-82l297 667h293l29 -70h-269l83 -198h264l29 -70h-262l108 -259h271l29 -70h-348zM207 257h223l-110 261zM532 882l70 -45l-153 -117l-43 32z" />
    <glyph glyph-name="aeacute" unicode="&#x1fd;" horiz-adv-x="774" 
d="M667 140l60 -36c-28 -53 -83 -116 -187 -116c-35 0 -110 5 -163 83c-42 -74 -113 -83 -156 -83c-97 0 -179 44 -179 135c0 89 77 137 173 137c50 0 87 -12 119 -35c1 24 -3 62 -19 88c-21 36 -56 48 -99 48c-48 0 -103 -17 -128 -26v68c55 18 95 22 129 22
c46 0 121 -8 157 -84c34 55 93 84 160 84c121 0 198 -89 198 -225v-7h-324c3 -82 60 -141 131 -141c58 0 104 40 128 88zM413 253h245c-9 68 -61 108 -123 108c-60 0 -111 -39 -122 -108zM221 196c-71 0 -107 -33 -107 -73c0 -30 22 -71 105 -71s111 42 111 74
c0 29 -27 70 -109 70zM449 666l74 -34l-134 -135l-45 24z" />
    <glyph glyph-name="Scommaaccent" unicode="&#x218;" horiz-adv-x="518" 
d="M443 574l-59 -39c-9 18 -24 38 -39 50c-13 10 -37 23 -75 23c-66 0 -112 -41 -112 -103c0 -26 7 -41 25 -58c20 -20 45 -31 70 -42l64 -28c39 -17 75 -35 103 -63c34 -34 48 -73 48 -121c0 -123 -91 -205 -211 -205c-44 0 -99 9 -145 54c-33 32 -53 78 -62 118l72 20
c5 -35 21 -65 40 -85c29 -29 62 -37 96 -37c91 0 134 65 134 132c0 30 -9 56 -33 78c-19 18 -45 30 -80 46l-60 28c-26 12 -59 26 -89 55c-29 28 -46 59 -46 109c0 103 79 172 187 172c41 0 74 -8 107 -30c27 -18 50 -45 65 -74zM188 -210l56 160l64 -24l-70 -156z" />
    <glyph glyph-name="scommaaccent" unicode="&#x219;" horiz-adv-x="352" 
d="M298 350l-59 -31c-10 24 -31 42 -58 42c-26 0 -50 -15 -50 -47c0 -30 20 -39 67 -59c60 -25 88 -44 104 -64c18 -22 22 -44 22 -67c0 -87 -63 -136 -143 -136c-17 0 -110 2 -145 106l62 26c8 -22 32 -68 84 -68c47 0 68 35 68 66c0 39 -28 52 -67 69
c-50 22 -82 38 -101 61c-16 20 -19 40 -19 61c0 73 51 116 121 116c22 0 81 -4 114 -75zM110 -210l56 160l64 -24l-70 -156z" />
    <glyph glyph-name="uni021A" unicode="&#x21a;" horiz-adv-x="426" 
d="M412 597h-162v-597h-74v597h-162v70h398v-70zM128 -210l56 160l64 -24l-70 -156z" />
    <glyph glyph-name="uni021B" unicode="&#x21b;" horiz-adv-x="214" 
d="M214 349h-72v-349h-72v349h-44v66h44v150h72v-150h72v-66zM30 -210l56 160l64 -24l-70 -156z" />
    <glyph glyph-name="uni0228" unicode="&#x228;" horiz-adv-x="482" 
d="M432 667v-70h-272v-198h264v-70h-264v-259h272v-70h-346v667h346zM255 -52l70 -30l-104 -128l-50 26z" />
    <glyph glyph-name="uni0229" unicode="&#x229;" horiz-adv-x="481" 
d="M376 139l60 -33c-12 -23 -30 -48 -51 -67c-38 -34 -85 -51 -138 -51c-100 0 -205 63 -205 217c0 124 76 220 201 220c81 0 132 -40 157 -76c26 -37 41 -101 39 -156h-323c1 -86 60 -141 132 -141c34 0 61 10 85 30c19 16 34 37 43 57zM121 253h244
c-12 65 -61 108 -122 108s-111 -46 -122 -108zM256 -52l66 -27l-101 -128l-49 24z" />
    <glyph glyph-name="uni0237" unicode="&#x237;" horiz-adv-x="208" 
d="M68 415h72v-645h-72v645z" />
    <glyph glyph-name="uni0259" unicode="&#x259;" horiz-adv-x="482" 
d="M105 274l-60 33c12 23 30 48 51 67c44 40 95 51 138 51c100 0 206 -63 206 -217c0 -124 -76 -220 -202 -220c-81 0 -132 40 -158 76c-29 41 -42 103 -38 156h324c-1 86 -60 141 -133 141c-34 0 -61 -9 -85 -30c-19 -16 -34 -37 -43 -57zM360 160h-244
c10 -64 58 -108 122 -108c61 0 111 46 122 108z" />
    <glyph glyph-name="afii57929" unicode="&#x2bc;" horiz-adv-x="500" 
d="M190 530l52 160l64 -24l-70 -156z" />
    <glyph glyph-name="circumflex" unicode="&#x2c6;" horiz-adv-x="500" 
d="M250 578l-92 -81l-46 36l138 121l138 -121l-46 -36z" />
    <glyph glyph-name="caron" unicode="&#x2c7;" horiz-adv-x="500" 
d="M250 573l92 81l46 -36l-138 -121l-138 121l46 36z" />
    <glyph glyph-name="uni02C9" unicode="&#x2c9;" horiz-adv-x="500" 
d="M99 513v60h302v-60h-302z" />
    <glyph glyph-name="breve" unicode="&#x2d8;" horiz-adv-x="500" 
d="M105 617h61c5 -18 15 -31 24 -39c17 -15 38 -21 60 -21s43 6 60 21c9 8 19 21 24 39h61c-7 -38 -25 -61 -29 -67c-18 -23 -52 -53 -116 -53s-98 30 -116 53c-4 6 -22 29 -29 67z" />
    <glyph glyph-name="dotaccent" unicode="&#x2d9;" horiz-adv-x="500" 
d="M197 553c0 30 23 53 53 53s53 -23 53 -53s-23 -53 -53 -53s-53 23 -53 53z" />
    <glyph glyph-name="ring" unicode="&#x2da;" horiz-adv-x="500" 
d="M164 583c0 47 39 86 86 86s86 -39 86 -86s-39 -86 -86 -86s-86 39 -86 86zM208 583c0 -22 20 -42 42 -42s42 20 42 42s-20 42 -42 42s-42 -20 -42 -42z" />
    <glyph glyph-name="ogonek" unicode="&#x2db;" horiz-adv-x="500" 
d="M364 -117l-8 -55c-21 -11 -42 -14 -56 -14c-49 0 -96 32 -96 83c0 23 9 45 24 64c6 8 21 26 48 39h58c-15 -10 -35 -25 -47 -39c-5 -6 -23 -28 -23 -51c0 -20 12 -40 52 -40c20 0 38 7 48 13z" />
    <glyph glyph-name="tilde" unicode="&#x2dc;" horiz-adv-x="500" 
d="M138 497l-42 34c9 15 23 34 34 45c19 18 36 24 57 24c27 0 48 -9 70 -20c23 -12 37 -20 56 -20c12 0 20 2 29 12c7 8 17 23 21 31l41 -34c-5 -13 -13 -26 -26 -39c-23 -24 -47 -30 -66 -30c-24 0 -50 12 -69 21c-24 11 -40 19 -55 19c-12 0 -20 -5 -29 -14
s-16 -20 -21 -29z" />
    <glyph glyph-name="hungarumlaut" unicode="&#x2dd;" horiz-adv-x="500" 
d="M250 666l72 -32l-137 -136l-41 23zM384 666l70 -32l-135 -136l-41 23z" />
    <glyph glyph-name="acutecomb" unicode="&#x301;" horiz-adv-x="2" 
d="M-186 666l74 -34l-134 -135l-45 24z" />
    <glyph glyph-name="uni0313" unicode="&#x313;" horiz-adv-x="500" 
d="M190 530l52 160l64 -24l-70 -156z" />
    <glyph glyph-name="uni0315" unicode="&#x315;" horiz-adv-x="500" 
d="M190 530l52 160l64 -24l-70 -156z" />
    <glyph glyph-name="uni0326" unicode="&#x326;" horiz-adv-x="500" 
d="M170 -210l56 160l64 -24l-70 -156z" />
    <glyph glyph-name="uni037E" unicode="&#x37e;" horiz-adv-x="274" 
d="M78 375c0 27 23 50 50 50s50 -23 50 -50s-23 -50 -50 -50s-50 23 -50 50zM24 -133l82 231l66 -24l-101 -226z" />
    <glyph glyph-name="anoteleia" unicode="&#x387;" horiz-adv-x="200" 
d="M36 340c0 34 30 64 64 64s64 -30 64 -64s-30 -64 -64 -64s-64 30 -64 64z" />
    <glyph glyph-name="uni0394" unicode="&#x394;" horiz-adv-x="668" 
d="M640 0h-612l268 667h76zM334 574l-200 -504h400z" />
    <glyph glyph-name="uni03A9" unicode="&#x3a9;" horiz-adv-x="668" 
d="M379 0v70c47 25 101 68 133 113c24 35 51 89 51 169c0 98 -38 161 -76 197c-34 32 -85 59 -153 59s-119 -27 -153 -59c-38 -36 -76 -99 -76 -197c0 -80 27 -134 51 -169c32 -45 86 -88 133 -113v-70h-260v70h179c-50 26 -92 63 -121 103c-42 58 -58 120 -58 186
c0 100 38 184 92 237c40 40 109 82 213 82s173 -42 213 -82c54 -53 92 -137 92 -237c0 -66 -16 -128 -58 -186c-29 -40 -71 -77 -121 -103h179v-70h-260z" />
    <glyph glyph-name="uni03BC" unicode="&#x3bc;" horiz-adv-x="523" 
d="M140 -230h-72v645h72v-207c0 -25 1 -81 30 -118c25 -32 64 -38 88 -38c48 0 83 29 101 59c24 39 24 82 24 106v198h72v-415h-72v86c-20 -55 -64 -98 -127 -98c-76 0 -109 59 -116 73v-291z" />
    <glyph glyph-name="pi" unicode="&#x3c0;" horiz-adv-x="538" 
d="M174 0h-72v349h-74v66h482v-66h-74v-349h-72v349h-190v-349z" />
    <glyph glyph-name="afii10023" unicode="&#x401;" horiz-adv-x="482" 
d="M432 667v-70h-272v-198h264v-70h-264v-259h272v-70h-346v667h346zM112 784c0 28 23 51 51 51s51 -23 51 -51s-23 -51 -51 -51s-51 23 -51 51zM302 784c0 28 23 51 51 51s51 -23 51 -51s-23 -51 -51 -51s-51 23 -51 51z" />
    <glyph glyph-name="afii10051" unicode="&#x402;" horiz-adv-x="646" 
d="M450 597h-202v-212c46 15 95 23 137 23c85 0 142 -27 175 -67c31 -38 44 -92 44 -147c0 -88 -37 -139 -70 -163c-36 -27 -90 -37 -134 -37c-21 0 -48 3 -68 6v70c23 -5 42 -6 63 -6c34 0 66 4 93 27c32 27 40 65 40 104c0 41 -10 75 -28 97c-22 26 -64 46 -122 46
c-40 0 -90 -9 -130 -23v-315h-74v597h-160v70h436v-70z" />
    <glyph glyph-name="afii10052" unicode="&#x403;" horiz-adv-x="404" 
d="M86 0v667h304v-70h-230v-597h-74zM322 882l70 -45l-153 -117l-43 32z" />
    <glyph glyph-name="afii10053" unicode="&#x404;" horiz-adv-x="645" 
d="M595 612v-92c-35 35 -70 52 -87 60c-41 18 -90 28 -135 28c-137 0 -234 -102 -244 -228h386v-70h-389c-1 -151 118 -252 248 -252c44 0 96 10 144 33c31 15 55 31 77 54v-92c-82 -53 -166 -65 -221 -65c-201 0 -324 148 -324 343c0 199 126 347 328 347
c62 0 140 -13 217 -66z" />
    <glyph glyph-name="afii10054" unicode="&#x405;" horiz-adv-x="518" 
d="M443 574l-59 -39c-9 18 -24 38 -39 50c-13 10 -37 23 -75 23c-66 0 -112 -41 -112 -103c0 -26 7 -41 25 -58c20 -20 45 -31 70 -42l64 -28c39 -17 75 -35 103 -63c34 -34 48 -73 48 -121c0 -123 -91 -205 -211 -205c-44 0 -99 9 -145 54c-33 32 -53 78 -62 118l72 20
c5 -35 21 -65 40 -85c29 -29 62 -37 96 -37c91 0 134 65 134 132c0 30 -9 56 -33 78c-19 18 -45 30 -80 46l-60 28c-26 12 -59 26 -89 55c-29 28 -46 59 -46 109c0 103 79 172 187 172c41 0 74 -8 107 -30c27 -18 50 -45 65 -74z" />
    <glyph glyph-name="afii10055" unicode="&#x406;" horiz-adv-x="246" 
d="M86 667h74v-667h-74v667z" />
    <glyph glyph-name="afii10056" unicode="&#x407;" horiz-adv-x="246" 
d="M86 667h74v-667h-74v667zM15 784c0 28 19 51 45 51s45 -24 45 -51s-19 -51 -45 -51s-45 23 -45 51zM141 784c0 27 19 51 45 51s45 -23 45 -51s-19 -51 -45 -51s-45 24 -45 51z" />
    <glyph glyph-name="afii10057" unicode="&#x408;" horiz-adv-x="306" 
d="M146 667h74v-480c0 -54 -1 -115 -41 -157c-23 -25 -57 -42 -106 -42c-48 0 -89 15 -119 49l41 58c22 -24 51 -37 76 -37c20 0 38 7 50 19c25 25 25 67 25 108v482z" />
    <glyph glyph-name="afii10058" unicode="&#x409;" horiz-adv-x="922" 
d="M154 667h406v-277h90c82 0 230 -17 230 -188c0 -127 -85 -202 -216 -202h-178v597h-258v-358c0 -60 3 -148 -60 -205c-29 -26 -70 -40 -114 -40c-5 0 -20 1 -40 6v70c10 -3 23 -6 37 -6c30 0 52 13 65 26c39 39 38 111 38 179v398zM560 320v-250h86c30 0 85 0 123 37
c18 17 35 47 35 95c0 32 -8 76 -54 101c-31 17 -71 17 -112 17h-78z" />
    <glyph glyph-name="afii10059" unicode="&#x40a;" horiz-adv-x="938" 
d="M160 667v-277h342v277h74v-277h90c82 0 230 -17 230 -188c0 -127 -85 -202 -216 -202h-178v320h-342v-320h-74v667h74zM576 320v-250h86c30 0 85 0 123 37c18 17 35 47 35 95c0 32 -8 76 -54 101c-31 17 -71 17 -112 17h-78z" />
    <glyph glyph-name="afii10060" unicode="&#x40b;" horiz-adv-x="678" 
d="M450 597h-202v-196c40 3 103 7 138 7c83 0 133 -11 165 -36c56 -43 61 -110 61 -155v-217h-74v207c0 26 0 81 -40 110c-24 18 -64 21 -116 21c-57 0 -102 -4 -134 -7v-331h-74v597h-160v70h436v-70z" />
    <glyph glyph-name="afii10061" unicode="&#x40c;" 
d="M160 667v-286l284 286h100l-312 -311l322 -356h-102l-273 306l-19 -19v-287h-74v667h74zM366 882l70 -45l-153 -117l-43 32z" />
    <glyph glyph-name="afii10062" unicode="&#x40e;" 
d="M8 667h90l208 -393l174 393h80l-301 -667h-80l85 186zM135 818l70 23c16 -55 77 -56 85 -56s69 1 85 56l70 -23c-6 -17 -41 -97 -155 -97s-149 80 -155 97z" />
    <glyph glyph-name="afii10145" unicode="&#x40f;" horiz-adv-x="658" 
d="M86 0v667h74v-597h338v597h74v-667h-208v-160h-70v160h-208z" />
    <glyph glyph-name="afii10017" unicode="&#x410;" horiz-adv-x="622" 
d="M532 0l-78 188h-284l-80 -188h-82l307 699l299 -699h-82zM199 258h226l-112 267z" />
    <glyph glyph-name="afii10018" unicode="&#x411;" horiz-adv-x="530" 
d="M86 0v667h331v-70h-257v-207h90c82 0 230 -17 230 -188c0 -127 -85 -202 -216 -202h-178zM160 320v-250h86c30 0 85 0 123 37c18 17 35 47 35 95c0 32 -8 76 -54 101c-31 17 -71 17 -112 17h-78z" />
    <glyph glyph-name="afii10019" unicode="&#x412;" horiz-adv-x="530" 
d="M86 667h120c37 0 104 -3 153 -42c21 -16 60 -57 60 -138c0 -33 -7 -91 -66 -131c93 -23 127 -104 127 -168s-32 -116 -68 -144c-53 -42 -114 -44 -160 -44h-166v667zM160 597v-223h56c39 0 131 8 131 111c0 110 -108 112 -129 112h-58zM160 308v-238h85c43 0 85 3 117 28
c26 19 44 52 44 92c0 53 -31 84 -57 98c-25 14 -60 20 -113 20h-76z" />
    <glyph glyph-name="afii10020" unicode="&#x413;" horiz-adv-x="404" 
d="M86 0v667h304v-70h-230v-597h-74z" />
    <glyph glyph-name="afii10021" unicode="&#x414;" horiz-adv-x="640" 
d="M144 667h406v-597h76v-210h-70v140h-472v-140h-70v210c48 -2 86 40 106 90c13 33 24 83 24 175v332zM218 597v-262c0 -92 -8 -144 -24 -186c-12 -32 -29 -57 -51 -79h333v527h-258z" />
    <glyph glyph-name="afii10022" unicode="&#x415;" horiz-adv-x="482" 
d="M432 667v-70h-272v-198h264v-70h-264v-259h272v-70h-346v667h346z" />
    <glyph glyph-name="afii10024" unicode="&#x416;" horiz-adv-x="810" 
d="M368 667h74v-286l254 286h92l-280 -311l288 -356h-94l-244 305l-16 -18v-287h-74v287l-16 18l-244 -305h-94l288 356l-280 311h92l254 -286v286z" />
    <glyph glyph-name="afii10025" unicode="&#x417;" horiz-adv-x="576" 
d="M157 536l-57 45c54 80 126 97 191 97c34 0 95 -5 141 -47c29 -26 52 -68 52 -123c0 -68 -40 -117 -92 -141c89 -20 134 -91 134 -172c0 -83 -42 -134 -83 -163c-42 -29 -98 -44 -152 -44c-132 0 -207 82 -241 160l72 32c27 -75 92 -122 172 -122c36 0 74 9 102 28
c43 30 54 71 54 107c0 122 -113 131 -178 131h-60v70h60c93 0 136 52 136 113c0 29 -11 54 -27 70c-26 27 -64 31 -90 31c-48 0 -94 -14 -134 -72z" />
    <glyph glyph-name="afii10026" unicode="&#x418;" horiz-adv-x="710" 
d="M550 0v509l-464 -539v697h74v-511l464 539v-695h-74z" />
    <glyph glyph-name="afii10027" unicode="&#x419;" horiz-adv-x="710" 
d="M550 0v509l-464 -539v697h74v-511l464 539v-695h-74zM200 818l70 23c16 -55 77 -56 85 -56s69 1 85 56l70 -23c-6 -17 -41 -97 -155 -97s-149 80 -155 97z" />
    <glyph glyph-name="afii10028" unicode="&#x41a;" 
d="M160 667v-286l284 286h100l-312 -311l322 -356h-102l-273 306l-19 -19v-287h-74v667h74z" />
    <glyph glyph-name="afii10029" unicode="&#x41b;" horiz-adv-x="646" 
d="M154 667h406v-667h-74v597h-258v-358c0 -60 3 -148 -60 -205c-29 -26 -70 -40 -114 -40c-5 0 -20 1 -40 6v70c10 -3 23 -6 37 -6c30 0 52 13 65 26c39 39 38 111 38 179v398z" />
    <glyph glyph-name="afii10030" unicode="&#x41c;" horiz-adv-x="863" 
d="M139 0h-76l111 704l256 -563l261 564l104 -705h-76l-63 464l-227 -492l-224 492z" />
    <glyph glyph-name="afii10031" unicode="&#x41d;" horiz-adv-x="662" 
d="M160 667v-271h342v271h74v-667h-74v326h-342v-326h-74v667h74z" />
    <glyph glyph-name="afii10032" unicode="&#x41e;" horiz-adv-x="794" 
d="M397 -12c-193 0 -347 147 -347 345c0 199 155 345 347 345s347 -146 347 -345c0 -198 -154 -345 -347 -345zM397 608c-150 0 -271 -122 -271 -275s121 -275 271 -275s271 122 271 275s-121 275 -271 275z" />
    <glyph glyph-name="afii10033" unicode="&#x41f;" horiz-adv-x="662" 
d="M86 667h490v-667h-74v597h-342v-597h-74v667z" />
    <glyph glyph-name="afii10034" unicode="&#x420;" horiz-adv-x="456" 
d="M86 667h121c67 0 123 -8 168 -47c49 -42 61 -101 61 -143c0 -94 -59 -187 -211 -187h-65v-290h-74v667zM160 597v-237h61c88 0 141 44 141 121c0 106 -99 116 -147 116h-55z" />
    <glyph glyph-name="afii10035" unicode="&#x421;" horiz-adv-x="646" 
d="M596 612v-92c-21 21 -53 46 -87 62c-35 16 -76 26 -115 26c-154 0 -268 -124 -268 -278c0 -181 147 -272 269 -272c45 0 89 13 124 31c38 19 65 44 77 56v-92c-74 -53 -151 -65 -201 -65c-198 0 -345 150 -345 343c0 199 149 347 349 347c40 0 117 -5 197 -66z" />
    <glyph glyph-name="afii10036" unicode="&#x422;" horiz-adv-x="426" 
d="M412 597h-162v-597h-74v597h-162v70h398v-70z" />
    <glyph glyph-name="afii10037" unicode="&#x423;" 
d="M8 667h90l208 -393l174 393h80l-301 -667h-80l85 186z" />
    <glyph glyph-name="afii10038" unicode="&#x424;" horiz-adv-x="822" 
d="M374 0v94h-18c-248 0 -306 152 -306 260s58 260 306 260h18v80h74v-80h18c248 0 306 -152 306 -260s-58 -260 -306 -260h-18v-94h-74zM374 164v380h-20c-182 0 -228 -105 -228 -190s46 -190 228 -190h20zM448 544v-380h20c182 0 228 105 228 190s-46 190 -228 190h-20z
" />
    <glyph glyph-name="afii10039" unicode="&#x425;" horiz-adv-x="504" 
d="M14 0l197 345l-179 322h84l138 -251l142 251h84l-183 -322l193 -345h-84l-153 274l-155 -274h-84z" />
    <glyph glyph-name="afii10040" unicode="&#x426;" horiz-adv-x="662" 
d="M86 0v667h74v-597h338v597h74v-597h76v-210h-70v140h-492z" />
    <glyph glyph-name="afii10041" unicode="&#x427;" horiz-adv-x="590" 
d="M430 0v286c-40 -3 -103 -7 -138 -7c-83 0 -133 11 -165 36c-56 43 -61 110 -61 155v197h74v-187c0 -26 0 -81 40 -110c24 -18 64 -21 116 -21c57 0 102 4 134 7v311h74v-667h-74z" />
    <glyph glyph-name="afii10042" unicode="&#x428;" horiz-adv-x="922" 
d="M86 0v667h74v-597h264v597h74v-597h264v597h74v-667h-750z" />
    <glyph glyph-name="afii10043" unicode="&#x429;" horiz-adv-x="926" 
d="M86 0v667h74v-597h264v597h74v-597h264v597h74v-597h76v-210h-70v140h-756z" />
    <glyph glyph-name="afii10044" unicode="&#x42a;" horiz-adv-x="610" 
d="M174 0v597h-160v70h234v-277h90c82 0 230 -17 230 -188c0 -127 -85 -202 -216 -202h-178zM248 320v-250h86c30 0 85 0 123 37c18 17 35 47 35 95c0 32 -8 76 -54 101c-31 17 -71 17 -112 17h-78z" />
    <glyph glyph-name="afii10045" unicode="&#x42b;" horiz-adv-x="710" 
d="M86 0v667h74v-277h90c82 0 230 -17 230 -188c0 -127 -85 -202 -216 -202h-178zM160 320v-250h86c30 0 85 0 123 37c18 17 35 47 35 95c0 32 -8 76 -54 101c-31 17 -71 17 -112 17h-78zM550 667h74v-667h-74v667z" />
    <glyph glyph-name="afii10046" unicode="&#x42c;" horiz-adv-x="522" 
d="M86 0v667h74v-277h90c82 0 230 -17 230 -188c0 -127 -85 -202 -216 -202h-178zM160 320v-250h86c30 0 85 0 123 37c18 17 35 47 35 95c0 32 -8 76 -54 101c-31 17 -71 17 -112 17h-78z" />
    <glyph glyph-name="afii10047" unicode="&#x42d;" horiz-adv-x="645" 
d="M50 520v92c77 53 155 66 217 66c202 0 328 -148 328 -347c0 -195 -123 -343 -324 -343c-55 0 -139 12 -221 65v92c22 -23 46 -39 77 -54c48 -23 100 -33 144 -33c130 0 249 101 248 252h-389v70h386c-10 126 -107 228 -244 228c-45 0 -94 -10 -135 -28
c-17 -8 -52 -25 -87 -60z" />
    <glyph glyph-name="afii10048" unicode="&#x42e;" horiz-adv-x="990" 
d="M160 389h102c24 164 158 289 337 289c196 0 341 -143 341 -345c0 -198 -145 -345 -341 -345c-199 0 -333 154 -340 331h-99v-319h-74v667h74v-278zM599 608c-147 0 -264 -118 -264 -275s117 -275 264 -275s265 118 265 275s-118 275 -265 275z" />
    <glyph glyph-name="afii10049" unicode="&#x42f;" horiz-adv-x="510" 
d="M30 0l196 296c-30 3 -76 13 -112 42c-48 39 -58 91 -58 136c0 60 19 103 46 133c52 58 126 60 166 60h156v-667h-74v292h-40l-190 -292h-90zM350 597h-72c-35 0 -82 -2 -114 -35c-18 -19 -32 -49 -32 -86c0 -45 17 -73 38 -90c28 -22 70 -28 102 -28h78v239z" />
    <glyph glyph-name="afii10065" unicode="&#x430;" horiz-adv-x="526" 
d="M386 356v59h72v-415h-72v58c-24 -31 -69 -70 -142 -70c-105 0 -202 74 -202 220c0 143 96 217 202 217c80 0 123 -44 142 -69zM252 361c-71 0 -136 -52 -136 -153c0 -89 50 -156 136 -156c88 0 138 73 138 155c0 107 -74 154 -138 154z" />
    <glyph glyph-name="afii10066" unicode="&#x431;" horiz-adv-x="524" 
d="M388 700h80c-24 -80 -92 -102 -136 -113c-39 -10 -92 -19 -132 -48c-52 -39 -84 -114 -87 -190h2c27 46 77 76 151 76c124 0 216 -95 216 -219s-91 -218 -227 -218c-70 0 -116 27 -143 52c-63 58 -70 141 -70 214c0 74 3 263 118 342c45 31 97 40 145 51
c56 13 74 30 83 53zM262 361c-76 0 -146 -54 -146 -155c0 -102 72 -154 146 -154c75 0 146 53 146 154c0 102 -70 155 -146 155z" />
    <glyph glyph-name="afii10067" unicode="&#x432;" horiz-adv-x="430" 
d="M68 415h157c22 0 58 -1 87 -24c15 -12 36 -36 36 -78c0 -41 -20 -67 -45 -83c12 -3 32 -9 52 -28c23 -22 33 -48 33 -80c0 -44 -20 -76 -43 -94c-25 -19 -65 -28 -98 -28h-179v415zM140 246h76c7 0 30 1 46 12c8 6 20 18 20 43c0 20 -9 32 -20 40c-17 11 -36 10 -58 10
h-64v-105zM140 64h89c20 0 47 1 65 14c13 10 24 27 24 46s-7 36 -21 47c-18 14 -45 15 -65 15h-92v-122z" />
    <glyph glyph-name="afii10068" unicode="&#x433;" horiz-adv-x="318" 
d="M68 0v415h246v-66h-174v-349h-72z" />
    <glyph glyph-name="afii10069" unicode="&#x434;" horiz-adv-x="460" 
d="M98 415h292v-349h62v-176h-66v110h-316v-110h-66v176c36 1 63 25 77 54s17 68 17 110v185zM318 66v283h-148v-156c0 -48 -11 -93 -50 -127h198z" />
    <glyph glyph-name="afii10070" unicode="&#x435;" horiz-adv-x="481" 
d="M376 139l60 -33c-12 -23 -30 -48 -51 -67c-38 -34 -85 -51 -138 -51c-100 0 -205 63 -205 217c0 124 76 220 201 220c81 0 132 -40 157 -76c26 -37 41 -101 39 -156h-323c1 -86 60 -141 132 -141c34 0 61 10 85 30c19 16 34 37 43 57zM121 253h244
c-12 65 -61 108 -122 108s-111 -46 -122 -108z" />
    <glyph glyph-name="afii10072" unicode="&#x436;" horiz-adv-x="596" 
d="M262 415h72v-170l156 170h84l-180 -192l198 -223h-90l-154 175l-14 -14v-161h-72v161l-14 14l-154 -175h-90l198 223l-180 192h84l156 -170v170z" />
    <glyph glyph-name="afii10073" unicode="&#x437;" horiz-adv-x="422" 
d="M122 309l-50 41c14 20 33 40 53 52c32 19 64 23 91 23c33 0 67 -3 98 -29c27 -23 36 -50 36 -79c0 -49 -26 -74 -47 -87c21 -5 38 -16 48 -27c17 -18 29 -44 29 -76c0 -43 -20 -82 -54 -107c-30 -22 -73 -32 -118 -32c-37 0 -76 8 -111 35c-24 18 -43 45 -55 71l62 26
c4 -10 14 -30 37 -47s46 -21 68 -21c16 0 48 1 70 16c14 9 29 28 29 58c0 23 -11 39 -25 48c-21 14 -49 14 -68 14h-42v66h35c33 0 48 7 54 11c11 7 22 19 22 38c0 18 -7 34 -18 43c-17 15 -40 15 -53 15c-16 0 -36 -3 -57 -16c-11 -7 -24 -18 -34 -36z" />
    <glyph glyph-name="afii10074" unicode="&#x438;" horiz-adv-x="492" 
d="M68 415h72v-274l284 306v-447h-72v277l-284 -306v444z" />
    <glyph glyph-name="afii10075" unicode="&#x439;" horiz-adv-x="492" 
d="M68 415h72v-274l284 306v-447h-72v277l-284 -306v444zM104 594l60 23c10 -34 38 -60 85 -60s75 26 85 60l60 -23c-21 -59 -75 -97 -145 -97s-124 38 -145 97z" />
    <glyph glyph-name="afii10076" unicode="&#x43a;" horiz-adv-x="422" 
d="M68 415h72v-170l168 170h88l-180 -185l202 -230h-94l-162 182l-22 -21v-161h-72v415z" />
    <glyph glyph-name="afii10077" unicode="&#x43b;" horiz-adv-x="450" 
d="M382 415v-415h-72v349h-148v-187c0 -35 0 -81 -32 -120c-13 -16 -44 -44 -100 -44c-7 0 -15 1 -22 2v66c5 -1 11 -2 16 -2c27 0 44 14 52 27c13 20 14 46 14 71v253h292z" />
    <glyph glyph-name="afii10078" unicode="&#x43c;" horiz-adv-x="580" 
d="M20 0l100 447l172 -338l168 338l100 -447h-74l-55 257l-141 -286l-143 286l-53 -257h-74z" />
    <glyph glyph-name="afii10079" unicode="&#x43d;" horiz-adv-x="476" 
d="M68 0v415h72v-170h196v170h72v-415h-72v179h-196v-179h-72z" />
    <glyph glyph-name="afii10080" unicode="&#x43e;" horiz-adv-x="524" 
d="M262 -12c-126 0 -220 92 -220 218s93 219 220 219s220 -93 220 -219s-94 -218 -220 -218zM262 361c-76 0 -146 -54 -146 -155c0 -102 72 -154 146 -154c75 0 146 53 146 154c0 102 -70 155 -146 155z" />
    <glyph glyph-name="afii10081" unicode="&#x43f;" horiz-adv-x="470" 
d="M68 415h334v-415h-72v349h-190v-349h-72v415z" />
    <glyph glyph-name="afii10082" unicode="&#x440;" horiz-adv-x="526" 
d="M140 58v-288h-72v645h72v-58c49 61 112 68 142 68c130 0 202 -108 202 -220c0 -114 -73 -217 -199 -217c-67 0 -114 30 -145 70zM275 52c84 0 135 70 135 153c0 102 -69 156 -136 156s-138 -55 -138 -155c0 -85 54 -154 139 -154z" />
    <glyph glyph-name="afii10083" unicode="&#x441;" horiz-adv-x="438" 
d="M393 385v-86c-38 48 -93 62 -130 62c-77 0 -147 -54 -147 -155s72 -154 146 -154c43 0 96 19 134 65v-86c-45 -33 -93 -43 -132 -43c-129 0 -222 92 -222 217c0 127 94 220 222 220c66 0 109 -26 129 -40z" />
    <glyph glyph-name="afii10084" unicode="&#x442;" horiz-adv-x="348" 
d="M340 349h-130v-349h-72v349h-130v66h332v-66z" />
    <glyph glyph-name="afii10085" unicode="&#x443;" horiz-adv-x="460" 
d="M67 -230l132 269l-191 376h82l147 -297l135 297h80l-305 -645h-80z" />
    <glyph glyph-name="afii10086" unicode="&#x444;" horiz-adv-x="650" 
d="M289 -230v223c-39 0 -116 6 -175 54c-48 39 -72 92 -72 161c0 77 32 128 71 160c44 37 106 54 176 54v245h72v-245c70 0 132 -17 176 -54c39 -32 71 -83 71 -160c0 -69 -24 -122 -72 -161c-59 -48 -136 -54 -175 -54v-223h-72zM289 57v301c-39 0 -83 -8 -111 -26
c-27 -17 -62 -54 -62 -124c0 -64 28 -100 58 -121c31 -22 76 -30 115 -30zM361 358v-301c39 0 84 8 115 30c30 21 58 57 58 121c0 70 -35 107 -62 124c-28 18 -72 26 -111 26z" />
    <glyph glyph-name="afii10087" unicode="&#x445;" horiz-adv-x="454" 
d="M8 0l177 222l-151 193h88l107 -141l109 141h88l-152 -194l172 -221h-88l-131 169l-131 -169h-88z" />
    <glyph glyph-name="afii10088" unicode="&#x446;" horiz-adv-x="474" 
d="M68 0v415h72v-349h186v349h72v-349h68v-176h-66v110h-332z" />
    <glyph glyph-name="afii10089" unicode="&#x447;" horiz-adv-x="430" 
d="M290 0v163c-26 -4 -69 -9 -98 -9c-21 0 -69 1 -101 30c-28 25 -35 62 -35 102v129h72v-119c0 -15 2 -37 9 -49c13 -25 41 -27 63 -27c27 0 59 3 90 9v186h72v-415h-72z" />
    <glyph glyph-name="afii10090" unicode="&#x448;" horiz-adv-x="672" 
d="M68 0v415h72v-349h160v349h72v-349h160v349h72v-415h-536z" />
    <glyph glyph-name="afii10091" unicode="&#x449;" horiz-adv-x="680" 
d="M68 0v415h72v-349h160v349h72v-349h160v349h72v-349h68v-176h-66v110h-538z" />
    <glyph glyph-name="afii10092" unicode="&#x44a;" horiz-adv-x="430" 
d="M98 0v349h-90v66h162v-159h74c37 0 89 -3 126 -41c16 -16 32 -45 32 -87c0 -45 -19 -76 -37 -93c-36 -34 -81 -35 -122 -35h-145zM170 64h67c24 0 47 1 64 11c9 6 27 21 27 53c0 18 -5 39 -26 52c-18 12 -41 12 -64 12h-68v-128z" />
    <glyph glyph-name="afii10093" unicode="&#x44b;" horiz-adv-x="562" 
d="M68 0v415h72v-159h74c37 0 89 -3 126 -41c16 -16 32 -45 32 -87c0 -45 -19 -76 -37 -93c-36 -34 -81 -35 -122 -35h-145zM140 64h67c24 0 47 1 64 11c9 6 27 21 27 53c0 18 -5 39 -26 52c-18 12 -41 12 -64 12h-68v-128zM422 0v415h72v-415h-72z" />
    <glyph glyph-name="afii10094" unicode="&#x44c;" horiz-adv-x="400" 
d="M68 0v415h72v-159h74c37 0 89 -3 126 -41c16 -16 32 -45 32 -87c0 -45 -19 -76 -37 -93c-36 -34 -81 -35 -122 -35h-145zM140 64h67c24 0 47 1 64 11c9 6 27 21 27 53c0 18 -5 39 -26 52c-18 12 -41 12 -64 12h-68v-128z" />
    <glyph glyph-name="afii10095" unicode="&#x44d;" horiz-adv-x="423" 
d="M42 334v70c42 17 80 21 113 21c143 0 226 -92 226 -220c0 -125 -89 -217 -221 -217c-62 0 -101 16 -118 23v70c38 -20 83 -29 117 -29c75 0 140 50 148 128h-219v64h219c-16 76 -78 117 -149 117c-34 0 -77 -9 -116 -27z" />
    <glyph glyph-name="afii10096" unicode="&#x44e;" horiz-adv-x="690" 
d="M140 245h75c7 50 30 91 56 118c36 38 91 62 157 62c128 0 220 -93 220 -219s-93 -218 -220 -218c-86 0 -140 39 -171 78c-20 25 -41 63 -46 113h-71v-179h-72v415h72v-170zM428 361c-77 0 -143 -56 -143 -155c0 -102 70 -154 143 -154c75 0 146 53 146 154
s-70 155 -146 155z" />
    <glyph glyph-name="afii10097" unicode="&#x44f;" horiz-adv-x="408" 
d="M20 0l129 171c-5 0 -50 4 -80 33c-17 16 -33 44 -33 83s14 72 37 93c36 34 81 35 122 35h145v-415h-72v167h-44l-118 -167h-86zM268 227v124h-67c-29 0 -50 -2 -65 -11c-12 -8 -26 -24 -26 -51c0 -22 8 -39 26 -50c21 -13 47 -12 64 -12h68z" />
    <glyph glyph-name="afii10071" unicode="&#x451;" horiz-adv-x="481" 
d="M376 139l60 -33c-12 -23 -30 -48 -51 -67c-38 -34 -85 -51 -138 -51c-100 0 -205 63 -205 217c0 124 76 220 201 220c81 0 132 -40 157 -76c26 -37 41 -101 39 -156h-323c1 -86 60 -141 132 -141c34 0 61 10 85 30c19 16 34 37 43 57zM121 253h244
c-12 65 -61 108 -122 108s-111 -46 -122 -108zM110 550c0 27 23 50 50 50s50 -23 50 -50s-23 -50 -50 -50s-50 23 -50 50zM284 550c0 27 23 50 50 50s50 -23 50 -50s-23 -50 -50 -50s-50 23 -50 50z" />
    <glyph glyph-name="afii10099" unicode="&#x452;" horiz-adv-x="470" 
d="M68 0v514h-68v60h68v155h72v-155h200v-60h-200v-187c13 17 50 58 119 58c49 0 94 -20 119 -57c21 -31 24 -65 24 -111v-303c0 -43 -4 -79 -32 -109c-26 -27 -56 -35 -91 -35c-20 0 -35 3 -51 9v70c14 -5 31 -9 47 -9c25 0 39 11 46 22c8 13 9 32 9 60v293
c0 25 -2 54 -19 76c-14 18 -36 30 -68 30c-25 0 -52 -7 -73 -32c-28 -33 -30 -82 -30 -112v-177h-72z" />
    <glyph glyph-name="afii10100" unicode="&#x453;" horiz-adv-x="318" 
d="M68 0v415h246v-66h-174v-349h-72zM252 666l74 -34l-134 -135l-45 24z" />
    <glyph glyph-name="afii10101" unicode="&#x454;" horiz-adv-x="438" 
d="M393 385v-86c-38 45 -89 62 -130 62c-65 0 -130 -42 -144 -117h217v-64h-218c9 -78 73 -128 144 -128c43 0 96 19 134 65v-86c-45 -33 -93 -43 -132 -43c-129 0 -222 92 -222 217c0 127 94 220 222 220c66 0 109 -26 129 -40z" />
    <glyph glyph-name="afii10102" unicode="&#x455;" horiz-adv-x="352" 
d="M298 350l-59 -31c-10 24 -31 42 -58 42c-26 0 -50 -15 -50 -47c0 -30 20 -39 67 -59c60 -25 88 -44 104 -64c18 -22 22 -44 22 -67c0 -87 -63 -136 -143 -136c-17 0 -110 2 -145 106l62 26c8 -22 32 -68 84 -68c47 0 68 35 68 66c0 39 -28 52 -67 69
c-50 22 -82 38 -101 61c-16 20 -19 40 -19 61c0 73 51 116 121 116c22 0 81 -4 114 -75z" />
    <glyph glyph-name="afii10103" unicode="&#x456;" horiz-adv-x="208" 
d="M68 415h72v-415h-72v415zM53 572c0 28 23 51 51 51s51 -23 51 -51s-23 -51 -51 -51s-51 23 -51 51z" />
    <glyph glyph-name="afii10104" unicode="&#x457;" horiz-adv-x="208" 
d="M68 415h72v-415h-72v415zM9 573c0 27 19 50 42 50s42 -23 42 -50s-19 -50 -42 -50s-42 23 -42 50zM115 573c0 27 19 50 42 50s42 -23 42 -50s-19 -50 -42 -50s-42 23 -42 50z" />
    <glyph glyph-name="afii10105" unicode="&#x458;" horiz-adv-x="208" 
d="M68 415h72v-645h-72v645zM53 572c0 28 23 51 51 51s51 -23 51 -51s-23 -51 -51 -51s-51 23 -51 51z" />
    <glyph glyph-name="afii10106" unicode="&#x459;" horiz-adv-x="642" 
d="M382 415v-159h74c37 0 89 -3 126 -41c16 -16 32 -45 32 -87c0 -45 -19 -76 -37 -93c-36 -34 -81 -35 -122 -35h-145v349h-148v-187c0 -35 0 -81 -32 -120c-13 -16 -44 -44 -100 -44c-7 0 -15 1 -22 2v66c5 -1 11 -2 16 -2c27 0 44 14 52 27c13 20 14 46 14 71v253h292z
M382 64h67c24 0 47 1 64 11c9 6 27 21 27 53c0 18 -5 39 -26 52c-18 12 -41 12 -64 12h-68v-128z" />
    <glyph glyph-name="afii10107" unicode="&#x45a;" horiz-adv-x="668" 
d="M68 0v415h72v-157h196v157h72v-159h74c37 0 89 -3 126 -41c16 -16 32 -45 32 -87c0 -45 -19 -76 -37 -93c-36 -34 -81 -35 -122 -35h-145v192h-196v-192h-72zM408 64h67c24 0 47 1 64 11c9 6 27 21 27 53c0 18 -5 39 -26 52c-18 12 -41 12 -64 12h-68v-128z" />
    <glyph glyph-name="afii10108" unicode="&#x45b;" horiz-adv-x="470" 
d="M68 0v514h-68v60h68v155h72v-155h200v-60h-200v-187c13 17 50 58 119 58c49 0 94 -20 119 -57c21 -31 24 -65 24 -111v-217h-72v215c0 25 -2 54 -19 76c-14 18 -36 30 -68 30c-25 0 -52 -7 -73 -32c-28 -33 -30 -82 -30 -112v-177h-72z" />
    <glyph glyph-name="afii10109" unicode="&#x45c;" horiz-adv-x="422" 
d="M68 415h72v-170l168 170h88l-180 -185l202 -230h-94l-162 182l-22 -21v-161h-72v415zM273 666l74 -34l-134 -135l-45 24z" />
    <glyph glyph-name="afii10110" unicode="&#x45e;" horiz-adv-x="460" 
d="M67 -230l132 269l-191 376h82l147 -297l135 297h80l-305 -645h-80zM95 594l60 23c10 -34 38 -60 85 -60s75 26 85 60l60 -23c-21 -59 -75 -97 -145 -97s-124 38 -145 97z" />
    <glyph glyph-name="afii10193" unicode="&#x45f;" horiz-adv-x="466" 
d="M68 0v415h72v-349h186v349h72v-415h-132v-120h-66v120h-132z" />
    <glyph glyph-name="afii10146" unicode="&#x462;" horiz-adv-x="610" 
d="M174 0v517h-160v70h160v107h74v-107h180v-70h-180v-127h90c82 0 230 -17 230 -188c0 -127 -85 -202 -216 -202h-178zM248 320v-250h86c30 0 85 0 123 37c18 17 35 47 35 95c0 32 -8 76 -54 101c-31 17 -71 17 -112 17h-78z" />
    <glyph glyph-name="afii10194" unicode="&#x463;" horiz-adv-x="430" 
d="M8 415h90v252h72v-252h120v-66h-120v-93h74c37 0 89 -3 126 -41c16 -16 32 -45 32 -87c0 -45 -19 -76 -37 -93c-36 -34 -81 -35 -122 -35h-145v349h-90v66zM170 64h67c24 0 47 1 64 11c9 6 27 21 27 53c0 18 -5 39 -26 52c-18 12 -41 12 -64 12h-68v-128z" />
    <glyph glyph-name="afii10147" unicode="&#x472;" horiz-adv-x="792" 
d="M396 -12c-192 0 -346 147 -346 345c0 199 154 345 346 345s346 -146 346 -345c0 -198 -154 -345 -346 -345zM129 380h534c-25 148 -151 228 -267 228s-242 -80 -267 -228zM666 310h-540c14 -153 137 -252 270 -252s256 99 270 252z" />
    <glyph glyph-name="afii10195" unicode="&#x473;" horiz-adv-x="524" 
d="M262 -12c-126 0 -220 92 -220 218s93 219 220 219s220 -93 220 -219s-94 -218 -220 -218zM120 244h284c-14 77 -78 117 -142 117s-128 -40 -142 -117zM406 180h-288c7 -79 74 -128 144 -128c72 0 136 50 144 128z" />
    <glyph glyph-name="afii10148" unicode="&#x474;" horiz-adv-x="556" 
d="M8 667h82l188 -509l188 509h82l-270 -707z" />
    <glyph glyph-name="afii10196" unicode="&#x475;" horiz-adv-x="424" 
d="M8 415h80l124 -280l124 280h80l-204 -442z" />
    <glyph glyph-name="afii10050" unicode="&#x490;" horiz-adv-x="404" 
d="M86 0v667h234v140h70v-210h-230v-597h-74z" />
    <glyph glyph-name="afii10098" unicode="&#x491;" horiz-adv-x="328" 
d="M68 0v415h180v110h66v-176h-174v-349h-72z" />
    <glyph glyph-name="uni0492" unicode="&#x492;" horiz-adv-x="404" 
d="M86 0v334h-86v66h86v267h304v-70h-230v-197h136v-66h-136v-334h-74z" />
    <glyph glyph-name="uni0493" unicode="&#x493;" horiz-adv-x="318" 
d="M68 0v188h-68v60h68v167h246v-66h-174v-101h100v-60h-100v-188h-72z" />
    <glyph glyph-name="uni0494" unicode="&#x494;" horiz-adv-x="558" 
d="M402 597h-242v-212c46 15 95 23 137 23c85 0 142 -27 175 -67c31 -38 44 -92 44 -147c0 -88 -37 -139 -70 -163c-36 -27 -90 -37 -134 -37c-21 0 -48 3 -68 6v70c23 -5 42 -6 63 -6c34 0 66 4 93 27c32 27 40 65 40 104c0 41 -10 75 -28 97c-22 26 -64 46 -122 46
c-40 0 -90 -9 -130 -23v-315h-74v667h316v-70z" />
    <glyph glyph-name="uni0495" unicode="&#x495;" horiz-adv-x="430" 
d="M68 0v415h246v-66h-174v-113h30c36 0 114 -4 167 -57c31 -32 51 -81 51 -139c0 -63 -23 -130 -79 -182c-29 -27 -77 -59 -146 -66v70c29 4 63 16 96 48c41 39 53 83 53 131c0 53 -20 83 -39 99c-19 17 -51 30 -103 30h-30v-170h-72z" />
    <glyph glyph-name="uni0496" unicode="&#x496;" horiz-adv-x="810" 
d="M368 667h74v-286l254 286h92l-280 -311l231 -286h57v-210h-70v140h-24l-244 305l-16 -18v-287h-74v287l-16 18l-244 -305h-94l288 356l-280 311h92l254 -286v286z" />
    <glyph glyph-name="uni0497" unicode="&#x497;" horiz-adv-x="596" 
d="M262 415h72v-170l156 170h84l-180 -192l140 -157h58v-176h-66v110h-24l-154 175l-14 -14v-161h-72v161l-14 14l-154 -175h-90l198 223l-180 192h84l156 -170v170z" />
    <glyph glyph-name="uni0498" unicode="&#x498;" horiz-adv-x="576" 
d="M157 536l-57 45c29 43 65 65 78 72c37 20 74 25 109 25c37 0 100 -4 149 -51c26 -25 48 -64 48 -118c0 -34 -9 -64 -27 -89c-14 -19 -35 -40 -65 -53c48 -11 77 -37 87 -47c28 -28 47 -67 47 -122c0 -59 -24 -109 -56 -143c-27 -28 -74 -60 -142 -65v-150h-70v150
c-46 4 -91 19 -135 57c-26 22 -54 55 -73 101l72 32c14 -39 36 -63 47 -73c35 -34 78 -49 128 -49c55 0 93 19 115 40c17 17 38 48 38 99c0 29 -8 62 -36 88c-39 36 -96 39 -142 39h-60v70h60c20 0 68 2 101 31c17 14 35 41 35 82c0 34 -14 57 -27 70c-26 26 -62 31 -90 31
c-30 0 -59 -5 -88 -25c-10 -7 -29 -21 -46 -47z" />
    <glyph glyph-name="uni0499" unicode="&#x499;" horiz-adv-x="422" 
d="M122 309l-50 41c14 20 33 40 53 52c32 20 65 23 95 23s64 -4 94 -29c26 -22 36 -50 36 -81c0 -9 -1 -33 -14 -54c-7 -12 -18 -23 -33 -31c20 -5 37 -16 48 -27c13 -13 29 -37 29 -77c0 -38 -14 -67 -38 -92c-30 -31 -61 -42 -95 -44v-110h-66v110c-38 3 -66 19 -84 33
c-23 18 -43 47 -55 71l62 26c8 -17 21 -35 37 -47c20 -15 42 -21 68 -21c22 0 50 4 68 15c16 10 31 28 31 59c0 20 -7 36 -25 48c-20 13 -44 14 -68 14h-42v66h35c10 0 38 1 54 11c13 9 22 25 22 39c0 16 -8 33 -18 42c-16 13 -41 15 -56 15c-24 0 -35 -3 -54 -16
c-14 -10 -25 -20 -34 -36z" />
    <glyph glyph-name="uni049A" unicode="&#x49a;" 
d="M86 667h74v-286l284 286h100l-312 -311l259 -286h63v-210h-70v140h-32l-273 306l-19 -19v-287h-74v667z" />
    <glyph glyph-name="uni049B" unicode="&#x49b;" horiz-adv-x="422" 
d="M68 415h72v-170l168 170h88l-180 -185l144 -164h58v-176h-66v110h-28l-162 182l-22 -21v-161h-72v415z" />
    <glyph glyph-name="uni049C" unicode="&#x49c;" horiz-adv-x="644" 
d="M86 667h74v-291h80v140h66v-140l233 291h82l-255 -315l264 -352h-88l-236 310v-150h-66v150h-80v-310h-74v667z" />
    <glyph glyph-name="uni049D" unicode="&#x49d;" horiz-adv-x="450" 
d="M68 415h72v-170h50v100h60v-100l109 170h78l-131 -199l140 -216h-80l-116 185v-110h-60v110h-50v-185h-72v415z" />
    <glyph glyph-name="uni04A0" unicode="&#x4a0;" horiz-adv-x="656" 
d="M174 0v597h-160v70h234v-286l284 286h100l-312 -311l322 -356h-102l-273 306l-19 -19v-287h-74z" />
    <glyph glyph-name="uni04A1" unicode="&#x4a1;" horiz-adv-x="452" 
d="M98 0v349h-90v66h162v-170l168 170h88l-180 -185l202 -230h-94l-162 182l-22 -21v-161h-72z" />
    <glyph glyph-name="uni04A2" unicode="&#x4a2;" horiz-adv-x="666" 
d="M86 0v667h74v-271h342v271h74v-597h76v-210h-70v140h-80v326h-342v-326h-74z" />
    <glyph glyph-name="uni04A3" unicode="&#x4a3;" horiz-adv-x="484" 
d="M68 0v415h72v-170h196v170h72v-349h68v-176h-66v110h-74v179h-196v-179h-72z" />
    <glyph glyph-name="uni04A4" unicode="&#x4a4;" horiz-adv-x="820" 
d="M86 0v667h74v-271h342v271h304v-70h-230v-597h-74v326h-342v-326h-74z" />
    <glyph glyph-name="uni04A5" unicode="&#x4a5;" horiz-adv-x="586" 
d="M68 0v415h72v-170h196v170h246v-66h-174v-349h-72v179h-196v-179h-72z" />
    <glyph glyph-name="uni04AA" unicode="&#x4aa;" horiz-adv-x="646" 
d="M596 612v-92c-21 21 -53 46 -87 62s-77 26 -115 26c-73 0 -143 -31 -190 -78c-42 -43 -78 -111 -78 -200c0 -91 35 -152 76 -193c52 -52 123 -79 193 -79c37 0 74 7 114 26c42 20 70 45 87 61v-92c-29 -22 -79 -51 -163 -63v-150h-70v150c-64 4 -144 25 -217 99
c-63 64 -96 143 -96 242c0 108 43 190 94 244c57 60 143 103 255 103c101 0 163 -38 197 -66z" />
    <glyph glyph-name="uni04AB" unicode="&#x4ab;" horiz-adv-x="438" 
d="M393 385v-86c-38 47 -93 62 -130 62c-35 0 -77 -14 -106 -43c-35 -35 -41 -79 -41 -112c0 -40 9 -75 36 -105c29 -33 71 -49 113 -49c48 0 97 24 131 65v-86c-14 -12 -44 -35 -94 -40v-111h-66v110c-64 5 -108 34 -135 61c-43 43 -59 95 -59 153c0 78 32 128 61 157
c39 39 101 64 164 64c29 0 79 -7 126 -40z" />
    <glyph glyph-name="uni04AE" unicode="&#x4ae;" horiz-adv-x="530" 
d="M227 0v287l-219 380h86l170 -298l172 298h86l-221 -380v-287h-74z" />
    <glyph glyph-name="uni04AF" unicode="&#x4af;" horiz-adv-x="424" 
d="M8 415h80l124 -280l124 280h80l-168 -364v-281h-72v281z" />
    <glyph glyph-name="uni04B0" unicode="&#x4b0;" horiz-adv-x="530" 
d="M227 0v221h-190v66h190l-219 380h86l170 -298l172 298h86l-221 -380h190v-66h-190v-221h-74z" />
    <glyph glyph-name="uni04B1" unicode="&#x4b1;" horiz-adv-x="424" 
d="M8 415h80l124 -280l124 280h80l-168 -364v-51h120v-66h-120v-164h-72v164h-120v66h120v51z" />
    <glyph glyph-name="uni04B2" unicode="&#x4b2;" horiz-adv-x="520" 
d="M14 0l197 345l-179 322h84l138 -251l142 251h84l-183 -322l154 -275h55v-210h-70v140h-30l-153 274l-155 -274h-84z" />
    <glyph glyph-name="uni04B3" unicode="&#x4b3;" horiz-adv-x="454" 
d="M8 0l177 222l-151 193h88l107 -141l109 141h88l-152 -194l121 -155h51v-176h-66v110h-22l-131 169l-131 -169h-88z" />
    <glyph glyph-name="uni04B6" unicode="&#x4b6;" horiz-adv-x="594" 
d="M430 0v286c-40 -3 -103 -7 -138 -7c-83 0 -133 11 -165 36c-56 43 -61 110 -61 155v197h74v-187c0 -26 0 -81 40 -110c24 -18 64 -21 116 -21c57 0 102 4 134 7v311h74v-597h76v-210h-70v140h-80z" />
    <glyph glyph-name="uni04B7" unicode="&#x4b7;" horiz-adv-x="438" 
d="M290 0v163c-26 -4 -69 -9 -98 -9c-21 0 -69 1 -101 30c-28 25 -35 62 -35 102v129h72v-119c0 -15 2 -37 9 -49c13 -25 41 -27 63 -27c27 0 59 3 90 9v186h72v-349h68v-176h-66v110h-74z" />
    <glyph glyph-name="uni04B8" unicode="&#x4b8;" horiz-adv-x="620" 
d="M460 0v286c-34 -2 -52 -3 -116 -6v-140h-66v139c-19 0 -104 0 -151 36c-56 42 -61 111 -61 155v197h74v-187c0 -25 0 -81 40 -110c25 -19 76 -22 98 -21v147h66v-146c63 2 90 4 116 6v311h74v-667h-74z" />
    <glyph glyph-name="uni04B9" unicode="&#x4b9;" horiz-adv-x="460" 
d="M320 0v163c-20 -4 -41 -6 -64 -6v-102h-60v99c-31 -2 -79 7 -105 30c-28 24 -35 62 -35 102v129h72v-119c0 -14 2 -38 9 -49c9 -15 31 -27 59 -26v104h60v-103c23 0 44 3 64 7v186h72v-415h-72z" />
    <glyph glyph-name="uni04BA" unicode="&#x4ba;" horiz-adv-x="590" 
d="M160 667v-266c40 3 103 7 138 7c83 0 133 -11 165 -36c56 -43 61 -110 61 -155v-217h-74v207c0 26 0 81 -40 110c-24 18 -64 21 -116 21c-57 0 -102 -4 -134 -7v-331h-74v667h74z" />
    <glyph glyph-name="uni04BB" unicode="&#x4bb;" horiz-adv-x="470" 
d="M68 0v729h72v-362c13 17 50 58 119 58c49 0 94 -20 119 -57c21 -31 24 -65 24 -111v-257h-72v255c0 25 -2 54 -19 76c-14 18 -36 30 -68 30c-25 0 -52 -7 -73 -32c-28 -33 -30 -82 -30 -112v-217h-72z" />
    <glyph glyph-name="uni04C0" unicode="&#x4c0;" horiz-adv-x="246" 
d="M86 667h74v-667h-74v667z" />
    <glyph glyph-name="uni04C1" unicode="&#x4c1;" horiz-adv-x="810" 
d="M368 667h74v-286l254 286h92l-280 -311l288 -356h-94l-244 305l-16 -18v-287h-74v287l-16 18l-244 -305h-94l288 356l-280 311h92l254 -286v286zM250 818l70 23c16 -55 77 -56 85 -56s69 1 85 56l70 -23c-6 -17 -41 -97 -155 -97s-149 80 -155 97z" />
    <glyph glyph-name="uni04C2" unicode="&#x4c2;" horiz-adv-x="596" 
d="M262 415h72v-170l156 170h84l-180 -192l198 -223h-90l-154 175l-14 -14v-161h-72v161l-14 14l-154 -175h-90l198 223l-180 192h84l156 -170v170zM153 594l60 23c10 -34 38 -60 85 -60s75 26 85 60l60 -23c-21 -59 -75 -97 -145 -97s-124 38 -145 97z" />
    <glyph glyph-name="uni04C3" unicode="&#x4c3;" horiz-adv-x="584" 
d="M86 667h74v-306l284 306h100l-260 -272c67 0 134 -13 182 -61c63 -62 76 -161 76 -226c0 -57 -11 -154 -67 -212c-47 -49 -108 -56 -151 -56c-44 0 -78 8 -111 21l21 71c28 -16 54 -22 86 -22c28 0 66 5 96 33c31 30 51 86 51 158c0 42 -6 143 -70 193
c-31 24 -77 36 -123 36c-34 0 -82 -6 -114 -13v-317h-74v667z" />
    <glyph glyph-name="uni04C4" unicode="&#x4c4;" horiz-adv-x="414" 
d="M68 415h72v-170l168 170h88l-182 -185c43 -3 92 -20 123 -51c26 -26 51 -70 51 -135c0 -68 -25 -136 -79 -186c-29 -27 -77 -59 -146 -66v70c29 4 63 16 96 48s53 72 53 128c0 54 -21 86 -39 102c-30 26 -74 30 -103 30h-30v-170h-72v415z" />
    <glyph glyph-name="uni04C7" unicode="&#x4c7;" horiz-adv-x="662" 
d="M86 0v667h74v-271h342v271h74v-753c0 -32 -2 -81 -34 -113c-17 -17 -45 -31 -89 -31c-19 0 -35 2 -53 9v72c15 -7 30 -9 42 -9c16 0 34 4 44 13c15 14 16 37 16 55v416h-342v-326h-74z" />
    <glyph glyph-name="uni04C8" unicode="&#x4c8;" horiz-adv-x="476" 
d="M68 0v415h72v-170h196v170h72v-501c0 -43 -4 -79 -32 -109c-26 -27 -56 -35 -91 -35c-20 0 -35 3 -51 9v70c14 -5 31 -9 47 -9c25 0 39 11 46 22c8 13 9 32 9 60v257h-196v-179h-72z" />
    <glyph glyph-name="uni04D0" unicode="&#x4d0;" horiz-adv-x="622" 
d="M532 0l-78 188h-284l-80 -188h-82l307 699l299 -699h-82zM199 258h226l-112 267zM160 818l70 23c16 -55 77 -56 85 -56s69 1 85 56l70 -23c-6 -17 -41 -97 -155 -97s-149 80 -155 97z" />
    <glyph glyph-name="uni04D1" unicode="&#x4d1;" horiz-adv-x="526" 
d="M386 356v59h72v-415h-72v58c-24 -31 -69 -70 -142 -70c-105 0 -202 74 -202 220c0 143 96 217 202 217c80 0 123 -44 142 -69zM252 361c-71 0 -136 -52 -136 -153c0 -89 50 -156 136 -156c88 0 138 73 138 155c0 107 -74 154 -138 154zM109 594l60 23
c10 -34 38 -60 85 -60s75 26 85 60l60 -23c-21 -59 -75 -97 -145 -97s-124 38 -145 97z" />
    <glyph glyph-name="uni04D2" unicode="&#x4d2;" horiz-adv-x="622" 
d="M532 0l-78 188h-284l-80 -188h-82l307 699l299 -699h-82zM199 258h226l-112 267zM169 784c0 28 23 51 51 51s51 -23 51 -51s-23 -51 -51 -51s-51 23 -51 51zM359 784c0 28 23 51 51 51s51 -23 51 -51s-23 -51 -51 -51s-51 23 -51 51z" />
    <glyph glyph-name="uni04D3" unicode="&#x4d3;" horiz-adv-x="526" 
d="M386 356v59h72v-415h-72v58c-24 -31 -69 -70 -142 -70c-105 0 -202 74 -202 220c0 143 96 217 202 217c80 0 123 -44 142 -69zM252 361c-71 0 -136 -52 -136 -153c0 -89 50 -156 136 -156c88 0 138 73 138 155c0 107 -74 154 -138 154zM103 550c0 27 23 50 50 50
s50 -23 50 -50s-23 -50 -50 -50s-50 23 -50 50zM277 550c0 27 23 50 50 50s50 -23 50 -50s-23 -50 -50 -50s-50 23 -50 50z" />
    <glyph glyph-name="uni04D4" unicode="&#x4d4;" horiz-adv-x="900" 
d="M538 0l-79 187h-284l-79 -187h-82l297 667h293l29 -70h-269l83 -198h264l29 -70h-262l108 -259h271l29 -70h-348zM207 257h223l-110 261z" />
    <glyph glyph-name="uni04D5" unicode="&#x4d5;" horiz-adv-x="774" 
d="M667 140l60 -36c-28 -53 -83 -116 -187 -116c-35 0 -110 5 -163 83c-42 -74 -113 -83 -156 -83c-97 0 -179 44 -179 135c0 89 77 137 173 137c50 0 87 -12 119 -35c1 24 -3 62 -19 88c-21 36 -56 48 -99 48c-48 0 -103 -17 -128 -26v68c55 18 95 22 129 22
c46 0 121 -8 157 -84c34 55 93 84 160 84c121 0 198 -89 198 -225v-7h-324c3 -82 60 -141 131 -141c58 0 104 40 128 88zM413 253h245c-9 68 -61 108 -123 108c-60 0 -111 -39 -122 -108zM221 196c-71 0 -107 -33 -107 -73c0 -30 22 -71 105 -71s111 42 111 74
c0 29 -27 70 -109 70z" />
    <glyph glyph-name="uni04D6" unicode="&#x4d6;" horiz-adv-x="482" 
d="M432 667v-70h-272v-198h264v-70h-264v-259h272v-70h-346v667h346zM105 818l70 23c16 -55 77 -56 85 -56s69 1 85 56l70 -23c-6 -17 -41 -97 -155 -97s-149 80 -155 97z" />
    <glyph glyph-name="uni04D7" unicode="&#x4d7;" horiz-adv-x="481" 
d="M376 139l60 -33c-12 -23 -30 -48 -51 -67c-38 -34 -85 -51 -138 -51c-100 0 -205 63 -205 217c0 124 76 220 201 220c81 0 132 -40 157 -76c26 -37 41 -101 39 -156h-323c1 -86 60 -141 132 -141c34 0 61 10 85 30c19 16 34 37 43 57zM121 253h244
c-12 65 -61 108 -122 108s-111 -46 -122 -108zM96 594l60 23c10 -34 38 -60 85 -60s75 26 85 60l60 -23c-21 -59 -75 -97 -145 -97s-124 38 -145 97z" />
    <glyph glyph-name="uni04D8" unicode="&#x4d8;" horiz-adv-x="756" 
d="M132 483l-55 50c19 26 47 56 77 79c65 50 140 66 204 66c199 0 348 -151 348 -345s-147 -345 -344 -345c-118 0 -202 57 -248 120c-42 57 -64 137 -64 211v16h580c0 149 -111 273 -273 273c-80 0 -130 -29 -162 -56c-22 -18 -44 -42 -63 -69zM623 265h-497
c2 -42 15 -74 27 -95c38 -68 115 -112 204 -112c129 0 239 87 266 207z" />
    <glyph glyph-name="afii10846" unicode="&#x4d9;" horiz-adv-x="482" 
d="M105 274l-60 33c12 23 30 48 51 67c44 40 95 51 138 51c100 0 206 -63 206 -217c0 -124 -76 -220 -202 -220c-81 0 -132 40 -158 76c-29 41 -42 103 -38 156h324c-1 86 -60 141 -133 141c-34 0 -61 -9 -85 -30c-19 -16 -34 -37 -43 -57zM360 160h-244
c10 -64 58 -108 122 -108c61 0 111 46 122 108z" />
    <glyph glyph-name="uni04DA" unicode="&#x4da;" horiz-adv-x="756" 
d="M132 483l-55 50c19 26 47 56 77 79c65 50 140 66 204 66c199 0 348 -151 348 -345s-147 -345 -344 -345c-118 0 -202 57 -248 120c-42 57 -64 137 -64 211v16h580c0 149 -111 273 -273 273c-80 0 -130 -29 -162 -56c-22 -18 -44 -42 -63 -69zM623 265h-497
c2 -42 15 -74 27 -95c38 -68 115 -112 204 -112c129 0 239 87 266 207zM214 784c0 28 23 51 51 51s51 -23 51 -51s-23 -51 -51 -51s-51 23 -51 51zM404 784c0 28 23 51 51 51s51 -23 51 -51s-23 -51 -51 -51s-51 23 -51 51z" />
    <glyph glyph-name="uni04DB" unicode="&#x4db;" horiz-adv-x="482" 
d="M105 274l-60 33c12 23 30 48 51 67c44 40 95 51 138 51c100 0 206 -63 206 -217c0 -124 -76 -220 -202 -220c-81 0 -132 40 -158 76c-29 41 -42 103 -38 156h324c-1 86 -60 141 -133 141c-34 0 -61 -9 -85 -30c-19 -16 -34 -37 -43 -57zM360 160h-244
c10 -64 58 -108 122 -108c61 0 111 46 122 108zM105 550c0 27 23 50 50 50s50 -23 50 -50s-23 -50 -50 -50s-50 23 -50 50zM279 550c0 27 23 50 50 50s50 -23 50 -50s-23 -50 -50 -50s-50 23 -50 50z" />
    <glyph glyph-name="uni04DC" unicode="&#x4dc;" horiz-adv-x="810" 
d="M368 667h74v-286l254 286h92l-280 -311l288 -356h-94l-244 305l-16 -18v-287h-74v287l-16 18l-244 -305h-94l288 356l-280 311h92l254 -286v286zM259 784c0 28 23 51 51 51s51 -23 51 -51s-23 -51 -51 -51s-51 23 -51 51zM449 784c0 28 23 51 51 51s51 -23 51 -51
s-23 -51 -51 -51s-51 23 -51 51z" />
    <glyph glyph-name="uni04DD" unicode="&#x4dd;" horiz-adv-x="596" 
d="M262 415h72v-170l156 170h84l-180 -192l198 -223h-90l-154 175l-14 -14v-161h-72v161l-14 14l-154 -175h-90l198 223l-180 192h84l156 -170v170zM161 550c0 27 23 50 50 50s50 -23 50 -50s-23 -50 -50 -50s-50 23 -50 50zM335 550c0 27 23 50 50 50s50 -23 50 -50
s-23 -50 -50 -50s-50 23 -50 50z" />
    <glyph glyph-name="uni04DE" unicode="&#x4de;" horiz-adv-x="576" 
d="M157 536l-57 45c54 80 126 97 191 97c34 0 95 -5 141 -47c29 -26 52 -68 52 -123c0 -68 -40 -117 -92 -141c89 -20 134 -91 134 -172c0 -83 -42 -134 -83 -163c-42 -29 -98 -44 -152 -44c-132 0 -207 82 -241 160l72 32c27 -75 92 -122 172 -122c36 0 74 9 102 28
c43 30 54 71 54 107c0 122 -113 131 -178 131h-60v70h60c93 0 136 52 136 113c0 29 -11 54 -27 70c-26 27 -64 31 -90 31c-48 0 -94 -14 -134 -72zM144 784c0 28 23 51 51 51s51 -23 51 -51s-23 -51 -51 -51s-51 23 -51 51zM334 784c0 28 23 51 51 51s51 -23 51 -51
s-23 -51 -51 -51s-51 23 -51 51z" />
    <glyph glyph-name="uni04DF" unicode="&#x4df;" horiz-adv-x="422" 
d="M122 309l-50 41c14 20 33 40 53 52c32 19 64 23 91 23c33 0 67 -3 98 -29c27 -23 36 -50 36 -79c0 -49 -26 -74 -47 -87c21 -5 38 -16 48 -27c17 -18 29 -44 29 -76c0 -43 -20 -82 -54 -107c-30 -22 -73 -32 -118 -32c-37 0 -76 8 -111 35c-24 18 -43 45 -55 71l62 26
c4 -10 14 -30 37 -47s46 -21 68 -21c16 0 48 1 70 16c14 9 29 28 29 58c0 23 -11 39 -25 48c-21 14 -49 14 -68 14h-42v66h35c33 0 48 7 54 11c11 7 22 19 22 38c0 18 -7 34 -18 43c-17 15 -40 15 -53 15c-16 0 -36 -3 -57 -16c-11 -7 -24 -18 -34 -36zM83 550
c0 27 23 50 50 50s50 -23 50 -50s-23 -50 -50 -50s-50 23 -50 50zM257 550c0 27 23 50 50 50s50 -23 50 -50s-23 -50 -50 -50s-50 23 -50 50z" />
    <glyph glyph-name="uni04E2" unicode="&#x4e2;" horiz-adv-x="710" 
d="M550 0v509l-464 -539v697h74v-511l464 539v-695h-74zM200 733v64h320v-64h-320z" />
    <glyph glyph-name="uni04E3" unicode="&#x4e3;" horiz-adv-x="492" 
d="M68 415h72v-274l284 306v-447h-72v277l-284 -306v444zM95 513v60h302v-60h-302z" />
    <glyph glyph-name="uni04E4" unicode="&#x4e4;" horiz-adv-x="710" 
d="M550 0v509l-464 -539v697h74v-511l464 539v-695h-74zM214 784c0 28 23 51 51 51s51 -23 51 -51s-23 -51 -51 -51s-51 23 -51 51zM404 784c0 28 23 51 51 51s51 -23 51 -51s-23 -51 -51 -51s-51 23 -51 51z" />
    <glyph glyph-name="uni04E5" unicode="&#x4e5;" horiz-adv-x="492" 
d="M68 415h72v-274l284 306v-447h-72v277l-284 -306v444zM109 550c0 27 23 50 50 50s50 -23 50 -50s-23 -50 -50 -50s-50 23 -50 50zM283 550c0 27 23 50 50 50s50 -23 50 -50s-23 -50 -50 -50s-50 23 -50 50z" />
    <glyph glyph-name="uni04E6" unicode="&#x4e6;" horiz-adv-x="794" 
d="M397 -12c-193 0 -347 147 -347 345c0 199 155 345 347 345s347 -146 347 -345c0 -198 -154 -345 -347 -345zM397 608c-150 0 -271 -122 -271 -275s121 -275 271 -275s271 122 271 275s-121 275 -271 275zM251 784c0 28 23 51 51 51s51 -23 51 -51s-23 -51 -51 -51
s-51 23 -51 51zM441 784c0 28 23 51 51 51s51 -23 51 -51s-23 -51 -51 -51s-51 23 -51 51z" />
    <glyph glyph-name="uni04E7" unicode="&#x4e7;" horiz-adv-x="524" 
d="M262 -12c-126 0 -220 92 -220 218s93 219 220 219s220 -93 220 -219s-94 -218 -220 -218zM262 361c-76 0 -146 -54 -146 -155c0 -102 72 -154 146 -154c75 0 146 53 146 154c0 102 -70 155 -146 155zM125 550c0 27 23 50 50 50s50 -23 50 -50s-23 -50 -50 -50
s-50 23 -50 50zM299 550c0 27 23 50 50 50s50 -23 50 -50s-23 -50 -50 -50s-50 23 -50 50z" />
    <glyph glyph-name="uni04E8" unicode="&#x4e8;" horiz-adv-x="792" 
d="M396 -12c-192 0 -346 147 -346 345c0 199 154 345 346 345s346 -146 346 -345c0 -198 -154 -345 -346 -345zM129 380h534c-25 148 -151 228 -267 228s-242 -80 -267 -228zM666 310h-540c14 -153 137 -252 270 -252s256 99 270 252z" />
    <glyph glyph-name="uni04E9" unicode="&#x4e9;" horiz-adv-x="524" 
d="M262 -12c-126 0 -220 92 -220 218s93 219 220 219s220 -93 220 -219s-94 -218 -220 -218zM120 244h284c-14 77 -78 117 -142 117s-128 -40 -142 -117zM406 180h-288c7 -79 74 -128 144 -128c72 0 136 50 144 128z" />
    <glyph glyph-name="uni04EA" unicode="&#x4ea;" horiz-adv-x="792" 
d="M396 -12c-192 0 -346 147 -346 345c0 199 154 345 346 345s346 -146 346 -345c0 -198 -154 -345 -346 -345zM129 380h534c-25 148 -151 228 -267 228s-242 -80 -267 -228zM666 310h-540c14 -153 137 -252 270 -252s256 99 270 252zM251 784c0 28 23 51 51 51
s51 -23 51 -51s-23 -51 -51 -51s-51 23 -51 51zM441 784c0 28 23 51 51 51s51 -23 51 -51s-23 -51 -51 -51s-51 23 -51 51z" />
    <glyph glyph-name="uni04EB" unicode="&#x4eb;" horiz-adv-x="524" 
d="M262 -12c-126 0 -220 92 -220 218s93 219 220 219s220 -93 220 -219s-94 -218 -220 -218zM120 244h284c-14 77 -78 117 -142 117s-128 -40 -142 -117zM406 180h-288c7 -79 74 -128 144 -128c72 0 136 50 144 128zM125 550c0 27 23 50 50 50s50 -23 50 -50
s-23 -50 -50 -50s-50 23 -50 50zM299 550c0 27 23 50 50 50s50 -23 50 -50s-23 -50 -50 -50s-50 23 -50 50z" />
    <glyph glyph-name="uni04EE" unicode="&#x4ee;" 
d="M8 667h90l208 -393l174 393h80l-301 -667h-80l85 186zM135 733v64h320v-64h-320z" />
    <glyph glyph-name="uni04EF" unicode="&#x4ef;" horiz-adv-x="460" 
d="M67 -230l132 269l-191 376h82l147 -297l135 297h80l-305 -645h-80zM79 513v60h302v-60h-302z" />
    <glyph glyph-name="uni04F0" unicode="&#x4f0;" 
d="M8 667h90l208 -393l174 393h80l-301 -667h-80l85 186zM149 784c0 28 23 51 51 51s51 -23 51 -51s-23 -51 -51 -51s-51 23 -51 51zM339 784c0 28 23 51 51 51s51 -23 51 -51s-23 -51 -51 -51s-51 23 -51 51z" />
    <glyph glyph-name="uni04F1" unicode="&#x4f1;" horiz-adv-x="460" 
d="M67 -230l132 269l-191 376h82l147 -297l135 297h80l-305 -645h-80zM103 550c0 27 23 50 50 50s50 -23 50 -50s-23 -50 -50 -50s-50 23 -50 50zM277 550c0 27 23 50 50 50s50 -23 50 -50s-23 -50 -50 -50s-50 23 -50 50z" />
    <glyph glyph-name="uni04F2" unicode="&#x4f2;" 
d="M8 667h90l208 -393l174 393h80l-301 -667h-80l85 186zM288 882l70 -40l-147 -122l-43 26zM438 882l70 -40l-147 -122l-43 26z" />
    <glyph glyph-name="uni04F3" unicode="&#x4f3;" horiz-adv-x="460" 
d="M67 -230l132 269l-191 376h82l147 -297l135 297h80l-305 -645h-80zM230 666l72 -32l-137 -136l-41 23zM364 666l70 -32l-135 -136l-41 23z" />
    <glyph glyph-name="uni04F4" unicode="&#x4f4;" horiz-adv-x="590" 
d="M430 0v286c-40 -3 -103 -7 -138 -7c-83 0 -133 11 -165 36c-56 43 -61 110 -61 155v197h74v-187c0 -26 0 -81 40 -110c24 -18 64 -21 116 -21c57 0 102 4 134 7v311h74v-667h-74zM144 784c0 28 23 51 51 51s51 -23 51 -51s-23 -51 -51 -51s-51 23 -51 51zM334 784
c0 28 23 51 51 51s51 -23 51 -51s-23 -51 -51 -51s-51 23 -51 51z" />
    <glyph glyph-name="uni04F5" unicode="&#x4f5;" horiz-adv-x="430" 
d="M290 0v163c-26 -4 -69 -9 -98 -9c-21 0 -69 1 -101 30c-28 25 -35 62 -35 102v129h72v-119c0 -15 2 -37 9 -49c13 -25 41 -27 63 -27c27 0 59 3 90 9v186h72v-415h-72zM73 550c0 27 23 50 50 50s50 -23 50 -50s-23 -50 -50 -50s-50 23 -50 50zM247 550c0 27 23 50 50 50
s50 -23 50 -50s-23 -50 -50 -50s-50 23 -50 50z" />
    <glyph glyph-name="uni04F8" unicode="&#x4f8;" horiz-adv-x="710" 
d="M86 0v667h74v-277h90c82 0 230 -17 230 -188c0 -127 -85 -202 -216 -202h-178zM160 320v-250h86c30 0 85 0 123 37c18 17 35 47 35 95c0 32 -8 76 -54 101c-31 17 -71 17 -112 17h-78zM550 667h74v-667h-74v667zM209 784c0 28 23 51 51 51s51 -23 51 -51s-23 -51 -51 -51
s-51 23 -51 51zM399 784c0 28 23 51 51 51s51 -23 51 -51s-23 -51 -51 -51s-51 23 -51 51z" />
    <glyph glyph-name="uni04F9" unicode="&#x4f9;" horiz-adv-x="562" 
d="M68 0v415h72v-159h74c37 0 89 -3 126 -41c16 -16 32 -45 32 -87c0 -45 -19 -76 -37 -93c-36 -34 -81 -35 -122 -35h-145zM140 64h67c24 0 47 1 64 11c9 6 27 21 27 53c0 18 -5 39 -26 52c-18 12 -41 12 -64 12h-68v-128zM422 0v415h72v-415h-72zM144 550
c0 27 23 50 50 50s50 -23 50 -50s-23 -50 -50 -50s-50 23 -50 50zM318 550c0 27 23 50 50 50s50 -23 50 -50s-23 -50 -50 -50s-50 23 -50 50z" />
    <glyph glyph-name="uni2010" unicode="&#x2010;" horiz-adv-x="320" 
d="M50 176v74h220v-74h-220z" />
    <glyph glyph-name="uni2011" unicode="&#x2011;" horiz-adv-x="320" 
d="M50 176v74h220v-74h-220z" />
    <glyph glyph-name="figuredash" unicode="&#x2012;" horiz-adv-x="580" 
d="M70 307v64h440v-64h-440z" />
    <glyph glyph-name="endash" unicode="&#x2013;" horiz-adv-x="580" 
d="M70 181v64h440v-64h-440z" />
    <glyph glyph-name="emdash" unicode="&#x2014;" horiz-adv-x="800" 
d="M70 181v64h660v-64h-660z" />
    <glyph glyph-name="afii00208" unicode="&#x2015;" horiz-adv-x="800" 
d="M70 181v64h660v-64h-660z" />
    <glyph glyph-name="quoteleft" unicode="&#x2018;" horiz-adv-x="264" 
d="M206 667l-83 -231l-65 24l101 226z" />
    <glyph glyph-name="quoteright" unicode="&#x2019;" horiz-adv-x="264" 
d="M58 460l81 231l67 -24l-101 -226z" />
    <glyph glyph-name="quotesinglbase" unicode="&#x201a;" horiz-adv-x="308" 
d="M58 -133l81 231l67 -24l-101 -226z" />
    <glyph glyph-name="quotedblleft" unicode="&#x201c;" horiz-adv-x="410" 
d="M206 667l-83 -231l-65 24l101 226zM352 667l-81 -231l-67 24l101 226z" />
    <glyph glyph-name="quotedblright" unicode="&#x201d;" horiz-adv-x="410" 
d="M58 460l81 231l67 -24l-101 -226zM204 460l83 231l65 -24l-101 -226z" />
    <glyph glyph-name="quotedblbase" unicode="&#x201e;" horiz-adv-x="454" 
d="M58 -133l81 231l67 -24l-101 -226zM204 -133l83 231l65 -24l-101 -226z" />
    <glyph glyph-name="dagger" unicode="&#x2020;" 
d="M248 503v226h72v-226h148v-68h-148v-605h-72v605h-148v68h148z" />
    <glyph glyph-name="daggerdbl" unicode="&#x2021;" 
d="M248 503v226h72v-226h148v-68h-148v-277h148v-68h-148v-266h-72v266h-148v68h148v277h-148v68h148z" />
    <glyph glyph-name="bullet" unicode="&#x2022;" horiz-adv-x="1000" 
d="M360 340c0 77 63 140 140 140s140 -63 140 -140s-63 -140 -140 -140s-140 63 -140 140z" />
    <glyph glyph-name="ellipsis" unicode="&#x2026;" horiz-adv-x="746" 
d="M75 40c0 27 23 50 50 50s50 -23 50 -50s-23 -50 -50 -50s-50 23 -50 50zM323 40c0 27 23 50 50 50s50 -23 50 -50s-23 -50 -50 -50s-50 23 -50 50zM571 40c0 27 23 50 50 50s50 -23 50 -50s-23 -50 -50 -50s-50 23 -50 50z" />
    <glyph glyph-name="perthousand" unicode="&#x2030;" horiz-adv-x="1060" 
d="M178 673c81 0 145 -64 145 -145s-64 -145 -145 -145s-145 64 -145 145s64 145 145 145zM178 438c49 0 85 41 85 90s-36 90 -85 90c-47 0 -85 -40 -85 -90s38 -90 85 -90zM141 10l389 670l39 -22l-389 -671zM532 283c81 0 145 -64 145 -145s-64 -145 -145 -145
s-145 64 -145 145s64 145 145 145zM532 48c49 0 85 41 85 90s-36 90 -85 90c-47 0 -85 -40 -85 -90s38 -90 85 -90zM882 283c81 0 145 -64 145 -145s-64 -145 -145 -145s-145 64 -145 145s64 145 145 145zM882 48c49 0 85 41 85 90s-36 90 -85 90c-47 0 -85 -40 -85 -90
s38 -90 85 -90z" />
    <glyph glyph-name="guilsinglleft" unicode="&#x2039;" horiz-adv-x="282" 
d="M112 212l120 -146l-46 -36l-150 182l150 188l46 -37z" />
    <glyph glyph-name="guilsinglright" unicode="&#x203a;" horiz-adv-x="282" 
d="M170 218l-120 146l46 36l150 -182l-150 -188l-46 37z" />
    <glyph glyph-name="fraction" unicode="&#x2044;" horiz-adv-x="126" 
d="M-150 10l388 670l38 -22l-388 -671z" />
    <glyph glyph-name="uni2080" unicode="&#x2080;" horiz-adv-x="350" 
d="M175 -7c-33 0 -75 17 -106 60c-37 50 -41 112 -41 147c0 76 23 122 41 147c31 44 73 59 106 59s75 -15 106 -59c18 -25 41 -71 41 -147c0 -35 -4 -97 -41 -147c-31 -43 -73 -60 -106 -60zM175 360c-20 0 -47 -10 -67 -41c-22 -34 -28 -82 -28 -119c0 -32 4 -80 28 -118
c20 -31 47 -43 67 -43s47 12 67 43c22 34 28 79 28 118c0 37 -6 86 -28 119c-20 31 -47 41 -67 41z" />
    <glyph glyph-name="uni2081" unicode="&#x2081;" horiz-adv-x="350" 
d="M166 0v354h-78l24 46h106v-400h-52z" />
    <glyph glyph-name="uni2082" unicode="&#x2082;" horiz-adv-x="350" 
d="M297 0h-265l146 169c22 26 32 37 46 58c9 13 22 33 22 61c0 39 -28 72 -76 72c-24 0 -50 -9 -65 -34c-8 -14 -12 -32 -12 -48h-50c2 37 12 65 30 87c31 36 71 41 96 41c75 0 129 -48 129 -119c0 -27 -9 -52 -32 -85c-18 -26 -40 -50 -55 -67l-77 -89h163v-46z" />
    <glyph glyph-name="uni2083" unicode="&#x2083;" horiz-adv-x="350" 
d="M102 296h-50c1 20 7 45 19 64c27 42 72 46 97 46c91 0 116 -65 116 -107c0 -17 -5 -67 -52 -89c44 -17 58 -59 58 -97c0 -66 -47 -120 -127 -120c-66 0 -101 35 -115 69c-6 15 -9 33 -10 47h50c1 -16 7 -30 14 -40c11 -15 30 -30 59 -30c46 0 77 33 77 76
c0 34 -18 56 -39 65c-13 6 -31 8 -46 7v46c15 -1 34 2 46 8c17 9 33 29 33 57c0 31 -18 62 -64 62c-28 0 -43 -11 -51 -21c-9 -11 -14 -30 -15 -43z" />
    <glyph glyph-name="uni2084" unicode="&#x2084;" horiz-adv-x="350" 
d="M269 422v-311h49v-46h-49v-65h-50v65h-205zM104 111h115v164z" />
    <glyph glyph-name="uni2085" unicode="&#x2085;" horiz-adv-x="350" 
d="M297 400v-46h-134l-22 -81c8 1 17 2 25 2c86 0 134 -61 134 -136c0 -96 -76 -146 -153 -146c-34 0 -62 9 -90 31c-15 12 -26 24 -35 41l39 30c6 -11 14 -22 26 -32c20 -17 40 -24 62 -24c55 0 99 44 99 97c0 54 -42 93 -99 93c-15 0 -42 -2 -77 -28l58 199h167z" />
    <glyph glyph-name="uni2086" unicode="&#x2086;" horiz-adv-x="350" 
d="M202 413l42 -31l-92 -123c11 4 20 5 31 5c81 0 134 -57 134 -134c0 -79 -58 -137 -141 -137c-81 0 -143 56 -143 136c0 34 13 63 33 92zM175 39c61 0 90 49 90 90c0 51 -40 89 -91 89s-89 -39 -89 -89c0 -41 27 -90 90 -90z" />
    <glyph glyph-name="uni2087" unicode="&#x2087;" horiz-adv-x="350" 
d="M32 18l222 336h-214v46h300l-267 -410z" />
    <glyph glyph-name="uni2088" unicode="&#x2088;" horiz-adv-x="350" 
d="M109 208c-31 19 -48 50 -48 88c0 58 40 110 114 110s114 -52 114 -110c0 -38 -17 -69 -48 -88c42 -18 61 -57 61 -98c0 -64 -46 -117 -127 -117s-127 53 -127 117c0 41 19 80 61 98zM175 229c40 0 65 29 65 66c0 42 -29 65 -65 65s-65 -23 -65 -65c0 -37 25 -66 65 -66z
M175 185c-44 0 -75 -32 -75 -73c0 -43 31 -73 75 -73s75 30 75 73c0 41 -31 73 -75 73z" />
    <glyph glyph-name="uni2089" unicode="&#x2089;" horiz-adv-x="350" 
d="M148 -14l-42 31l92 123c-11 -4 -20 -5 -31 -5c-81 0 -134 57 -134 134c0 79 58 137 141 137c81 0 143 -56 143 -136c0 -34 -13 -63 -33 -92zM175 360c-61 0 -90 -49 -90 -90c0 -51 40 -89 91 -89s89 39 89 89c0 41 -27 90 -90 90z" />
    <glyph glyph-name="Euro" unicode="&#x20ac;" 
d="M528 622l-33 -67c-52 44 -112 53 -151 53c-138 0 -188 -112 -203 -168h319l-26 -66h-305c-4 -27 -4 -53 -1 -78h281l-26 -66h-244c19 -99 95 -172 207 -172c73 0 134 32 182 77v-92c-46 -31 -106 -55 -186 -55c-172 0 -265 114 -283 242h-67l26 66h34c-3 26 -3 52 1 78
h-61l26 66h43c26 121 121 238 288 238c39 0 106 -5 179 -56z" />
    <glyph glyph-name="uni20B4" unicode="&#x20b4;" 
d="M158 535l-59 39c24 31 52 55 79 71c43 26 80 33 127 33c33 0 75 -4 112 -36c32 -27 42 -60 42 -89c0 -43 -21 -84 -49 -113h93v-56h-138l-89 -88h227v-56h-278c-32 -30 -45 -68 -45 -100c0 -26 12 -45 25 -57c14 -13 37 -25 74 -25c40 0 71 14 97 38c21 20 39 50 49 74
l68 -30c-15 -41 -38 -72 -59 -92c-47 -46 -95 -60 -159 -60c-36 0 -82 6 -118 33c-29 23 -53 62 -53 114c0 28 8 67 39 105h-77v56h122l89 88h-211v56h262c34 30 57 61 57 95c0 19 -8 37 -22 50c-21 20 -49 23 -71 23c-35 0 -54 -7 -77 -22c-24 -15 -42 -32 -57 -51z" />
    <glyph glyph-name="uni20B6" unicode="&#x20b6;" 
d="M263 667c58 0 126 -5 177 -56c31 -31 52 -79 52 -134c0 -59 -22 -100 -50 -127c-53 -52 -124 -56 -161 -56h-65v-88h164v-56h-164v-150h-74v150h-76v56h76v88h-76v66h76v307h121zM216 597v-237h61c59 0 94 20 112 39c9 10 29 36 29 84c0 23 -4 52 -28 76
c-34 35 -86 38 -119 38h-55z" />
    <glyph glyph-name="uni20B7" unicode="&#x20b7;" 
d="M263 667c58 0 126 -5 177 -56c31 -31 52 -79 52 -134c0 -59 -22 -100 -50 -127c-53 -52 -124 -56 -161 -56h-65v-88h164v-56h-164v-150h-74v150h-76v56h76v88h-76v66h76v307h121zM216 597v-237h61c59 0 94 20 112 39c9 10 29 36 29 84c0 23 -4 52 -28 76
c-34 35 -86 38 -119 38h-55z" />
    <glyph glyph-name="uni20B8" unicode="&#x20b8;" 
d="M263 667c58 0 126 -5 177 -56c31 -31 52 -79 52 -134c0 -59 -22 -100 -50 -127c-53 -52 -124 -56 -161 -56h-65v-88h164v-56h-164v-150h-74v150h-76v56h76v88h-76v66h76v307h121zM216 597v-237h61c59 0 94 20 112 39c9 10 29 36 29 84c0 23 -4 52 -28 76
c-34 35 -86 38 -119 38h-55z" />
    <glyph glyph-name="uni20B9" unicode="&#x20b9;" 
d="M263 667c58 0 126 -5 177 -56c31 -31 52 -79 52 -134c0 -59 -22 -100 -50 -127c-53 -52 -124 -56 -161 -56h-65v-88h164v-56h-164v-150h-74v150h-76v56h76v88h-76v66h76v307h121zM216 597v-237h61c59 0 94 20 112 39c9 10 29 36 29 84c0 23 -4 52 -28 76
c-34 35 -86 38 -119 38h-55z" />
    <glyph glyph-name="uni20BA" unicode="&#x20ba;" 
d="M263 667c58 0 126 -5 177 -56c31 -31 52 -79 52 -134c0 -59 -22 -100 -50 -127c-53 -52 -124 -56 -161 -56h-65v-88h164v-56h-164v-150h-74v150h-76v56h76v88h-76v66h76v307h121zM216 597v-237h61c59 0 94 20 112 39c9 10 29 36 29 84c0 23 -4 52 -28 76
c-34 35 -86 38 -119 38h-55z" />
    <glyph glyph-name="uni20BB" unicode="&#x20bb;" 
d="M263 667c58 0 126 -5 177 -56c31 -31 52 -79 52 -134c0 -59 -22 -100 -50 -127c-53 -52 -124 -56 -161 -56h-65v-88h164v-56h-164v-150h-74v150h-76v56h76v88h-76v66h76v307h121zM216 597v-237h61c59 0 94 20 112 39c9 10 29 36 29 84c0 23 -4 52 -28 76
c-34 35 -86 38 -119 38h-55z" />
    <glyph glyph-name="uni20BC" unicode="&#x20bc;" 
d="M263 667c58 0 126 -5 177 -56c31 -31 52 -79 52 -134c0 -59 -22 -100 -50 -127c-53 -52 -124 -56 -161 -56h-65v-88h164v-56h-164v-150h-74v150h-76v56h76v88h-76v66h76v307h121zM216 597v-237h61c59 0 94 20 112 39c9 10 29 36 29 84c0 23 -4 52 -28 76
c-34 35 -86 38 -119 38h-55z" />
    <glyph glyph-name="uni20BD" unicode="&#x20bd;" 
d="M263 667c58 0 126 -5 177 -56c31 -31 52 -79 52 -134c0 -59 -22 -100 -50 -127c-53 -52 -124 -56 -161 -56h-65v-88h164v-56h-164v-150h-74v150h-76v56h76v88h-76v66h76v307h121zM216 597v-237h61c59 0 94 20 112 39c9 10 29 36 29 84c0 23 -4 52 -28 76
c-34 35 -86 38 -119 38h-55z" />
    <glyph glyph-name="uni20BE" unicode="&#x20be;" 
d="M263 667c58 0 126 -5 177 -56c31 -31 52 -79 52 -134c0 -59 -22 -100 -50 -127c-53 -52 -124 -56 -161 -56h-65v-88h164v-56h-164v-150h-74v150h-76v56h76v88h-76v66h76v307h121zM216 597v-237h61c59 0 94 20 112 39c9 10 29 36 29 84c0 23 -4 52 -28 76
c-34 35 -86 38 -119 38h-55z" />
    <glyph glyph-name="uni20BF" unicode="&#x20bf;" 
d="M263 667c58 0 126 -5 177 -56c31 -31 52 -79 52 -134c0 -59 -22 -100 -50 -127c-53 -52 -124 -56 -161 -56h-65v-88h164v-56h-164v-150h-74v150h-76v56h76v88h-76v66h76v307h121zM216 597v-237h61c59 0 94 20 112 39c9 10 29 36 29 84c0 23 -4 52 -28 76
c-34 35 -86 38 -119 38h-55z" />
    <glyph glyph-name="uni20C0" unicode="&#x20c0;" 
d="M263 667c58 0 126 -5 177 -56c31 -31 52 -79 52 -134c0 -59 -22 -100 -50 -127c-53 -52 -124 -56 -161 -56h-65v-88h164v-56h-164v-150h-74v150h-76v56h76v88h-76v66h76v307h121zM216 597v-237h61c59 0 94 20 112 39c9 10 29 36 29 84c0 23 -4 52 -28 76
c-34 35 -86 38 -119 38h-55z" />
    <glyph glyph-name="uni20C1" unicode="&#x20c1;" 
d="M263 667c58 0 126 -5 177 -56c31 -31 52 -79 52 -134c0 -59 -22 -100 -50 -127c-53 -52 -124 -56 -161 -56h-65v-88h164v-56h-164v-150h-74v150h-76v56h76v88h-76v66h76v307h121zM216 597v-237h61c59 0 94 20 112 39c9 10 29 36 29 84c0 23 -4 52 -28 76
c-34 35 -86 38 -119 38h-55z" />
    <glyph glyph-name="uni20C2" unicode="&#x20c2;" 
d="M263 667c58 0 126 -5 177 -56c31 -31 52 -79 52 -134c0 -59 -22 -100 -50 -127c-53 -52 -124 -56 -161 -56h-65v-88h164v-56h-164v-150h-74v150h-76v56h76v88h-76v66h76v307h121zM216 597v-237h61c59 0 94 20 112 39c9 10 29 36 29 84c0 23 -4 52 -28 76
c-34 35 -86 38 -119 38h-55z" />
    <glyph glyph-name="uni20C3" unicode="&#x20c3;" 
d="M263 667c58 0 126 -5 177 -56c31 -31 52 -79 52 -134c0 -59 -22 -100 -50 -127c-53 -52 -124 -56 -161 -56h-65v-88h164v-56h-164v-150h-74v150h-76v56h76v88h-76v66h76v307h121zM216 597v-237h61c59 0 94 20 112 39c9 10 29 36 29 84c0 23 -4 52 -28 76
c-34 35 -86 38 -119 38h-55z" />
    <glyph glyph-name="uni20C4" unicode="&#x20c4;" 
d="M263 667c58 0 126 -5 177 -56c31 -31 52 -79 52 -134c0 -59 -22 -100 -50 -127c-53 -52 -124 -56 -161 -56h-65v-88h164v-56h-164v-150h-74v150h-76v56h76v88h-76v66h76v307h121zM216 597v-237h61c59 0 94 20 112 39c9 10 29 36 29 84c0 23 -4 52 -28 76
c-34 35 -86 38 -119 38h-55z" />
    <glyph glyph-name="uni20C5" unicode="&#x20c5;" 
d="M263 667c58 0 126 -5 177 -56c31 -31 52 -79 52 -134c0 -59 -22 -100 -50 -127c-53 -52 -124 -56 -161 -56h-65v-88h164v-56h-164v-150h-74v150h-76v56h76v88h-76v66h76v307h121zM216 597v-237h61c59 0 94 20 112 39c9 10 29 36 29 84c0 23 -4 52 -28 76
c-34 35 -86 38 -119 38h-55z" />
    <glyph glyph-name="uni20C6" unicode="&#x20c6;" 
d="M263 667c58 0 126 -5 177 -56c31 -31 52 -79 52 -134c0 -59 -22 -100 -50 -127c-53 -52 -124 -56 -161 -56h-65v-88h164v-56h-164v-150h-74v150h-76v56h76v88h-76v66h76v307h121zM216 597v-237h61c59 0 94 20 112 39c9 10 29 36 29 84c0 23 -4 52 -28 76
c-34 35 -86 38 -119 38h-55z" />
    <glyph glyph-name="uni20C7" unicode="&#x20c7;" 
d="M263 667c58 0 126 -5 177 -56c31 -31 52 -79 52 -134c0 -59 -22 -100 -50 -127c-53 -52 -124 -56 -161 -56h-65v-88h164v-56h-164v-150h-74v150h-76v56h76v88h-76v66h76v307h121zM216 597v-237h61c59 0 94 20 112 39c9 10 29 36 29 84c0 23 -4 52 -28 76
c-34 35 -86 38 -119 38h-55z" />
    <glyph glyph-name="uni20C8" unicode="&#x20c8;" 
d="M263 667c58 0 126 -5 177 -56c31 -31 52 -79 52 -134c0 -59 -22 -100 -50 -127c-53 -52 -124 -56 -161 -56h-65v-88h164v-56h-164v-150h-74v150h-76v56h76v88h-76v66h76v307h121zM216 597v-237h61c59 0 94 20 112 39c9 10 29 36 29 84c0 23 -4 52 -28 76
c-34 35 -86 38 -119 38h-55z" />
    <glyph glyph-name="uni20C9" unicode="&#x20c9;" 
d="M263 667c58 0 126 -5 177 -56c31 -31 52 -79 52 -134c0 -59 -22 -100 -50 -127c-53 -52 -124 -56 -161 -56h-65v-88h164v-56h-164v-150h-74v150h-76v56h76v88h-76v66h76v307h121zM216 597v-237h61c59 0 94 20 112 39c9 10 29 36 29 84c0 23 -4 52 -28 76
c-34 35 -86 38 -119 38h-55z" />
    <glyph glyph-name="uni20CA" unicode="&#x20ca;" 
d="M263 667c58 0 126 -5 177 -56c31 -31 52 -79 52 -134c0 -59 -22 -100 -50 -127c-53 -52 -124 -56 -161 -56h-65v-88h164v-56h-164v-150h-74v150h-76v56h76v88h-76v66h76v307h121zM216 597v-237h61c59 0 94 20 112 39c9 10 29 36 29 84c0 23 -4 52 -28 76
c-34 35 -86 38 -119 38h-55z" />
    <glyph glyph-name="uni20CB" unicode="&#x20cb;" 
d="M263 667c58 0 126 -5 177 -56c31 -31 52 -79 52 -134c0 -59 -22 -100 -50 -127c-53 -52 -124 -56 -161 -56h-65v-88h164v-56h-164v-150h-74v150h-76v56h76v88h-76v66h76v307h121zM216 597v-237h61c59 0 94 20 112 39c9 10 29 36 29 84c0 23 -4 52 -28 76
c-34 35 -86 38 -119 38h-55z" />
    <glyph glyph-name="uni20CC" unicode="&#x20cc;" 
d="M263 667c58 0 126 -5 177 -56c31 -31 52 -79 52 -134c0 -59 -22 -100 -50 -127c-53 -52 -124 -56 -161 -56h-65v-88h164v-56h-164v-150h-74v150h-76v56h76v88h-76v66h76v307h121zM216 597v-237h61c59 0 94 20 112 39c9 10 29 36 29 84c0 23 -4 52 -28 76
c-34 35 -86 38 -119 38h-55z" />
    <glyph glyph-name="uni20CD" unicode="&#x20cd;" 
d="M263 667c58 0 126 -5 177 -56c31 -31 52 -79 52 -134c0 -59 -22 -100 -50 -127c-53 -52 -124 -56 -161 -56h-65v-88h164v-56h-164v-150h-74v150h-76v56h76v88h-76v66h76v307h121zM216 597v-237h61c59 0 94 20 112 39c9 10 29 36 29 84c0 23 -4 52 -28 76
c-34 35 -86 38 -119 38h-55z" />
    <glyph glyph-name="uni20CE" unicode="&#x20ce;" 
d="M263 667c58 0 126 -5 177 -56c31 -31 52 -79 52 -134c0 -59 -22 -100 -50 -127c-53 -52 -124 -56 -161 -56h-65v-88h164v-56h-164v-150h-74v150h-76v56h76v88h-76v66h76v307h121zM216 597v-237h61c59 0 94 20 112 39c9 10 29 36 29 84c0 23 -4 52 -28 76
c-34 35 -86 38 -119 38h-55z" />
    <glyph glyph-name="uni20CF" unicode="&#x20cf;" 
d="M263 667c58 0 126 -5 177 -56c31 -31 52 -79 52 -134c0 -59 -22 -100 -50 -127c-53 -52 -124 -56 -161 -56h-65v-88h164v-56h-164v-150h-74v150h-76v56h76v88h-76v66h76v307h121zM216 597v-237h61c59 0 94 20 112 39c9 10 29 36 29 84c0 23 -4 52 -28 76
c-34 35 -86 38 -119 38h-55z" />
    <glyph glyph-name="afii61352" unicode="&#x2116;" horiz-adv-x="1020" 
d="M160 0h-74v695l466 -529v501h74v-697l-466 529v-499zM845 667c81 0 145 -64 145 -145s-64 -145 -145 -145s-145 64 -145 145s64 145 145 145zM845 432c49 0 85 41 85 90s-36 90 -85 90c-47 0 -85 -40 -85 -90s38 -90 85 -90zM720 227v70h250v-70h-250z" />
    <glyph glyph-name="uni2117" unicode="&#x2117;" horiz-adv-x="740" 
d="M263 519h74c39 0 82 -2 110 -31c12 -12 28 -36 28 -77c0 -36 -13 -62 -28 -77c-25 -25 -64 -31 -99 -31h-31v-158h-54v374zM317 471v-120h22c22 0 48 1 65 17c14 12 17 29 17 44c0 12 -2 28 -13 40c-16 18 -45 19 -71 19h-20zM715 332c0 -113 -50 -191 -94 -238
c-52 -55 -135 -107 -251 -107s-199 52 -251 107c-44 47 -94 125 -94 238c0 112 50 190 94 237c52 55 135 107 251 107s199 -52 251 -107c44 -47 94 -125 94 -237zM370 620c-72 0 -151 -31 -203 -82c-56 -54 -86 -133 -86 -206c0 -74 30 -153 86 -207c52 -51 131 -82 203 -82
s151 31 203 82c56 54 86 133 86 207c0 73 -30 152 -86 206c-52 51 -131 82 -203 82z" />
    <glyph glyph-name="trademark" unicode="&#x2122;" horiz-adv-x="722" 
d="M234 621h-90v-334h-50v334h-90v46h230v-46zM316 287h-46l65 404l143 -315l147 315l61 -404h-46l-35 257l-127 -276l-125 276z" />
    <glyph glyph-name="Omega" unicode="&#x2126;" horiz-adv-x="668" 
d="M379 0v70c47 25 101 68 133 113c24 35 51 89 51 169c0 98 -38 161 -76 197c-34 32 -85 59 -153 59s-119 -27 -153 -59c-38 -36 -76 -99 -76 -197c0 -80 27 -134 51 -169c32 -45 86 -88 133 -113v-70h-260v70h179c-50 26 -92 63 -121 103c-42 58 -58 120 -58 186
c0 100 38 184 92 237c40 40 109 82 213 82s173 -42 213 -82c54 -53 92 -137 92 -237c0 -66 -16 -128 -58 -186c-29 -40 -71 -77 -121 -103h179v-70h-260z" />
    <glyph glyph-name="partialdiff" unicode="&#x2202;" horiz-adv-x="524" 
d="M83 604l17 69c75 -7 159 -34 219 -77c48 -34 95 -90 118 -134c39 -75 45 -169 45 -213c0 -94 -27 -143 -41 -165c-49 -77 -123 -96 -179 -96c-133 0 -220 100 -220 224c0 125 84 225 214 225c75 0 114 -29 133 -48h2c-27 85 -91 136 -124 157c-45 29 -117 53 -184 58z
M408 218c0 84 -54 155 -143 155c-88 0 -149 -68 -149 -163c0 -104 75 -158 146 -158c88 0 146 77 146 166z" />
    <glyph glyph-name="Delta" unicode="&#x2206;" horiz-adv-x="668" 
d="M640 0h-612l268 667h76zM334 574l-200 -504h400z" />
    <glyph glyph-name="product" unicode="&#x220f;" horiz-adv-x="698" 
d="M36 684v66h626v-66h-78v-868h78v-66h-234v66h82v868h-322v-868h81v-66h-233v66h78v868h-78z" />
    <glyph glyph-name="summation" unicode="&#x2211;" horiz-adv-x="686" 
d="M32 750h574v-215h-74v149h-402l238 -413l-242 -455h414v147h74v-213h-582v46l252 476l-252 432v46z" />
    <glyph glyph-name="minus" unicode="&#x2212;" horiz-adv-x="500" 
d="M33 300v66h434v-66h-434z" />
    <glyph glyph-name="uni2215" unicode="&#x2215;" horiz-adv-x="592" 
d="M0 -170l514 929l58 -30l-514 -927z" />
    <glyph glyph-name="uni2219" unicode="&#x2219;" horiz-adv-x="200" 
d="M36 340c0 34 30 64 64 64s64 -30 64 -64s-30 -64 -64 -64s-64 30 -64 64z" />
    <glyph glyph-name="radical" unicode="&#x221a;" horiz-adv-x="668" 
d="M409 827h259v-66h-199l-215 -761h-89l-82 300h-83v66h141l70 -268h2z" />
    <glyph glyph-name="infinity" unicode="&#x221e;" horiz-adv-x="668" 
d="M336 292c-28 -46 -85 -105 -165 -105c-89 0 -152 64 -152 154c0 88 63 152 152 152c74 0 131 -54 162 -105c27 44 83 105 166 105c87 0 150 -63 150 -154c0 -89 -62 -152 -150 -152c-82 0 -137 60 -163 105zM489 429c-55 0 -99 -55 -119 -89c26 -48 74 -89 120 -89
c45 0 85 34 85 89c0 48 -34 89 -86 89zM179 251c57 0 100 56 119 89c-23 45 -69 89 -120 89c-52 0 -85 -41 -85 -90c0 -60 47 -88 86 -88z" />
    <glyph glyph-name="integral" unicode="&#x222b;" horiz-adv-x="500" 
d="M404 739l-16 -64c-17 9 -36 11 -47 11c-20 0 -33 -7 -40 -15c-14 -15 -14 -44 -14 -87v-668c0 -45 1 -93 -27 -127c-17 -20 -50 -39 -97 -39c-16 0 -43 3 -67 11l16 64c17 -9 36 -11 47 -11c20 0 33 7 40 15c14 15 14 44 14 87v668c0 45 -1 93 27 127c17 20 50 39 97 39
c16 0 43 -3 67 -11z" />
    <glyph glyph-name="approxequal" unicode="&#x2248;" horiz-adv-x="500" 
d="M446 488l44 -26c-11 -25 -29 -53 -50 -73c-24 -24 -55 -39 -96 -39c-39 0 -73 18 -108 34c-45 21 -69 32 -95 32c-20 0 -37 -7 -52 -20c-14 -12 -27 -34 -35 -52l-44 26c12 26 33 61 48 78c24 27 53 38 87 38c37 0 71 -14 113 -34c30 -14 64 -32 95 -32c23 0 44 7 61 24
c13 12 25 30 32 44zM446 322l44 -26c-11 -25 -29 -53 -50 -73c-24 -24 -55 -39 -96 -39c-39 0 -73 18 -108 34c-45 21 -69 32 -95 32c-20 0 -37 -7 -52 -20c-14 -12 -27 -34 -35 -52l-44 26c12 26 33 61 48 78c24 27 53 38 87 38c37 0 71 -14 113 -34c30 -14 64 -32 95 -32
c23 0 44 7 61 24c13 12 25 30 32 44z" />
    <glyph glyph-name="notequal" unicode="&#x2260;" horiz-adv-x="500" 
d="M33 384v66h240l55 114h59l-54 -114h134v-66h-166l-42 -88h208v-66h-240l-54 -114h-60l55 114h-135v66h166l43 88h-209z" />
    <glyph glyph-name="lessequal" unicode="&#x2264;" horiz-adv-x="500" 
d="M110 377l357 -159v-68l-434 196v62l434 196v-68zM467 55h-434v66h434v-66z" />
    <glyph glyph-name="greaterequal" unicode="&#x2265;" horiz-adv-x="500" 
d="M390 377l-357 159v68l434 -196v-62l-434 -196v68zM467 55h-434v66h434v-66z" />
    <glyph glyph-name="dotmath" unicode="&#x22c5;" horiz-adv-x="200" 
d="M36 340c0 34 30 64 64 64s64 -30 64 -64s-30 -64 -64 -64s-64 30 -64 64z" />
    <glyph glyph-name="lozenge" unicode="&#x25ca;" horiz-adv-x="680" 
d="M74 334l260 360l260 -360l-260 -360zM510 334l-176 243l-176 -243l176 -243z" />
    <glyph glyph-name="openbullet" unicode="&#x25e6;" horiz-adv-x="493" 
d="M108 531c0 79 59 138 138 138s138 -59 138 -138s-59 -138 -138 -138s-138 59 -138 138zM158 531c0 -62 49 -92 88 -92s88 30 88 92s-49 92 -88 92s-88 -30 -88 -92z" />
    <glyph glyph-name="uniF400" unicode="&#xf400;" horiz-adv-x="2" 
d="M-186 666l74 -34l-134 -135l-45 24z" />
    <glyph glyph-name="uniF401" unicode="&#xf401;" horiz-adv-x="2" 
d="M-236 882l70 -45l-153 -117l-43 32z" />
    <glyph glyph-name="uniF406" unicode="&#xf406;" horiz-adv-x="500" 
d="M339 841h66c-5 -26 -16 -49 -31 -67c-20 -23 -58 -53 -124 -53s-104 30 -124 53c-15 18 -26 41 -31 67h66c4 -12 11 -25 25 -36c18 -14 42 -20 64 -20s46 6 64 20c14 11 21 24 25 36z" />
    <glyph glyph-name="uniF407" unicode="&#xf407;" horiz-adv-x="500" 
d="M264 -52l70 -30l-104 -128l-50 26z" />
    <glyph glyph-name="uniF408" unicode="&#xf408;" horiz-adv-x="500" 
d="M250 797l-88 -76l-52 41l140 119l140 -119l-52 -41z" />
    <glyph glyph-name="uniF409" unicode="&#xf409;" horiz-adv-x="500" 
d="M168 -210l56 160l64 -24l-70 -156z" />
    <glyph glyph-name="uniF40A" unicode="&#xf40a;" horiz-adv-x="500" 
d="M190 520l52 160l64 -24l-70 -156z" />
    <glyph glyph-name="uniF40B" unicode="&#xf40b;" horiz-adv-x="500" 
d="M195 784c0 32 23 55 55 55s55 -23 55 -55s-23 -55 -55 -55s-55 23 -55 55z" />
    <glyph glyph-name="uniF40C" unicode="&#xf40c;" horiz-adv-x="500" 
d="M162 818c0 48 40 88 88 88s88 -40 88 -88s-40 -88 -88 -88s-88 40 -88 88zM208 819c0 -22 20 -42 42 -42s42 20 42 42s-20 42 -42 42s-42 -20 -42 -42z" />
    <glyph glyph-name="uniF40D" unicode="&#xf40d;" horiz-adv-x="500" 
d="M362 842l43 -35c-6 -16 -15 -30 -26 -41c-24 -25 -51 -31 -70 -31c-24 0 -41 9 -67 22c-25 12 -41 20 -56 20c-11 0 -21 -4 -30 -13c-7 -8 -14 -19 -17 -31l-44 36c7 19 17 33 30 45c16 16 35 27 63 27c27 0 50 -12 68 -21c19 -10 39 -21 56 -21c11 0 22 4 32 14
c7 7 14 18 18 29z" />
    <glyph glyph-name="uniF40E" unicode="&#xf40e;" horiz-adv-x="500" 
d="M366 -117l-8 -59c-22 -11 -45 -14 -59 -14c-48 0 -97 31 -97 87c0 23 9 45 24 64c18 22 39 34 48 39h62c-15 -10 -35 -25 -47 -39c-5 -6 -23 -28 -23 -51c0 -20 12 -40 52 -40c20 0 38 7 48 13z" />
    <glyph glyph-name="uniF43E" unicode="&#xf43e;" horiz-adv-x="426" 
d="M412 597h-162v-597h-74v597h-162v70h398v-70zM204 -52l70 -30l-104 -128l-50 26z" />
    <glyph glyph-name="uniF43F" unicode="&#xf43f;" horiz-adv-x="214" 
d="M214 349h-72v-349h-72v349h-44v66h44v150h72v-150h72v-66zM96 -52l66 -27l-101 -128l-49 24z" />
    <glyph glyph-name="uniF47E" unicode="&#xf47e;" horiz-adv-x="646" 
d="M160 667v-409c0 -56 0 -117 53 -162c27 -23 73 -38 110 -38s83 15 110 38c53 45 53 106 53 162v409h74v-429c0 -56 -6 -110 -42 -160c-40 -55 -110 -90 -195 -90s-155 35 -195 90c-36 50 -42 104 -42 160v429h74zM268 784c0 32 23 55 55 55s55 -23 55 -55
s-23 -55 -55 -55s-55 23 -55 55z" />
    <glyph glyph-name="uniF47F" unicode="&#xf47f;" horiz-adv-x="466" 
d="M140 415v-242c0 -29 0 -63 20 -89c11 -14 33 -32 73 -32s62 18 73 32c20 26 20 60 20 89v242h72v-250c0 -51 -5 -89 -38 -125c-37 -39 -86 -52 -127 -52s-90 13 -127 52c-33 36 -38 74 -38 125v250h72zM180 553c0 30 23 53 53 53s53 -23 53 -53s-23 -53 -53 -53
s-53 23 -53 53z" />
    <glyph glyph-name="uniF481" unicode="&#xf481;" horiz-adv-x="622" 
d="M532 0l-78 188h-284l-80 -188h-82l307 699l299 -699h-82zM199 258h226l-112 267zM312 -52l70 -30l-104 -128l-50 26z" />
    <glyph glyph-name="uniF482" unicode="&#xf482;" horiz-adv-x="526" 
d="M386 356v59h72v-415h-72v58c-24 -31 -69 -70 -142 -70c-105 0 -202 74 -202 220c0 143 96 217 202 217c80 0 123 -44 142 -69zM252 361c-71 0 -136 -52 -136 -153c0 -89 50 -156 136 -156c88 0 138 73 138 155c0 107 -74 154 -138 154zM266 -52l66 -27l-101 -128l-49 24z
" />
    <glyph glyph-name="uniF483" unicode="&#xf483;" horiz-adv-x="536" 
d="M512 667l-364 -597h354v-70h-478l364 597h-317v70h441zM180 818c0 48 40 88 88 88s88 -40 88 -88s-40 -88 -88 -88s-88 40 -88 88zM226 819c0 -22 20 -42 42 -42s42 20 42 42s-20 42 -42 42s-42 -20 -42 -42z" />
    <glyph glyph-name="uniF484" unicode="&#xf484;" horiz-adv-x="460" 
d="M452 415l-300 -349h288v-66h-432l300 349h-242v66h386zM144 583c0 47 39 86 86 86s86 -39 86 -86s-39 -86 -86 -86s-86 39 -86 86zM188 583c0 -22 20 -42 42 -42s42 20 42 42s-20 42 -42 42s-42 -20 -42 -42z" />
    <glyph glyph-name="uniF485" unicode="&#xf485;" horiz-adv-x="980" 
d="M443 574l-59 -39c-9 18 -24 38 -39 50c-13 10 -37 23 -75 23c-66 0 -112 -41 -112 -103c0 -26 7 -41 25 -58c20 -20 45 -31 70 -42l64 -28c39 -17 75 -35 103 -63c34 -34 48 -73 48 -121c0 -123 -91 -205 -211 -205c-44 0 -99 9 -145 54c-33 32 -53 78 -62 118l72 20
c5 -35 21 -65 40 -85c29 -29 62 -37 96 -37c91 0 134 65 134 132c0 30 -9 56 -33 78c-19 18 -45 30 -80 46l-60 28c-26 12 -59 26 -89 55c-29 28 -46 59 -46 109c0 103 79 172 187 172c41 0 74 -8 107 -30c27 -18 50 -45 65 -74zM905 574l-59 -39c-9 18 -24 38 -39 50
c-13 10 -37 23 -75 23c-66 0 -112 -41 -112 -103c0 -26 7 -41 25 -58c20 -20 45 -31 70 -42l64 -28c39 -17 75 -35 103 -63c34 -34 48 -73 48 -121c0 -123 -91 -205 -211 -205c-44 0 -99 9 -145 54c-33 32 -53 78 -62 118l72 20c5 -35 21 -65 40 -85c29 -29 62 -37 96 -37
c91 0 134 65 134 132c0 30 -9 56 -33 78c-19 18 -45 30 -80 46l-60 28c-26 12 -59 26 -89 55c-29 28 -46 59 -46 109c0 103 79 172 187 172c41 0 74 -8 107 -30c27 -18 50 -45 65 -74z" />
    <glyph glyph-name="uniF4C4" unicode="&#xf4c4;" horiz-adv-x="426" 
d="M412 597h-162v-597h-74v597h-162v70h398v-70zM213 -52l70 -30l-104 -128l-50 26z" />
    <glyph glyph-name="uniF4C5" unicode="&#xf4c5;" horiz-adv-x="348" 
d="M340 349h-130v-349h-72v349h-130v66h332v-66zM176 -52l66 -27l-101 -128l-49 24z" />
    <glyph glyph-name="uniF4C6" unicode="&#xf4c6;" horiz-adv-x="590" 
d="M430 667h74v-753c0 -32 -2 -81 -34 -113c-28 -28 -66 -31 -87 -31c-20 0 -37 2 -55 9v72c15 -7 30 -9 42 -9c16 0 34 4 44 13c16 15 16 43 16 57v374c-40 -3 -103 -7 -138 -7c-83 0 -133 11 -165 36c-56 43 -61 110 -61 155v197h74v-187c0 -26 0 -81 40 -110
c24 -18 64 -21 116 -21c57 0 102 4 134 7v311z" />
    <glyph glyph-name="uniF4C7" unicode="&#xf4c7;" horiz-adv-x="430" 
d="M290 415h72v-487c0 -41 0 -87 -32 -123c-25 -28 -56 -35 -91 -35c-20 0 -35 3 -51 9v70c14 -5 31 -9 47 -9c25 0 39 11 46 22c8 13 9 32 9 60v241c-26 -4 -69 -9 -98 -9c-21 0 -69 1 -101 30c-28 25 -35 62 -35 102v129h72v-119c0 -15 2 -37 9 -49c13 -25 41 -27 63 -27
c27 0 59 3 90 9v186z" />
    <glyph glyph-name="uniF4C8" unicode="&#xf4c8;" horiz-adv-x="646" 
d="M596 612v-92c-21 21 -53 46 -87 62c-35 16 -76 26 -115 26c-154 0 -268 -124 -268 -278c0 -181 147 -272 269 -272c45 0 89 13 124 31c38 19 65 44 77 56v-92c-74 -53 -151 -65 -201 -65c-198 0 -345 150 -345 343c0 199 149 347 349 347c40 0 117 -5 197 -66zM364 -52
l70 -30l-104 -128l-50 26z" />
    <glyph glyph-name="uniF4C9" unicode="&#xf4c9;" horiz-adv-x="438" 
d="M393 385v-86c-38 48 -93 62 -130 62c-77 0 -147 -54 -147 -155s72 -154 146 -154c43 0 96 19 134 65v-86c-45 -33 -93 -43 -132 -43c-129 0 -222 92 -222 217c0 127 94 220 222 220c66 0 109 -26 129 -40zM246 -52l66 -27l-101 -128l-49 24z" />
    <glyph glyph-name="uniF4CC" unicode="&#xf4cc;" 
d="M8 667h90l208 -393l174 393h80l-301 -667h-80l85 186zM366 882l70 -45l-153 -117l-43 32z" />
    <glyph glyph-name="uniF4CD" unicode="&#xf4cd;" horiz-adv-x="460" 
d="M67 -230l132 269l-191 376h82l147 -297l135 297h80l-305 -645h-80zM292 666l74 -34l-134 -135l-45 24z" />
    <glyph glyph-name="uniF639" unicode="&#xf639;" horiz-adv-x="530" 
d="M265 -12c-53 0 -120 26 -171 100c-44 64 -67 150 -67 245s23 181 67 245c51 74 118 100 171 100s120 -26 171 -100c44 -64 67 -150 67 -245s-23 -181 -67 -245c-51 -74 -118 -100 -171 -100zM265 610c-34 0 -80 -18 -115 -74c-36 -57 -49 -133 -49 -203s13 -146 49 -203
c35 -56 81 -74 115 -74s80 18 115 74c36 57 49 133 49 203s-13 146 -49 203c-35 56 -81 74 -115 74z" />
    <glyph glyph-name="uniF63A" unicode="&#xf63a;" horiz-adv-x="480" 
d="M454 0h-431l243 281c17 20 62 73 78 97c30 43 37 75 37 102c0 75 -54 130 -133 130c-47 0 -86 -21 -111 -59c-13 -20 -21 -45 -22 -79h-74c3 67 24 108 50 138c28 32 75 68 158 68c118 0 206 -84 206 -199c0 -45 -13 -86 -53 -143c-28 -39 -64 -80 -91 -111l-139 -157
h282v-68z" />
    <glyph glyph-name="uniF63B" unicode="&#xf63b;" horiz-adv-x="457" 
d="M118 502h-74c2 37 14 71 31 98c44 69 115 78 155 78c126 0 188 -88 188 -180c0 -48 -18 -114 -86 -148c23 -9 96 -46 96 -161c0 -125 -91 -201 -205 -201c-69 0 -150 29 -186 115c-10 24 -14 46 -15 70h74c3 -24 11 -49 24 -67c22 -32 61 -50 103 -50
c74 0 131 61 131 135c0 38 -15 89 -66 112c-21 10 -50 15 -76 14v66c26 -2 55 3 76 14s56 39 56 99c0 59 -32 114 -114 114c-27 0 -60 -5 -86 -38c-13 -17 -24 -42 -26 -70z" />
    <glyph glyph-name="uniF63C" unicode="&#xf63c;" horiz-adv-x="520" 
d="M417 704v-510h82v-68h-82v-126h-74v126h-342zM132 194h211v295z" />
    <glyph glyph-name="uniF63D" unicode="&#xf63d;" horiz-adv-x="490" 
d="M459 667v-68h-214l-43 -144c13 3 26 4 42 4c134 0 220 -101 220 -231c0 -149 -112 -240 -243 -240c-54 0 -104 15 -149 52c-21 18 -42 41 -58 68l59 42c11 -22 25 -38 45 -54c28 -23 62 -40 108 -40c94 0 164 77 164 171c0 96 -69 164 -164 164c-24 0 -69 -4 -129 -46
l97 322h265z" />
    <glyph glyph-name="uniF63E" unicode="&#xf63e;" horiz-adv-x="496" 
d="M298 683l56 -42l-153 -213c19 6 38 9 59 9c128 0 216 -96 216 -220c0 -133 -96 -229 -229 -229c-157 0 -231 122 -231 227c0 25 5 83 55 153zM246 56c92 0 156 69 156 159c0 89 -66 154 -157 154s-155 -67 -155 -154c0 -89 63 -159 156 -159z" />
    <glyph glyph-name="uniF63F" unicode="&#xf63f;" horiz-adv-x="528" 
d="M22 23l379 576h-365v68h490l-446 -683z" />
    <glyph glyph-name="uniF640" unicode="&#xf640;" horiz-adv-x="464" 
d="M335 347c68 -30 101 -91 101 -163c0 -104 -68 -196 -204 -196s-204 92 -204 196c0 72 33 133 101 163c-53 31 -81 84 -81 146c0 95 64 185 184 185s184 -90 184 -185c0 -62 -28 -115 -81 -146zM232 377c65 0 114 49 114 115c0 73 -53 118 -114 118s-114 -45 -114 -118
c0 -66 49 -115 114 -115zM232 56c77 0 130 54 130 130c0 75 -54 127 -130 127s-130 -52 -130 -127c0 -76 53 -130 130 -130z" />
    <glyph glyph-name="uniF641" unicode="&#xf641;" horiz-adv-x="496" 
d="M198 -16l-56 41l153 213c-19 -6 -38 -9 -59 -9c-128 0 -216 96 -216 220c0 133 96 229 229 229c157 0 231 -122 231 -227c0 -25 -5 -84 -55 -153zM250 610c-92 0 -156 -69 -156 -159c0 -89 66 -154 157 -154s155 67 155 154c0 89 -63 159 -156 159z" />
    <glyph glyph-name="uniF6BA" unicode="&#xf6ba;" horiz-adv-x="320" 
d="M50 302v74h220v-74h-220z" />
    <glyph glyph-name="uniF6BB" unicode="&#xf6bb;" horiz-adv-x="580" 
d="M70 307v64h440v-64h-440z" />
    <glyph glyph-name="uniF6BC" unicode="&#xf6bc;" horiz-adv-x="800" 
d="M70 307v64h660v-64h-660z" />
    <glyph glyph-name="uniF6C3" unicode="&#xf6c3;" horiz-adv-x="500" 
d="M170 -210l56 160l64 -24l-70 -156z" />
    <glyph glyph-name="uniF6C9" unicode="&#xf6c9;" horiz-adv-x="500" 
d="M332 882l70 -45l-153 -117l-43 32z" />
    <glyph glyph-name="uniF6CA" unicode="&#xf6ca;" horiz-adv-x="500" 
d="M250 805l88 76l52 -41l-140 -119l-140 119l52 41z" />
    <glyph glyph-name="uniF6CB" unicode="&#xf6cb;" horiz-adv-x="500" 
d="M104 784c0 28 23 51 51 51s51 -23 51 -51s-23 -51 -51 -51s-51 23 -51 51zM294 784c0 28 23 51 51 51s51 -23 51 -51s-23 -51 -51 -51s-51 23 -51 51z" />
    <glyph glyph-name="uniF6CE" unicode="&#xf6ce;" horiz-adv-x="500" 
d="M251 720l-153 117l70 45l126 -130z" />
    <glyph glyph-name="uniF6CF" unicode="&#xf6cf;" horiz-adv-x="500" 
d="M254 882l70 -40l-147 -122l-43 26zM404 882l70 -40l-147 -122l-43 26z" />
    <glyph glyph-name="uniF6D0" unicode="&#xf6d0;" horiz-adv-x="500" 
d="M90 733v64h320v-64h-320z" />
    <glyph glyph-name="uniF6D1" unicode="&#xf6d1;" horiz-adv-x="500" 
d="M95 818l70 23c16 -55 77 -56 85 -56s69 1 85 56l70 -23c-6 -17 -41 -97 -155 -97s-149 80 -155 97z" />
    <glyph glyph-name="uniF6D4" unicode="&#xf6d4;" horiz-adv-x="500" 
d="M105 594l60 23c10 -34 38 -60 85 -60s75 26 85 60l60 -23c-21 -59 -75 -97 -145 -97s-124 38 -145 97z" />
    <glyph glyph-name="uniF6DC" unicode="&#xf6dc;" horiz-adv-x="229" 
d="M114 0v597h-112l39 70h147v-667h-74z" />
    <glyph glyph-name="uniF6DE" unicode="&#xf6de;" horiz-adv-x="600" 
d="M52 181v64h495v-64h-495z" />
    <glyph glyph-name="uniF8FF" unicode="&#xf8ff;" horiz-adv-x="668" 
d="M480 691v-10c0 -40 -20 -81 -50 -113c-19 -20 -66 -52 -88 -52c-16 0 -17 12 -17 18c0 60 64 140 155 157zM623 457c-77 -49 -80 -122 -80 -140c0 -67 38 -122 99 -148c-31 -97 -108 -196 -169 -196c-16 0 -30 5 -40 9l-41 16c-17 7 -64 7 -84 -1l-43 -17
c-8 -3 -29 -8 -38 -8c-16 0 -59 6 -111 82c-50 74 -84 167 -84 252c0 147 93 220 187 220c34 0 53 -9 77 -18c27 -10 40 -12 48 -12c16 0 33 6 43 10c42 15 59 22 92 22c59 0 110 -24 144 -71z" />
    <glyph glyph-name="uni20B6.fitted" horiz-adv-x="453" 
d="M215 667c58 0 126 -5 177 -56c31 -31 52 -79 52 -134c0 -59 -22 -100 -50 -127c-53 -52 -124 -56 -161 -56h-65v-88h164v-56h-164v-150h-74v150h-76v56h76v88h-76v66h76v307h121zM168 597v-237h61c59 0 94 20 112 39c9 10 29 36 29 84c0 23 -4 52 -28 76
c-34 35 -86 38 -119 38h-55z" />
    <glyph glyph-name="uni20B4.fitted" horiz-adv-x="477" 
d="M112 535l-59 39c24 31 52 55 79 71c43 26 80 33 127 33c33 0 75 -4 112 -36c32 -27 42 -60 42 -89c0 -43 -21 -84 -49 -113h93v-56h-138l-89 -88h227v-56h-278c-32 -30 -45 -68 -45 -100c0 -26 12 -45 25 -57c14 -13 37 -25 74 -25c40 0 71 14 97 38c21 20 39 50 49 74
l68 -30c-15 -41 -38 -72 -59 -92c-47 -46 -95 -60 -159 -60c-36 0 -82 6 -118 33c-29 23 -53 62 -53 114c0 28 8 67 39 105h-77v56h122l89 88h-211v56h262c34 30 57 61 57 95c0 19 -8 37 -22 50c-21 20 -49 23 -71 23c-35 0 -54 -7 -77 -22c-24 -15 -42 -32 -57 -51z" />
    <glyph glyph-name="hyphenminus" horiz-adv-x="320" 
d="M50 176v74h220v-74h-220z" />
    <glyph glyph-name="dollar.fitted" horiz-adv-x="442" 
d="M402 574l-59 -39c-9 18 -24 38 -38 50c-17 15 -32 19 -43 21v-222c49 -19 89 -41 117 -70c32 -33 47 -74 47 -121c0 -90 -57 -184 -164 -201v-93h-60v89c-55 2 -99 26 -128 54c-31 31 -53 77 -62 118l72 20c5 -35 20 -65 40 -85c27 -28 56 -36 78 -37v274
c-27 11 -76 33 -110 65c-35 33 -46 67 -46 109c0 95 70 162 156 170v87h60v-87c19 -2 46 -7 76 -28c26 -18 49 -45 64 -74zM262 304v-242c56 15 88 74 88 128c0 39 -17 64 -32 79s-41 29 -56 35zM202 411v195c-54 -9 -82 -52 -82 -99c0 -22 6 -41 25 -60
c14 -14 37 -28 57 -36z" />
    <glyph glyph-name="sterling.fitted" horiz-adv-x="526" 
d="M468 458h-73v10c0 30 -4 74 -36 106c-16 16 -43 32 -85 32c-39 0 -66 -14 -83 -31c-21 -20 -37 -52 -37 -88c0 -50 26 -92 53 -146l14 -28h126v-56h-101c8 -21 11 -42 11 -61c0 -30 -10 -64 -29 -94l59 -22c31 -12 52 -21 70 -21s36 6 53 22c13 13 24 30 31 47l61 -36
c-13 -31 -31 -53 -49 -68c-27 -23 -53 -35 -89 -35c-33 0 -58 7 -86 18l-39 15c-42 16 -64 19 -75 19c-13 0 -34 -3 -53 -18c-17 -13 -28 -31 -30 -36l-57 39c13 20 32 43 47 55c29 24 58 30 82 30c16 24 28 57 28 86c0 4 0 30 -13 60h-112v56h86l-20 37
c-25 46 -44 86 -44 139c0 48 17 98 53 134c26 26 70 53 144 53c67 0 109 -26 133 -50c33 -32 60 -89 60 -159v-9z" />
    <glyph glyph-name="cent.fitted" horiz-adv-x="383" 
d="M258 655v-97c39 -5 75 -19 105 -39v-86c-20 24 -55 55 -105 61v-306c50 6 88 39 108 63v-86c-19 -14 -55 -36 -108 -42v-109h-60v111c-47 7 -94 29 -127 61c-31 30 -59 79 -59 153c0 81 34 130 62 158c22 22 63 51 124 59v99h60zM198 189v302c-33 -4 -55 -20 -69 -34
c-26 -26 -43 -67 -43 -117c0 -45 13 -84 44 -115c24 -24 49 -32 68 -36z" />
    <glyph glyph-name="dotlessi1" horiz-adv-x="208" 
d="M68 415h72v-415h-72v415z" />
    <glyph glyph-name="florin.fitted" horiz-adv-x="481" 
d="M415 355h-108l-61 -329c-10 -55 -21 -109 -62 -149c-33 -32 -79 -47 -139 -47c-17 0 -30 2 -42 4l14 64c7 -1 15 -2 25 -2c21 0 61 2 89 29c22 22 36 60 48 128l55 302h-72l9 60h74l33 179c13 73 38 102 49 113c28 28 64 33 92 33c30 0 52 -6 64 -10l-13 -67
c-14 6 -30 11 -46 11c-19 0 -33 -6 -44 -16c-10 -10 -22 -29 -32 -84l-30 -159h106z" />
    <glyph glyph-name="yen.fitted" horiz-adv-x="546" 
d="M507 384h-141l-51 -88h192v-56h-198v-240h-74v240h-195v56h189l-51 88h-138v56h106l-131 227h87l170 -298l172 298h87l-133 -227h109v-56z" />
    <glyph glyph-name="Euro.fitted" horiz-adv-x="587" 
d="M554 622l-33 -67c-52 44 -112 53 -151 53c-138 0 -188 -112 -203 -168h319l-26 -66h-305c-4 -27 -4 -53 -1 -78h281l-26 -66h-244c19 -99 95 -172 207 -172c73 0 134 32 182 77v-92c-46 -31 -106 -55 -186 -55c-172 0 -265 114 -283 242h-67l26 66h34c-3 26 -3 52 1 78
h-61l26 66h43c26 121 121 238 288 238c39 0 106 -5 179 -56z" />
    </font>
</defs>
</svg>
